<svg xmlns="http://www.w3.org/2000/svg"  viewBox="0 0 100 100" width="100px" height="100px"><path fill="#c8ede6" d="M87.234,55.551c0.3-0.616,0.566-1.264,0.796-1.943c2.633-7.77-1.349-17.078-9.733-19.325 C77.391,22.9,69.391,15.09,60.356,13.758c-10.341-1.525-19.814,5.044-22.966,15.485c-3.799-1.346-7.501-1.182-10.99,0.857 c-1.583,0.732-3.031,1.812-4.33,3.233c-1.907,2.086-3.147,4.719-3.652,7.495c-0.748,0.118-1.483,0.236-2.176,0.484 c-4.04,1.449-6.589,4.431-7.288,8.923c-0.435,2.797,0.443,5.587,0.933,6.714c1.935,4.455,6.422,6.98,10.981,6.312 c0.227-0.033,0.557,0.069,0.752,0.233c0.241,7.12,3.698,13.417,8.884,17.014c8.321,5.772,19.027,3.994,25.781-3.921 c2.894,2.96,6.338,4.398,10.384,3.876c4.023-0.519,7.147-2.739,9.426-6.349c1.053,0.283,2.051,0.691,3.083,0.804 c4.042,0.442,7.297-1.184,9.732-4.8c0.083-0.124,0.203-0.219,0.306-0.328c0.348-0.798,0.696-1.596,1.044-2.394 c0.155-1.211,0.429-2.423,0.443-3.632C90.742,60.508,89.411,57.54,87.234,55.551z"/><path fill="#fdfcef" d="M30.938,33.374c0,0,11.691,0,11.762,0c2.7,0,4.888-2.189,4.888-4.889 c0-2.355-1.666-4.321-3.884-4.784c0.026-0.206,0.043-0.415,0.043-0.628c0-2.796-2.267-5.063-5.063-5.063 c-1.651,0-3.113,0.794-4.037,2.017c-0.236-3.113-3.017-5.514-6.27-5.116c-2.379,0.291-4.346,2.13-4.784,4.486 c-0.14,0.756-0.126,1.489,0.014,2.177c-0.638-0.687-1.546-1.119-2.557-1.119c-1.85,0-3.361,1.441-3.48,3.261 c-0.84-0.186-1.754-0.174-2.717,0.188c-1.84,0.691-3.15,2.423-3.227,4.387c-0.109,2.789,2.12,5.085,4.885,5.085 c0.21,0,0.948,0,1.118,0H27.78"/><path fill="#472b29" d="M42.7,33.874H30.938c-0.276,0-0.5-0.224-0.5-0.5s0.224-0.5,0.5-0.5H42.7 c2.42,0,4.389-1.969,4.389-4.389c0-2.066-1.466-3.873-3.486-4.295c-0.255-0.053-0.426-0.293-0.394-0.552 c0.023-0.186,0.039-0.374,0.039-0.565c0-2.517-2.047-4.563-4.562-4.563c-1.438,0-2.765,0.663-3.638,1.818 c-0.125,0.166-0.338,0.237-0.54,0.178c-0.199-0.059-0.342-0.234-0.357-0.441c-0.104-1.377-0.779-2.671-1.85-3.549 c-1.083-0.888-2.456-1.282-3.86-1.109c-2.166,0.266-3.956,1.943-4.353,4.081c-0.124,0.667-0.12,1.335,0.013,1.986 c0.044,0.22-0.062,0.442-0.262,0.544c-0.2,0.104-0.443,0.06-0.595-0.104c-0.575-0.618-1.353-0.959-2.19-0.959 c-1.569,0-2.878,1.228-2.981,2.794c-0.01,0.146-0.082,0.279-0.199,0.366c-0.117,0.089-0.268,0.12-0.408,0.089 c-0.841-0.185-1.637-0.132-2.433,0.167c-1.669,0.627-2.835,2.209-2.903,3.938c-0.047,1.207,0.387,2.35,1.221,3.218 c0.835,0.869,1.959,1.348,3.164,1.348h11.269c0.276,0,0.5,0.224,0.5,0.5s-0.224,0.5-0.5,0.5H16.513 c-1.479,0-2.858-0.588-3.884-1.654c-1.025-1.066-1.558-2.469-1.5-3.95c0.083-2.126,1.51-4.069,3.55-4.835 c0.8-0.301,1.626-0.398,2.468-0.299c0.377-1.822,1.998-3.182,3.905-3.182c0.684,0,1.354,0.18,1.944,0.51 c0-0.386,0.035-0.772,0.106-1.159c0.477-2.562,2.621-4.573,5.215-4.891c1.679-0.205,3.32,0.266,4.616,1.328 c1.003,0.823,1.716,1.951,2.038,3.193c1.012-0.916,2.319-1.426,3.714-1.426c3.067,0,5.562,2.496,5.562,5.563 c0,0.083-0.002,0.166-0.007,0.248c2.254,0.673,3.848,2.776,3.848,5.164C48.089,31.458,45.672,33.874,42.7,33.874z"/><path fill="#fdfcef" d="M28.105,22.606c-1.808-0.119-3.365,1.13-3.476,2.789c-0.014,0.206-0.005,0.409,0.025,0.606 c-0.349-0.394-0.865-0.661-1.458-0.7c-1.085-0.071-2.022,0.645-2.158,1.62c-0.197-0.054-0.403-0.09-0.616-0.104 c-1.582-0.104-2.944,0.989-3.042,2.441"/><path fill="#472b29" d="M17.381,29.507c-0.006,0-0.012,0-0.017-0.001c-0.138-0.009-0.242-0.128-0.233-0.266 c0.107-1.587,1.588-2.789,3.308-2.674c0.137,0.009,0.273,0.026,0.409,0.053c0.274-0.968,1.256-1.645,2.366-1.567 c0.425,0.027,0.823,0.159,1.164,0.382c0-0.019,0.002-0.037,0.003-0.056c0.12-1.795,1.787-3.16,3.742-3.021 c0.138,0.009,0.242,0.128,0.233,0.266s-0.124,0.255-0.266,0.232c-1.651-0.105-3.108,1.037-3.21,2.557 c-0.012,0.184-0.004,0.37,0.023,0.553c0.017,0.109-0.041,0.217-0.141,0.264s-0.219,0.022-0.293-0.061 c-0.323-0.365-0.78-0.584-1.287-0.617c-0.951-0.034-1.775,0.556-1.894,1.404c-0.01,0.071-0.05,0.135-0.11,0.175 c-0.06,0.039-0.133,0.051-0.204,0.032c-0.187-0.051-0.377-0.083-0.567-0.097c-1.44-0.092-2.687,0.896-2.775,2.209 C17.621,29.406,17.511,29.507,17.381,29.507z"/><path fill="#fff" d="M72.03,22H62c-0.276,0-0.5-0.224-0.5-0.5S61.724,21,62,21h10.03c0.276,0,0.5,0.224,0.5,0.5 S72.307,22,72.03,22z M75.411,21.5c0-0.276-0.224-0.5-0.5-0.5h-1.446c-0.276,0-0.5,0.224-0.5,0.5s0.224,0.5,0.5,0.5h1.446 C75.188,22,75.411,21.776,75.411,21.5z M79.466,21.5c0-0.276-0.224-0.5-0.5-0.5H76.42c-0.276,0-0.5,0.224-0.5,0.5 s0.224,0.5,0.5,0.5h2.546C79.243,22,79.466,21.776,79.466,21.5z M79.466,23.5c0-0.276-0.224-0.5-0.5-0.5H69.35 c-0.276,0-0.5,0.224-0.5,0.5s0.224,0.5,0.5,0.5h9.616C79.243,24,79.466,23.776,79.466,23.5z M68.118,23.5 c0-0.276-0.224-0.5-0.5-0.5h-0.58c-0.276,0-0.5,0.224-0.5,0.5s0.224,0.5,0.5,0.5h0.58C67.894,24,68.118,23.776,68.118,23.5z M65.742,23.5c0-0.276-0.224-0.5-0.5-0.5h-1.457c-0.276,0-0.5,0.224-0.5,0.5s0.224,0.5,0.5,0.5h1.457 C65.518,24,65.742,23.776,65.742,23.5z M74.877,19.5c0-0.276-0.224-0.5-0.5-0.5H69.35c-0.276,0-0.5,0.224-0.5,0.5 s0.224,0.5,0.5,0.5h5.027C74.654,20,74.877,19.776,74.877,19.5z M74.877,17.5c0-0.276-0.224-0.5-0.5-0.5H73.12 c-0.276,0-0.5,0.224-0.5,0.5s0.224,0.5,0.5,0.5h1.257C74.654,18,74.877,17.776,74.877,17.5z M71.608,25.5 c0-0.276-0.224-0.5-0.5-0.5H69.35c-0.276,0-0.5,0.224-0.5,0.5s0.224,0.5,0.5,0.5h1.758C71.385,26,71.608,25.776,71.608,25.5z"/><g><path fill="#fff" d="M14.771,53H4.741c-0.276,0-0.5-0.224-0.5-0.5s0.224-0.5,0.5-0.5h10.031c0.276,0,0.5,0.224,0.5,0.5 S15.048,53,14.771,53z M18.152,52.5c0-0.276-0.224-0.5-0.5-0.5h-1.446c-0.276,0-0.5,0.224-0.5,0.5s0.224,0.5,0.5,0.5h1.446 C17.929,53,18.152,52.776,18.152,52.5z M22.207,52.5c0-0.276-0.224-0.5-0.5-0.5h-2.546c-0.276,0-0.5,0.224-0.5,0.5 s0.224,0.5,0.5,0.5h2.546C21.983,53,22.207,52.776,22.207,52.5z M20.181,48.5c0-0.276-0.224-0.5-0.5-0.5h-9.616 c-0.276,0-0.5,0.224-0.5,0.5s0.224,0.5,0.5,0.5h9.616C19.957,49,20.181,48.776,20.181,48.5z M8.833,48.5c0-0.276-0.224-0.5-0.5-0.5 h-0.58c-0.276,0-0.5,0.224-0.5,0.5s0.224,0.5,0.5,0.5h0.58C8.61,49,8.833,48.776,8.833,48.5z M6.456,48.5 c0-0.276-0.224-0.5-0.5-0.5H4.5C4.224,48,4,48.224,4,48.5S4.224,49,4.5,49h1.456C6.233,49,6.456,48.776,6.456,48.5z M17.618,50.5 c0-0.276-0.224-0.5-0.5-0.5h-5.027c-0.276,0-0.5,0.224-0.5,0.5s0.224,0.5,0.5,0.5h5.027C17.394,51,17.618,50.776,17.618,50.5z M17.618,48.5c0-0.276-0.224-0.5-0.5-0.5h-1.257c-0.276,0-0.5,0.224-0.5,0.5s0.224,0.5,0.5,0.5h1.257 C17.394,49,17.618,48.776,17.618,48.5z M11.135,50.5c0-0.276-0.224-0.5-0.5-0.5H8.877c-0.276,0-0.5,0.224-0.5,0.5 s0.224,0.5,0.5,0.5h1.758C10.912,51,11.135,50.776,11.135,50.5z"/></g><g><path fill="#fdfcef" d="M64.14,86.283c1.883,0,3.517,0,3.54,0c2.11,0,3.821-1.674,3.821-3.739 c0-1.802-1.302-3.305-3.035-3.66c0.02-0.158,0.034-0.317,0.034-0.48c0-2.139-1.772-3.873-3.957-3.873 c-1.29,0-2.433,0.607-3.155,1.543c-0.185-2.381-2.358-4.218-4.9-3.913c-1.859,0.223-3.397,1.629-3.739,3.431 c-0.11,0.578-0.098,1.139,0.011,1.665c-0.498-0.525-1.208-0.856-1.998-0.856c-1.446,0-2.627,1.102-2.72,2.494 c-0.657-0.142-1.371-0.133-2.123,0.143c-1.438,0.528-2.462,1.853-2.522,3.356c-0.085,2.133,1.657,3.889,3.818,3.889 c0.164,0,0.741,0,0.874,0h7.934 M57.663,86.283h0.36"/><path fill="#472b29" d="M67.68,86.784h-3.54c-0.276,0-0.5-0.224-0.5-0.5s0.224-0.5,0.5-0.5h3.54 c1.831,0,3.321-1.453,3.321-3.239c0-1.524-1.108-2.858-2.636-3.17c-0.256-0.053-0.429-0.294-0.396-0.554 c0.018-0.137,0.03-0.275,0.03-0.417c0-1.86-1.551-3.373-3.457-3.373c-1.092,0-2.098,0.491-2.76,1.349 c-0.126,0.164-0.341,0.231-0.539,0.174c-0.198-0.06-0.339-0.234-0.355-0.44c-0.079-1.02-0.565-1.944-1.369-2.604 c-0.829-0.68-1.885-0.979-2.973-0.853c-1.646,0.197-3.006,1.442-3.307,3.027c-0.094,0.495-0.091,0.99,0.009,1.472 c0.045,0.219-0.06,0.441-0.258,0.545c-0.197,0.102-0.44,0.063-0.594-0.1c-0.428-0.451-1.009-0.7-1.635-0.7 c-1.169,0-2.145,0.891-2.221,2.027c-0.01,0.146-0.082,0.278-0.198,0.366c-0.116,0.087-0.264,0.12-0.406,0.089 c-0.639-0.138-1.243-0.098-1.846,0.125c-1.262,0.463-2.144,1.631-2.195,2.905c-0.035,0.876,0.283,1.709,0.895,2.346 c0.635,0.66,1.496,1.024,2.423,1.024h8.807c0.276,0,0.5,0.224,0.5,0.5s-0.224,0.5-0.5,0.5h-8.807 c-1.185,0-2.331-0.485-3.144-1.331c-0.803-0.836-1.219-1.929-1.173-3.078c0.067-1.675,1.212-3.204,2.849-3.806 c0.61-0.225,1.24-0.304,1.88-0.244c0.344-1.396,1.629-2.424,3.135-2.424c0.493,0,0.977,0.113,1.414,0.323 c0.009-0.242,0.037-0.484,0.083-0.727c0.381-2.009,2.096-3.585,4.17-3.833c1.365-0.167,2.685,0.218,3.726,1.071 c0.748,0.613,1.278,1.409,1.546,2.302c0.791-0.648,1.786-1.007,2.842-1.007c2.458,0,4.457,1.962,4.457,4.373 c0,0.034,0,0.068-0.001,0.103C70.761,79.06,72,80.693,72,82.543C72.001,84.882,70.063,86.784,67.68,86.784z M58.023,86.784 h-0.36c-0.276,0-0.5-0.224-0.5-0.5s0.224-0.5,0.5-0.5h0.36c0.276,0,0.5,0.224,0.5,0.5S58.299,86.784,58.023,86.784z"/><g><path fill="#472b29" d="M65.973,80.98c-0.018,0-0.036-0.002-0.055-0.006c-0.135-0.03-0.22-0.164-0.189-0.299 c0.037-0.164,0.094-0.325,0.17-0.479c0.604-1.224,2.272-1.677,3.722-1.007c0.125,0.058,0.18,0.206,0.122,0.331 c-0.058,0.126-0.207,0.179-0.332,0.122c-1.201-0.556-2.577-0.208-3.063,0.774c-0.058,0.118-0.102,0.242-0.13,0.367 C66.191,80.901,66.088,80.98,65.973,80.98z"/></g><g><path fill="#472b29" d="M60.814,86.784h-1.107c-0.276,0-0.5-0.224-0.5-0.5s0.224-0.5,0.5-0.5h1.107 c0.276,0,0.5,0.224,0.5,0.5S61.091,86.784,60.814,86.784z"/></g></g><g><path fill="#00a5a5" d="M72.3,73.438c-0.671,0-1.308-0.292-1.745-0.8c-0.566-0.659-0.706-1.575-0.364-2.389l0.383-0.912 l-0.987-0.058c-2.053-0.121-3.979-0.983-5.426-2.428c-1.587-1.584-2.46-3.692-2.46-5.934V36.489c0-2.118-2.218-3.7-4.2-3.7 s-4.2,1.582-4.2,3.7V67c0,1.268-1.031,2.3-2.3,2.3s-2.3-1.032-2.3-2.3V36.988c0-2.084-2.304-3.7-4.285-3.7 c-1.942,0-4.115,1.582-4.115,3.7V67c0,1.268-1.031,2.3-2.3,2.3s-2.3-1.032-2.3-2.3V38.052c0-2.162-1.76-3.944-3.498-4.587 c-1.189-0.44-1.799-1.766-1.359-2.956c0.333-0.898,1.201-1.502,2.16-1.502c0.271,0,0.538,0.048,0.795,0.143 c1.221,0.451,2.34,1.138,3.326,2.04l0.498,0.455l0.473-0.48c1.484-1.505,3.965-2.478,6.32-2.478c2.099,0,4.511,0.781,5.864,1.901 l0.484,0.4l0.45-0.439c1.449-1.412,3.976-2.361,6.286-2.361c4.688,0,8.8,3.879,8.8,8.3v24.429c0,1.012,0.395,1.964,1.111,2.679 c0.494,0.495,1.123,0.841,1.818,1.002l1.097,0.253l-0.258-1.096c-0.171-0.728,0.006-1.466,0.487-2.025 c0.438-0.508,1.074-0.799,1.745-0.799c0.55,0,1.082,0.198,1.498,0.556l4.594,3.953c0.509,0.437,0.8,1.072,0.8,1.743 s-0.291,1.306-0.8,1.744l-4.594,3.953C73.383,73.24,72.85,73.438,72.3,73.438z"/><path fill="#472b29" d="M57.5,28.889c4.315,0,8.1,3.551,8.1,7.6v24.429c0,1.2,0.467,2.327,1.316,3.174 c0.588,0.587,1.333,0.998,2.155,1.188l2.192,0.507l-0.513-2.19c-0.119-0.509,0.003-1.022,0.335-1.408 c0.305-0.354,0.748-0.557,1.216-0.557c0.382,0,0.752,0.137,1.042,0.387l4.594,3.954c0.353,0.304,0.556,0.746,0.556,1.212 c0,0.467-0.203,0.909-0.556,1.213l-4.594,3.953c-0.372,0.32-0.772,0.387-1.043,0.387c-0.467,0-0.91-0.203-1.214-0.556 c-0.393-0.457-0.489-1.093-0.25-1.662l0.766-1.824l-1.975-0.116c-1.881-0.11-3.647-0.9-4.972-2.225 c-1.454-1.452-2.254-3.383-2.254-5.438V36.489c0-2.518-2.587-4.4-4.9-4.4s-4.9,1.882-4.9,4.4v0.499V66v1 c0,0.882-0.718,1.6-1.6,1.6s-1.6-0.718-1.6-1.6v-1V36.988c0-2.518-2.632-4.4-4.985-4.4c-2.277,0-4.815,1.807-4.815,4.4v1.063V67 c0,0.882-0.718,1.6-1.6,1.6s-1.6-0.718-1.6-1.6V38.052c0-2.481-1.99-4.516-3.955-5.244c-0.828-0.306-1.252-1.229-0.946-2.056 c0.232-0.625,0.836-1.045,1.503-1.045c0.188,0,0.373,0.034,0.553,0.1c1.136,0.42,2.177,1.059,3.095,1.9l0.995,0.911l0.947-0.96 c1.338-1.357,3.678-2.269,5.822-2.269c1.951,0,4.179,0.716,5.419,1.74l0.969,0.801l0.9-0.877 C53.03,29.758,55.36,28.889,57.5,28.889 M57.5,27.489c-2.439,0-5.152,0.979-6.774,2.56c-1.557-1.287-4.137-2.061-6.311-2.061 c-2.504,0-5.186,1.03-6.819,2.686c-1.017-0.931-2.219-1.686-3.555-2.18c-0.342-0.127-0.693-0.187-1.039-0.187 c-1.218,0-2.367,0.748-2.816,1.959c-0.575,1.554,0.219,3.28,1.772,3.855C33.433,34.667,35,36.229,35,38.052V67 c0,1.657,1.343,3,3,3s3-1.343,3-3V38.052v-1.063c0-1.654,1.761-3,3.415-3s3.585,1.346,3.585,3V66v1c0,1.657,1.343,3,3,3 s3-1.343,3-3v-1V36.988v-0.499c0-1.654,1.846-3,3.5-3s3.5,1.346,3.5,3v24.429c0,2.429,0.946,4.712,2.665,6.429 c1.587,1.585,3.658,2.501,5.88,2.631c-0.427,1.016-0.287,2.225,0.48,3.117c0.594,0.689,1.433,1.043,2.275,1.043 c0.693,0,1.39-0.238,1.956-0.726l4.594-3.953c0.662-0.57,1.043-1.4,1.043-2.274c0-0.874-0.381-1.704-1.043-2.273l-4.594-3.953 c-0.566-0.487-1.262-0.726-1.955-0.726c-0.843,0-1.682,0.354-2.276,1.043c-0.65,0.755-0.849,1.74-0.638,2.642 c-0.555-0.128-1.068-0.402-1.481-0.815C67.321,62.519,67,61.743,67,60.918V36.489C67,31.526,62.463,27.489,57.5,27.489 L57.5,27.489z"/><path fill="#472b29" d="M32.5,44.83c-0.276,0-0.5-0.224-0.5-0.5v-4.255c-0.001-0.088-0.056-2.233-2.658-3.1 c-0.262-0.087-0.403-0.371-0.316-0.633c0.089-0.262,0.372-0.403,0.633-0.316C32.962,37.127,33,39.955,33,40.074v4.255 C33,44.606,32.776,44.83,32.5,44.83z"/><path fill="#472b29" d="M32.5,55.117c-0.276,0-0.5-0.224-0.5-0.5v-7.319c0-0.276,0.224-0.5,0.5-0.5s0.5,0.224,0.5,0.5 v7.319C33,54.893,32.776,55.117,32.5,55.117z"/><path fill="#472b29" d="M32.5,67c-0.276,0-0.5-0.224-0.5-0.5v-8.532c0-0.276,0.224-0.5,0.5-0.5s0.5,0.224,0.5,0.5V66.5 C33,66.776,32.776,67,32.5,67z"/><path fill="#472b29" d="M69.5,47.606c-0.276,0-0.5-0.224-0.5-0.5V35.718c0-2.007-0.976-5.738-3.665-7.789 c-0.219-0.167-0.262-0.481-0.094-0.701c0.169-0.22,0.481-0.261,0.701-0.094C68.919,29.406,70,33.512,70,35.718v11.388 C70,47.383,69.776,47.606,69.5,47.606z"/><g><path fill="#472b29" d="M69.5,59c-0.276,0-0.5-0.224-0.5-0.5v-7.468c0-0.276,0.224-0.5,0.5-0.5s0.5,0.224,0.5,0.5V58.5 C70,58.776,69.776,59,69.5,59z"/></g></g></svg>