<svg xmlns="http://www.w3.org/2000/svg"  viewBox="0 0 100 100" width="100px" height="100px"><path fill="#c7ede6" d="M87.215,56.71C88.35,54.555,89,52.105,89,49.5c0-6.621-4.159-12.257-10.001-14.478 C78.999,35.015,79,35.008,79,35c0-11.598-9.402-21-21-21c-9.784,0-17.981,6.701-20.313,15.757C36.211,29.272,34.638,29,33,29 c-7.692,0-14.023,5.793-14.89,13.252C12.906,43.353,9,47.969,9,53.5C9,59.851,14.149,65,20.5,65c0.177,0,0.352-0.012,0.526-0.022 C21.022,65.153,21,65.324,21,65.5C21,76.822,30.178,86,41.5,86c6.437,0,12.175-2.972,15.934-7.614C59.612,80.611,62.64,82,66,82 c4.65,0,8.674-2.65,10.666-6.518C77.718,75.817,78.837,76,80,76c6.075,0,11-4.925,11-11C91,61.689,89.53,58.727,87.215,56.71z"/><path fill="#00a5a5" d="M61.15,76.3c-5.21,0-9.45-4.172-9.45-9.3c0-0.163,0.005-0.314,0.013-0.459 C51.705,66.314,51.7,66.163,51.7,66c0-6.096,3.248-11.837,6.114-16.901C59.725,45.723,61.7,42.235,61.7,40 c0-4.96-3.999-8.7-9.3-8.7c-5.273,0-9.1,3.659-9.1,8.7c0,2.721,1.119,5.52,2.304,8.483C46.929,51.8,48.3,55.229,48.3,59 c0,5.128-4.172,9.3-9.3,9.3s-9.3-4.172-9.3-9.3s4.172-9.3,9.3-9.3c0.357,0,0.709,0.025,1.056,0.065l1.154,0.131l-0.423-1.082 C39.777,46.232,38.7,43.208,38.7,40c0-7.582,5.89-13.3,13.7-13.3c7.794,0,13.9,5.842,13.9,13.3c0,3.446-2.076,7.114-4.479,11.36 C59.232,55.933,56.3,61.114,56.3,66c0,0.163-0.005,0.314-0.013,0.459C56.295,66.686,56.3,66.837,56.3,67 c0,2.592,2.176,4.7,4.85,4.7c2.594,0,4.55-2.021,4.55-4.7c0-1.268,1.032-2.3,2.3-2.3s2.3,1.032,2.3,2.3 C70.3,72.215,66.281,76.3,61.15,76.3z M39,54.3c-2.592,0-4.7,2.108-4.7,4.7s2.108,4.7,4.7,4.7s4.7-2.108,4.7-4.7 S41.592,54.3,39,54.3z"/><path fill="#472b29" d="M52.4,27.4c7.402,0,13.2,5.535,13.2,12.6c0,3.261-2.034,6.855-4.39,11.019 C58.58,55.664,55.6,60.929,55.6,66c0,0.148-0.005,0.287-0.012,0.418L55.583,66.5l0.005,0.082C55.595,66.713,55.6,66.852,55.6,67 c0,2.978,2.49,5.4,5.55,5.4c2.993,0,5.25-2.321,5.25-5.4c0-0.882,0.718-1.6,1.6-1.6s1.6,0.718,1.6,1.6 c0,4.822-3.712,8.6-8.45,8.6c-4.825,0-8.75-3.858-8.75-8.6c0-0.148,0.005-0.287,0.012-0.418l0.005-0.082l-0.005-0.082 C52.405,66.287,52.4,66.148,52.4,66c0-5.912,3.2-11.567,6.025-16.559C60.469,45.831,62.4,42.419,62.4,40 c0-5.359-4.299-9.4-10-9.4c-5.678,0-9.8,3.953-9.8,9.4c0,2.855,1.143,5.715,2.354,8.743C46.255,51.998,47.6,55.364,47.6,59 c0,4.742-3.858,8.6-8.6,8.6s-8.6-3.858-8.6-8.6s3.858-8.6,8.6-8.6c0.301,0,0.62,0.02,0.977,0.061l2.308,0.263l-0.846-2.164 C40.453,46.036,39.4,43.085,39.4,40C39.4,32.817,44.989,27.4,52.4,27.4 M39,64.4c2.978,0,5.4-2.422,5.4-5.4s-2.422-5.4-5.4-5.4 s-5.4,2.422-5.4,5.4S36.022,64.4,39,64.4 M52.4,26C44.19,26,38,32.019,38,40c0,3.221,1.012,6.197,2.135,9.069 C39.762,49.027,39.384,49,39,49c-5.514,0-10,4.486-10,10s4.486,10,10,10s10-4.486,10-10c0-3.905-1.396-7.398-2.746-10.776 C45.095,45.324,44,42.585,44,40c0-4.636,3.533-8,8.4-8c4.903,0,8.6,3.439,8.6,8c0,2.05-1.928,5.457-3.793,8.752 C54.297,53.893,51,59.718,51,66c0,0.178,0.005,0.343,0.015,0.5C51.005,66.657,51,66.822,51,67c0,5.514,4.553,10,10.15,10 C66.673,77,71,72.607,71,67c0-1.657-1.343-3-3-3s-3,1.343-3,3c0,2.28-1.655,4-3.85,4C58.862,71,57,69.206,57,67 c0-0.178-0.005-0.343-0.015-0.5C56.995,66.343,57,66.178,57,66c0-4.702,2.884-9.797,5.428-14.292C64.881,47.374,67,43.631,67,40 C67,32.149,60.587,26,52.4,26L52.4,26z M39,63c-2.206,0-4-1.794-4-4s1.794-4,4-4s4,1.794,4,4S41.206,63,39,63L39,63z"/><path fill="#472b29" d="M60.469,65.585c-0.036,0-0.072-0.004-0.109-0.012c-0.27-0.06-0.439-0.327-0.38-0.596l0.103-0.475 c0.29-1.347,0.686-3.192,1.756-5.829c0.104-0.256,0.397-0.378,0.651-0.275c0.256,0.104,0.379,0.396,0.275,0.651 c-1.038,2.556-1.423,4.352-1.705,5.663l-0.104,0.481C60.905,65.427,60.698,65.585,60.469,65.585z"/><path fill="#472b29" d="M63.9,55.906c-0.077,0-0.155-0.018-0.229-0.056c-0.246-0.126-0.342-0.428-0.215-0.673 c0.805-1.562,1.763-3.216,2.846-4.914c0.148-0.233,0.458-0.301,0.69-0.153c0.232,0.148,0.301,0.458,0.152,0.69 c-1.066,1.673-2.009,3.3-2.8,4.835C64.256,55.808,64.081,55.906,63.9,55.906z"/><path fill="#472b29" d="M68.577,47.651c-0.069,0-0.14-0.015-0.208-0.046c-0.251-0.115-0.361-0.412-0.246-0.663 c4.282-9.342-0.076-15.185-1.513-16.753c-0.187-0.204-0.173-0.52,0.031-0.707c0.204-0.187,0.521-0.173,0.707,0.031 c3.179,3.468,5.291,9.978,1.685,17.845C68.948,47.542,68.767,47.651,68.577,47.651z"/><path fill="#472b29" d="M35.766,45.67c-0.219,0-0.42-0.145-0.481-0.366c-2.053-7.383,0.144-12.53,2.348-15.547 c0.163-0.223,0.475-0.272,0.699-0.109c0.223,0.163,0.271,0.476,0.109,0.699c-3.017,4.13-3.754,9.072-2.192,14.689 c0.074,0.266-0.082,0.542-0.348,0.616C35.855,45.664,35.81,45.67,35.766,45.67z"/><g><path fill="#472b29" d="M40.48,27.852c-0.137,0-0.272-0.056-0.372-0.165c-0.185-0.205-0.168-0.521,0.037-0.706 c1.764-1.589,3.251-2.334,3.314-2.365c0.248-0.123,0.546-0.021,0.669,0.226c0.123,0.247,0.021,0.547-0.226,0.67 c-0.014,0.007-1.434,0.721-3.088,2.211C40.719,27.809,40.6,27.852,40.48,27.852z"/></g><g><path fill="#fff" d="M22.405,41H12.5c-0.276,0-0.5-0.224-0.5-0.5s0.224-0.5,0.5-0.5h9.905c0.276,0,0.5,0.224,0.5,0.5 S22.682,41,22.405,41z"/><path fill="#fff" d="M25.5,41h-1c-0.276,0-0.5-0.224-0.5-0.5s0.224-0.5,0.5-0.5h1c0.276,0,0.5,0.224,0.5,0.5 S25.777,41,25.5,41z"/><path fill="#fff" d="M30.491,43H21.5c-0.276,0-0.5-0.224-0.5-0.5s0.224-0.5,0.5-0.5h8.991c0.276,0,0.5,0.224,0.5,0.5 S30.767,43,30.491,43z"/><path fill="#fff" d="M19.5,43h-1c-0.276,0-0.5-0.224-0.5-0.5s0.224-0.5,0.5-0.5h1c0.276,0,0.5,0.224,0.5,0.5 S19.777,43,19.5,43z"/><path fill="#fff" d="M16.5,43h-2c-0.276,0-0.5-0.224-0.5-0.5s0.224-0.5,0.5-0.5h2c0.276,0,0.5,0.224,0.5,0.5 S16.777,43,16.5,43z"/><path fill="#fff" d="M22.5,45h-2c-0.276,0-0.5-0.224-0.5-0.5s0.224-0.5,0.5-0.5h2c0.276,0,0.5,0.224,0.5,0.5 S22.776,45,22.5,45z"/><path fill="#fff" d="M25.5,36c-0.177,0-0.823,0-1,0c-0.276,0-0.5,0.224-0.5,0.5c0,0.276,0.224,0.5,0.5,0.5 c0.177,0,0.823,0,1,0c0.276,0,0.5-0.224,0.5-0.5C26,36.224,25.776,36,25.5,36z"/><path fill="#fff" d="M25.5,38c-0.177,0-4.823,0-5,0c-0.276,0-0.5,0.224-0.5,0.5c0,0.276,0.224,0.5,0.5,0.5 c0.177,0,4.823,0,5,0c0.276,0,0.5-0.224,0.5-0.5C26,38.224,25.776,38,25.5,38z"/><path fill="#fff" d="M30.5,40c-0.177,0-2.823,0-3,0c-0.276,0-0.5,0.224-0.5,0.5c0,0.276,0.224,0.5,0.5,0.5 c0.177,0,2.823,0,3,0c0.276,0,0.5-0.224,0.5-0.5C31,40.224,30.776,40,30.5,40z"/></g><g><path fill="#fff" d="M86.5,69h-10c-0.276,0-0.5-0.224-0.5-0.5s0.224-0.5,0.5-0.5h10c0.276,0,0.5,0.224,0.5,0.5 S86.776,69,86.5,69z"/><path fill="#fff" d="M90.5,69h-2c-0.276,0-0.5-0.224-0.5-0.5s0.224-0.5,0.5-0.5h2c0.276,0,0.5,0.224,0.5,0.5 S90.776,69,90.5,69z"/><path fill="#fff" d="M95.5,71h-10c-0.276,0-0.5-0.224-0.5-0.5s0.224-0.5,0.5-0.5h10c0.276,0,0.5,0.224,0.5,0.5 S95.777,71,95.5,71z"/><path fill="#fff" d="M83.5,71h-1c-0.276,0-0.5-0.224-0.5-0.5s0.224-0.5,0.5-0.5h1c0.276,0,0.5,0.224,0.5,0.5 S83.776,71,83.5,71z"/><path fill="#fff" d="M80.375,71H78.5c-0.276,0-0.5-0.224-0.5-0.5s0.224-0.5,0.5-0.5h1.875c0.276,0,0.5,0.224,0.5,0.5 S80.651,71,80.375,71z"/><path fill="#fff" d="M89.5,67h-5c-0.276,0-0.5-0.224-0.5-0.5s0.224-0.5,0.5-0.5h5c0.276,0,0.5,0.224,0.5,0.5 S89.777,67,89.5,67z"/><path fill="#fff" d="M86.5,73h-2c-0.276,0-0.5-0.224-0.5-0.5s0.224-0.5,0.5-0.5h2c0.276,0,0.5,0.224,0.5,0.5 S86.776,73,86.5,73z"/></g><g><path fill="#fdfcef" d="M22,77h-5.75c-2.485,0.75-4.5-1.265-4.5-3.75c0-2.333,1.782-4.229,4.055-4.455 c-0.022-0.181-0.055-0.358-0.055-0.545c0-2.485,2.015-4.5,4.5-4.5c1.438,0,2.703,0.686,3.527,1.736 c0.14-2.636,2.302-4.736,4.973-4.736c2.761,0,5,2.239,5,5c0,0.446-0.077,0.87-0.187,1.282c0.642-0.777,1.6-1.282,2.687-1.282 c1.781,0,3.234,1.335,3.455,3.055c0.181-0.022,0.358-0.055,0.545-0.055c2.485,0,4.5,2.015,4.5,4.5s-2.015,4.5-4.5,3.75h-9.5H25v1 h-3V77z"/><path fill="#472b29" d="M28.5,60c3.033,0,5.5,2.467,5.5,5.5c0,0.016,0,0.031,0,0.047C34.602,65.192,35.29,65,36,65 c1.831,0,3.411,1.261,3.858,3.005C39.905,68.002,39.952,68,40,68c3.099,0,5.549,2.834,4.893,6.047 C44.413,76.398,42.204,78,39.804,78H25.125c-0.276,0-0.5-0.224-0.5-0.5c0-0.276,0.224-0.5,0.5-0.5h14.718 c1.92,0,3.687-1.282,4.071-3.163C44.439,71.267,42.479,69,40,69c-0.117,0-0.23,0.017-0.343,0.032l-0.141,0.019 c-0.021,0.003-0.041,0.004-0.062,0.004c-0.246,0-0.462-0.185-0.495-0.437C38.768,67.126,37.496,66,36,66 c-0.885,0-1.723,0.401-2.301,1.1c-0.098,0.118-0.241,0.182-0.386,0.182c-0.078,0-0.156-0.018-0.228-0.056 c-0.209-0.107-0.314-0.346-0.254-0.573c0.16-0.6,0.202-1.069,0.147-1.549c-0.24-2.127-1.959-3.909-4.092-4.088 c-2.551-0.215-4.725,1.728-4.859,4.246c-0.011,0.208-0.15,0.387-0.349,0.45c-0.05,0.016-0.101,0.024-0.152,0.024 c-0.15,0-0.296-0.069-0.392-0.192C22.362,64.563,21.221,64,20,64c-2.206,0-4,1.794-4,4c0,0.117,0.017,0.23,0.032,0.343 l0.019,0.141c0.016,0.134-0.022,0.268-0.106,0.373c-0.084,0.105-0.207,0.172-0.34,0.185c-2.352,0.234-4.042,2.429-3.504,4.865 C12.509,75.76,14.275,77,16.173,77l5.952,0c0.276,0,0.5,0.224,0.5,0.5c0,0.276-0.224,0.5-0.5,0.5h-5.938 c-2.467,0-4.708-1.704-5.115-4.138c-0.462-2.763,1.344-5.22,3.931-5.74C15.001,68.082,15,68.041,15,68c0-2.757,2.243-5,5-5 c1.176,0,2.293,0.416,3.183,1.164C23.781,61.76,25.945,60,28.5,60L28.5,60z"/><path fill="#472b29" d="M30.25,67.25c1.403,0,2.609,0.999,2.913,2.341c0.367-0.222,0.786-0.341,1.212-0.341 c1.202,0,2.198,0.897,2.353,2.068c0.203-0.045,0.396-0.068,0.585-0.068c1.529,0,2.811,1.2,2.918,2.732 c0.009,0.138-0.094,0.257-0.232,0.267c-0.006,0-0.012,0-0.018,0c-0.13,0-0.24-0.101-0.249-0.232 c-0.089-1.271-1.151-2.268-2.419-2.268c-0.229,0-0.47,0.041-0.738,0.127c-0.022,0.007-0.045,0.01-0.067,0.01 c-0.055,0-0.11-0.02-0.156-0.054c-0.064-0.047-0.102-0.129-0.102-0.209c0-1.034-0.841-1.875-1.875-1.875 c-0.447,0-0.885,0.168-1.231,0.473c-0.047,0.041-0.106,0.063-0.165,0.063c-0.032,0-0.063-0.006-0.093-0.019 c-0.088-0.035-0.148-0.117-0.155-0.212c-0.102-1.292-1.191-2.305-2.479-2.305c-0.208,0-0.425,0.034-0.682,0.107 c-0.023,0.007-0.047,0.01-0.07,0.01c-0.109,0-0.207-0.073-0.239-0.182c-0.038-0.133,0.039-0.271,0.172-0.309 C29.733,67.29,29.994,67.25,30.25,67.25L30.25,67.25z"/><path fill="#472b29" d="M16.367,68.75c1.326,0,2.508,0.897,2.874,2.182c0.038,0.133-0.039,0.271-0.172,0.309 c-0.023,0.007-0.046,0.01-0.068,0.01c-0.109,0-0.209-0.072-0.24-0.182c-0.305-1.071-1.289-1.818-2.393-1.818 c-0.117,0-0.23,0.014-0.342,0.029c-0.012,0.002-0.023,0.003-0.035,0.003c-0.121,0-0.229-0.092-0.246-0.217 c-0.019-0.137,0.077-0.263,0.214-0.281C16.092,68.766,16.228,68.75,16.367,68.75L16.367,68.75z"/></g><g><path fill="#fdfcef" d="M88.5,57.5c0,0,1.567,0,3.5,0s3.5-1.567,3.5-3.5c0-1.781-1.335-3.234-3.055-3.455 C92.473,50.366,92.5,50.187,92.5,50c0-1.933-1.567-3.5-3.5-3.5c-1.032,0-1.95,0.455-2.59,1.165 c-0.384-1.808-1.987-3.165-3.91-3.165c-2.209,0-4,1.791-4,4c0,0.191,0.03,0.374,0.056,0.558C78.128,48.714,77.592,48.5,77,48.5 c-1.228,0-2.245,0.887-2.455,2.055C74.366,50.527,74.187,50.5,74,50.5c-1.933,0-3.5,1.567-3.5,3.5s1.567,3.5,3.5,3.5s7.5,0,7.5,0 V58h7V57.5z"/><path fill="#472b29" d="M90.25,53C90.112,53,90,52.888,90,52.75c0-1.223,0.995-2.218,2.218-2.218 c0.034,0.009,0.737-0.001,1.244,0.136c0.133,0.036,0.212,0.173,0.176,0.306c-0.036,0.134-0.173,0.213-0.306,0.176 c-0.444-0.12-1.1-0.12-1.113-0.118c-0.948,0-1.719,0.771-1.719,1.718C90.5,52.888,90.388,53,90.25,53z"/><circle cx="83.5" cy="57.5" r=".5" fill="#472b29"/><path fill="#472b29" d="M92,58h-3.5c-0.276,0-0.5-0.224-0.5-0.5s0.224-0.5,0.5-0.5H92c1.654,0,3-1.346,3-3 c0-1.496-1.125-2.768-2.618-2.959c-0.134-0.018-0.255-0.088-0.336-0.196s-0.115-0.244-0.094-0.377C91.975,50.314,92,50.16,92,50 c0-1.654-1.346-3-3-3c-0.85,0-1.638,0.355-2.219,1c-0.125,0.139-0.321,0.198-0.5,0.148c-0.182-0.049-0.321-0.195-0.36-0.379 C85.58,46.165,84.141,45,82.5,45c-1.93,0-3.5,1.57-3.5,3.5c0,0.143,0.021,0.28,0.041,0.418c0.029,0.203-0.063,0.438-0.242,0.54 c-0.179,0.102-0.396,0.118-0.556-0.01C77.878,49.155,77.449,49,77,49c-0.966,0-1.792,0.691-1.963,1.644 c-0.048,0.267-0.296,0.446-0.569,0.405C74.315,51.025,74.16,51,74,51c-1.654,0-3,1.346-3,3s1.346,3,3,3h7.5 c0.276,0,0.5,0.224,0.5,0.5S81.776,58,81.5,58H74c-2.206,0-4-1.794-4-4s1.794-4,4-4c0.059,0,0.116,0.002,0.174,0.006 C74.588,48.82,75.711,48,77,48c0.349,0,0.689,0.061,1.011,0.18C78.176,45.847,80.127,44,82.5,44c1.831,0,3.466,1.127,4.153,2.774 C87.334,46.276,88.155,46,89,46c2.206,0,4,1.794,4,4c0,0.048-0.001,0.095-0.004,0.142C94.739,50.59,96,52.169,96,54 C96,56.206,94.206,58,92,58z"/><path fill="#472b29" d="M86.5,57c-0.159,0-0.841,0-1,0c-0.276,0-0.5,0.224-0.5,0.5c0,0.276,0.224,0.5,0.5,0.5 c0.159,0,0.841,0,1,0c0.276,0,0.5-0.224,0.5-0.5C87,57.224,86.776,57,86.5,57z"/></g></svg>