<svg xmlns="http://www.w3.org/2000/svg"  viewBox="0 0 100 100" width="100px" height="100px"><path fill="#c7ede6" d="M85.215,56.71C86.35,54.555,87,52.105,87,49.5c0-6.621-4.159-12.257-10.001-14.478 C76.999,35.015,77,35.008,77,35c0-11.598-9.402-21-21-21c-9.784,0-17.981,6.701-20.313,15.757C34.211,29.272,32.638,29,31,29 c-7.692,0-14.023,5.793-14.89,13.252C10.906,43.353,7,47.969,7,53.5C7,59.851,12.149,65,18.5,65c0.177,0,0.352-0.012,0.526-0.022 C19.022,65.153,19,65.324,19,65.5C19,76.822,28.178,86,39.5,86c6.437,0,12.175-2.972,15.934-7.614C57.612,80.611,60.64,82,64,82 c4.65,0,8.674-2.65,10.666-6.518C75.718,75.817,76.837,76,78,76c6.075,0,11-4.925,11-11C89,61.689,87.53,58.727,85.215,56.71z"/><path fill="#fff" d="M23.405,39H13.5c-0.276,0-0.5-0.224-0.5-0.5s0.224-0.5,0.5-0.5h9.905c0.276,0,0.5,0.224,0.5,0.5 S23.682,39,23.405,39z"/><path fill="#fff" d="M26.5,39h-1c-0.276,0-0.5-0.224-0.5-0.5s0.224-0.5,0.5-0.5h1c0.276,0,0.5,0.224,0.5,0.5 S26.777,39,26.5,39z"/><path fill="#fff" d="M31.491,41H22.5c-0.276,0-0.5-0.224-0.5-0.5s0.224-0.5,0.5-0.5h8.991c0.276,0,0.5,0.224,0.5,0.5 S31.767,41,31.491,41z"/><path fill="#fff" d="M20.5,41h-1c-0.276,0-0.5-0.224-0.5-0.5s0.224-0.5,0.5-0.5h1c0.276,0,0.5,0.224,0.5,0.5 S20.777,41,20.5,41z"/><path fill="#fff" d="M17.5,41h-2c-0.276,0-0.5-0.224-0.5-0.5s0.224-0.5,0.5-0.5h2c0.276,0,0.5,0.224,0.5,0.5 S17.777,41,17.5,41z"/><path fill="#fff" d="M23.5,43h-2c-0.276,0-0.5-0.224-0.5-0.5s0.224-0.5,0.5-0.5h2c0.276,0,0.5,0.224,0.5,0.5 S23.776,43,23.5,43z"/><path fill="#fff" d="M26.5,34c-0.177,0-0.823,0-1,0c-0.276,0-0.5,0.224-0.5,0.5c0,0.276,0.224,0.5,0.5,0.5 c0.177,0,0.823,0,1,0c0.276,0,0.5-0.224,0.5-0.5C27,34.224,26.776,34,26.5,34z"/><path fill="#fff" d="M26.5,36c-0.177,0-4.823,0-5,0c-0.276,0-0.5,0.224-0.5,0.5c0,0.276,0.224,0.5,0.5,0.5 c0.177,0,4.823,0,5,0c0.276,0,0.5-0.224,0.5-0.5C27,36.224,26.776,36,26.5,36z"/><path fill="#fff" d="M31.5,38c-0.177,0-2.823,0-3,0c-0.276,0-0.5,0.224-0.5,0.5c0,0.276,0.224,0.5,0.5,0.5 c0.177,0,2.823,0,3,0c0.276,0,0.5-0.224,0.5-0.5C32,38.224,31.776,38,31.5,38z"/><g><path fill="#fff" d="M84.5,67h-10c-0.276,0-0.5-0.224-0.5-0.5s0.224-0.5,0.5-0.5h10c0.276,0,0.5,0.224,0.5,0.5 S84.776,67,84.5,67z"/><path fill="#fff" d="M88.5,67h-2c-0.276,0-0.5-0.224-0.5-0.5s0.224-0.5,0.5-0.5h2c0.276,0,0.5,0.224,0.5,0.5 S88.776,67,88.5,67z"/><path fill="#fff" d="M93.5,69h-10c-0.276,0-0.5-0.224-0.5-0.5s0.224-0.5,0.5-0.5h10c0.276,0,0.5,0.224,0.5,0.5 S93.777,69,93.5,69z"/><path fill="#fff" d="M81.5,69h-1c-0.276,0-0.5-0.224-0.5-0.5s0.224-0.5,0.5-0.5h1c0.276,0,0.5,0.224,0.5,0.5 S81.776,69,81.5,69z"/><path fill="#fff" d="M78.47,69H76.5c-0.276,0-0.5-0.224-0.5-0.5s0.224-0.5,0.5-0.5h1.97c0.276,0,0.5,0.224,0.5,0.5 S78.746,69,78.47,69z"/><path fill="#fff" d="M87.5,65h-5c-0.276,0-0.5-0.224-0.5-0.5s0.224-0.5,0.5-0.5h5c0.276,0,0.5,0.224,0.5,0.5 S87.777,65,87.5,65z"/><path fill="#fff" d="M84.5,71h-2c-0.276,0-0.5-0.224-0.5-0.5s0.224-0.5,0.5-0.5h2c0.276,0,0.5,0.224,0.5,0.5 S84.776,71,84.5,71z"/></g><g><path fill="#fdfcef" d="M63.875,32.5c0,0-3.64,0-6.125,0s-4.5-2.015-4.5-4.5c0-2.333,1.782-4.229,4.055-4.455 C57.283,23.364,57.25,23.187,57.25,23c0-2.485,2.015-4.5,4.5-4.5c1.438,0,2.703,0.686,3.527,1.736 c0.14-2.636,2.302-4.736,4.973-4.736c2.761,0,5,2.239,5,5c0,0.446-0.077,0.87-0.187,1.282c0.642-0.777,1.6-1.282,2.687-1.282 c1.781,0,3.234,1.335,3.455,3.055c0.181-0.022,0.358-0.055,0.545-0.055c2.485,0,4.5,2.015,4.5,4.5s-2.015,4.5-4.5,4.5 s-9.5,0-9.5,0h-5.375V33h-3V32.5z"/><path fill="#472b29" d="M70.25,15c3.033,0,5.5,2.467,5.5,5.5c0,0.016,0,0.031,0,0.047c0.602-0.354,1.29-0.547,2-0.547 c1.831,0,3.411,1.261,3.858,3.005C81.655,23.002,81.702,23,81.75,23c2.757,0,5,2.243,5,5s-2.243,5-5,5H66.875 c-0.276,0-0.5-0.224-0.5-0.5s0.224-0.5,0.5-0.5H81.75c2.206,0,4-1.794,4-4s-1.794-4-4-4c-0.117,0-0.23,0.017-0.343,0.032 l-0.141,0.019c-0.021,0.003-0.041,0.004-0.062,0.004c-0.246,0-0.462-0.185-0.495-0.437C80.518,22.125,79.246,21,77.75,21 c-0.885,0-1.723,0.401-2.301,1.1c-0.098,0.118-0.241,0.182-0.386,0.182c-0.078,0-0.156-0.018-0.228-0.056 c-0.209-0.107-0.314-0.346-0.254-0.573c0.116-0.436,0.17-0.802,0.17-1.153c0-2.481-2.019-4.5-4.5-4.5 c-2.381,0-4.347,1.872-4.474,4.263c-0.011,0.208-0.15,0.387-0.349,0.45c-0.05,0.016-0.101,0.024-0.152,0.024 c-0.15,0-0.296-0.069-0.392-0.192C64.112,19.563,62.971,19,61.75,19c-2.206,0-4,1.794-4,4c0,0.117,0.017,0.23,0.032,0.343 l0.019,0.141c0.016,0.134-0.022,0.268-0.106,0.373c-0.084,0.105-0.207,0.172-0.34,0.185C55.299,24.247,53.75,25.949,53.75,28 c0,2.206,1.794,4,4,4h6.125c0.276,0,0.5,0.224,0.5,0.5s-0.224,0.5-0.5,0.5H57.75c-2.757,0-5-2.243-5-5 c0-2.397,1.689-4.413,4.003-4.877C56.751,23.082,56.75,23.041,56.75,23c0-2.757,2.243-5,5-5c1.176,0,2.293,0.416,3.183,1.164 C65.531,16.76,67.695,15,70.25,15L70.25,15z"/><path fill="#472b29" d="M71.75,22c1.403,0,2.609,0.999,2.913,2.341C75.03,24.119,75.449,24,75.875,24 c1.202,0,2.198,0.897,2.353,2.068C78.431,26.022,78.624,26,78.813,26c1.529,0,2.811,1.2,2.918,2.732 C81.74,28.87,81.636,28.99,81.499,29c-0.006,0-0.012,0-0.018,0c-0.13,0-0.24-0.101-0.249-0.232 c-0.089-1.271-1.151-2.268-2.419-2.268c-0.229,0-0.47,0.042-0.738,0.127c-0.022,0.007-0.045,0.01-0.067,0.01 c-0.055,0-0.11-0.02-0.156-0.054c-0.064-0.047-0.102-0.129-0.102-0.209c0-1.034-0.841-1.875-1.875-1.875 c-0.447,0-0.885,0.168-1.231,0.473c-0.047,0.041-0.106,0.063-0.165,0.063c-0.032,0-0.063-0.006-0.093-0.019 c-0.088-0.035-0.148-0.117-0.155-0.212c-0.102-1.292-1.191-2.305-2.479-2.305c-0.208,0-0.425,0.034-0.682,0.107 c-0.023,0.007-0.047,0.01-0.07,0.01c-0.109,0-0.207-0.073-0.239-0.182c-0.038-0.133,0.039-0.271,0.172-0.309 C71.233,22.04,71.494,22,71.75,22L71.75,22z"/></g><g><path fill="#00a5a5" d="M66.171,72.818c-0.812,0-1.548-0.414-1.969-1.108c-3.373-5.559-5.474-12.033-6.075-18.723 l-0.058-0.637H45.362l-0.058,0.637c-0.602,6.69-2.702,13.164-6.075,18.723c-0.421,0.693-1.157,1.107-1.969,1.107 c-0.418,0-0.83-0.116-1.191-0.334c-1.083-0.658-1.43-2.075-0.771-3.159c2.928-4.827,4.797-10.43,5.404-16.201l0.081-0.773H36 c-1.269,0-2.3-1.032-2.3-2.3s1.031-2.3,2.3-2.3h4.911l-0.039-0.737c-0.341-6.351-2.242-12.192-5.499-16.894 c-0.722-1.042-0.462-2.478,0.58-3.2c0.388-0.268,0.84-0.41,1.308-0.41c0.757,0,1.464,0.37,1.894,0.99 c3.771,5.442,5.943,12.214,6.282,19.583l0.03,0.668h12.498l0.03-0.668c0.339-7.369,2.512-14.141,6.282-19.583 c0.43-0.62,1.137-0.99,1.894-0.99c0.468,0,0.92,0.142,1.308,0.41c1.042,0.722,1.302,2.158,0.58,3.2 C64.802,34.82,62.9,40.662,62.56,47.012l-0.039,0.737H67c1.269,0,2.3,1.032,2.3,2.3s-1.031,2.3-2.3,2.3h-4.352l0.081,0.773 c0.607,5.771,2.477,11.374,5.404,16.201c0.658,1.084,0.312,2.501-0.772,3.16C67.001,72.702,66.59,72.818,66.171,72.818z"/><path fill="#472b29" d="M66.17,27.209c0.325,0,0.64,0.099,0.909,0.285c0.725,0.503,0.906,1.501,0.404,2.227 c-3.331,4.807-5.275,10.773-5.622,17.254l-0.079,1.475h1.477H67c0.882,0,1.6,0.718,1.6,1.6s-0.718,1.6-1.6,1.6h-3.574H61.87 l0.163,1.546c0.619,5.875,2.521,11.577,5.502,16.491c0.458,0.754,0.216,1.74-0.537,2.197c-0.251,0.152-0.537,0.233-0.828,0.233 c-0.565,0-1.078-0.288-1.37-0.771c-3.317-5.468-5.384-11.838-5.976-18.423L58.71,51.65h-1.28H46.002h-1.28l-0.115,1.274 c-0.592,6.584-2.659,12.955-5.976,18.422c-0.293,0.483-0.805,0.771-1.371,0.771c-0.29,0-0.577-0.081-0.827-0.232 c-0.754-0.458-0.995-1.444-0.538-2.198c2.981-4.914,4.883-10.616,5.502-16.491l0.163-1.546h-1.555H36c-0.882,0-1.6-0.718-1.6-1.6 s0.718-1.6,1.6-1.6h4.173h1.477l-0.079-1.475c-0.348-6.481-2.292-12.447-5.622-17.254c-0.502-0.725-0.321-1.724,0.403-2.226 c0.27-0.187,0.584-0.286,0.909-0.285c0.526,0,1.019,0.257,1.318,0.689c3.696,5.333,5.825,11.979,6.158,19.216l0.061,1.335h1.337 h11.16h1.337l0.061-1.335c0.333-7.238,2.463-13.883,6.159-19.217C65.152,27.466,65.644,27.208,66.17,27.209L66.17,27.209 M66.17,25.809c-0.951,0-1.886,0.451-2.468,1.292c-3.952,5.703-6.072,12.695-6.406,19.949h-11.16 c-0.334-7.254-2.455-14.247-6.406-19.949c-0.582-0.84-1.517-1.292-2.468-1.292c-0.589,0-1.185,0.173-1.706,0.535 c-1.361,0.944-1.7,2.813-0.757,4.174c3.269,4.718,5.052,10.499,5.375,16.532H36c-1.657,0-3,1.343-3,3s1.343,3,3,3h4.006 c-0.58,5.512-2.336,11.014-5.307,15.911c-0.859,1.416-0.408,3.261,1.008,4.121c0.487,0.295,1.023,0.436,1.554,0.436 c1.014,0,2.003-0.515,2.567-1.444c3.538-5.832,5.58-12.422,6.174-19.023H57.43c0.594,6.602,2.635,13.192,6.174,19.023 c0.564,0.93,1.554,1.444,2.567,1.444c0.53,0,1.067-0.141,1.554-0.436c1.416-0.86,1.867-2.705,1.008-4.121 c-2.971-4.897-4.726-10.399-5.307-15.911H67c1.657,0,3-1.343,3-3s-1.343-3-3-3h-3.741c0.324-6.033,2.106-11.814,5.375-16.532 c0.943-1.362,0.604-3.23-0.757-4.174C67.355,25.982,66.76,25.809,66.17,25.809L66.17,25.809z"/><path fill="#472b29" d="M48.86,45c-0.257,0-0.476-0.198-0.497-0.458c-0.252-3.025-0.851-6.063-1.78-9.029 c-0.18-0.575-0.367-1.131-0.559-1.667c-0.093-0.26,0.043-0.546,0.303-0.639c0.261-0.093,0.545,0.043,0.639,0.303 c0.195,0.548,0.387,1.116,0.571,1.704c0.952,3.037,1.565,6.147,1.822,9.245c0.023,0.275-0.182,0.517-0.457,0.54 C48.889,45,48.875,45,48.86,45z"/><path fill="#472b29" d="M45.479,31.6c-0.193,0-0.378-0.113-0.459-0.302c-0.623-1.445-1.314-2.835-2.057-4.132 c-0.138-0.24-0.055-0.545,0.186-0.682c0.236-0.136,0.544-0.055,0.682,0.186c0.762,1.33,1.471,2.754,2.107,4.233 c0.109,0.253-0.008,0.548-0.261,0.657C45.612,31.586,45.545,31.6,45.479,31.6z"/><path fill="#472b29" d="M48.048,60.734c-0.034,0-0.067-0.003-0.102-0.01c-0.271-0.055-0.444-0.32-0.39-0.59 c0.245-1.195,0.431-2.434,0.552-3.682C48.134,56.196,48.349,56,48.606,56h5c0.276,0,0.5,0.224,0.5,0.5s-0.224,0.5-0.5,0.5h-4.549 c-0.124,1.13-0.299,2.25-0.521,3.335C48.488,60.572,48.28,60.734,48.048,60.734z"/><g><path fill="#472b29" d="M43.606,72c-0.087,0-0.174-0.022-0.254-0.069c-0.237-0.14-0.317-0.447-0.177-0.685 c1.073-1.823,2.627-4.68,3.719-8.434c0.078-0.265,0.352-0.419,0.62-0.34c0.266,0.077,0.418,0.354,0.341,0.62 c-1.124,3.862-2.718,6.793-3.818,8.662C43.944,71.912,43.777,72,43.606,72z"/></g></g><g><path fill="#fdfcef" d="M16.375,62.5c0,0-1.567,0-3.5,0s-3.5-1.567-3.5-3.5c0-1.781,1.335-3.234,3.055-3.455 c-0.028-0.179-0.055-0.358-0.055-0.545c0-1.933,1.567-3.5,3.5-3.5c1.032,0,1.95,0.455,2.59,1.165 c0.384-1.808,1.987-3.165,3.91-3.165c2.209,0,4,1.791,4,4c0,0.191-0.03,0.374-0.056,0.558c0.428-0.344,0.965-0.558,1.556-0.558 c1.228,0,2.245,0.887,2.455,2.055c0.179-0.028,0.358-0.055,0.545-0.055c1.933,0,3.5,1.567,3.5,3.5s-1.567,3.5-3.5,3.5 s-7.5,0-7.5,0V63h-7V62.5z"/><path fill="#472b29" d="M14.625,58c0.138,0,0.25-0.112,0.25-0.25c0-1.223-0.995-2.218-2.218-2.218 c-0.034,0.009-0.737-0.001-1.244,0.136c-0.133,0.036-0.212,0.173-0.176,0.306c0.036,0.134,0.173,0.213,0.306,0.176 c0.444-0.12,1.1-0.12,1.113-0.118c0.948,0,1.719,0.771,1.719,1.718C14.375,57.888,14.487,58,14.625,58z"/><circle cx="21.375" cy="62.5" r=".5" fill="#472b29"/><path fill="#472b29" d="M12.875,63h3.5c0.276,0,0.5-0.224,0.5-0.5s-0.224-0.5-0.5-0.5h-3.5c-1.654,0-3-1.346-3-3 c0-1.496,1.125-2.768,2.618-2.959c0.134-0.018,0.255-0.088,0.336-0.196s0.115-0.244,0.094-0.377 C12.9,55.314,12.875,55.16,12.875,55c0-1.654,1.346-3,3-3c0.85,0,1.638,0.355,2.219,1c0.125,0.139,0.321,0.198,0.5,0.148 c0.182-0.049,0.321-0.195,0.36-0.379C19.295,51.165,20.734,50,22.375,50c1.93,0,3.5,1.57,3.5,3.5c0,0.143-0.021,0.28-0.041,0.418 c-0.029,0.203,0.063,0.438,0.242,0.54c0.179,0.102,0.396,0.118,0.556-0.01C26.997,54.155,27.426,54,27.875,54 c0.966,0,1.792,0.691,1.963,1.644c0.048,0.267,0.296,0.446,0.569,0.405C30.561,56.025,30.715,56,30.875,56c1.654,0,3,1.346,3,3 s-1.346,3-3,3h-7.5c-0.276,0-0.5,0.224-0.5,0.5s0.224,0.5,0.5,0.5h7.5c2.206,0,4-1.794,4-4s-1.794-4-4-4 c-0.059,0-0.116,0.002-0.174,0.006C30.287,53.82,29.164,53,27.875,53c-0.349,0-0.689,0.061-1.011,0.18 C26.699,50.847,24.749,49,22.375,49c-1.831,0-3.466,1.127-4.153,2.774C17.542,51.276,16.72,51,15.875,51c-2.206,0-4,1.794-4,4 c0,0.048,0.001,0.095,0.004,0.142C10.136,55.59,8.875,57.169,8.875,59C8.875,61.206,10.669,63,12.875,63z"/><path fill="#472b29" d="M18.375,62c0.159,0,0.841,0,1,0c0.276,0,0.5,0.224,0.5,0.5c0,0.276-0.224,0.5-0.5,0.5 c-0.159,0-0.841,0-1,0c-0.276,0-0.5-0.224-0.5-0.5C17.875,62.224,18.099,62,18.375,62z"/></g></svg>