<svg xmlns="http://www.w3.org/2000/svg"  viewBox="0 0 100 100" width="100px" height="100px"><path fill="#c7ede6" d="M87.215,56.71C88.35,54.555,89,52.105,89,49.5c0-6.621-4.159-12.257-10.001-14.478 C78.999,35.015,79,35.008,79,35c0-11.598-9.402-21-21-21c-9.784,0-17.981,6.701-20.313,15.757C36.211,29.272,34.638,29,33,29 c-7.692,0-14.023,5.793-14.89,13.252C12.906,43.353,9,47.969,9,53.5C9,59.851,14.149,65,20.5,65c0.177,0,0.352-0.012,0.526-0.022 C21.022,65.153,21,65.324,21,65.5C21,76.822,30.178,86,41.5,86c6.437,0,12.175-2.972,15.934-7.614C59.612,80.611,62.64,82,66,82 c4.65,0,8.674-2.65,10.666-6.518C77.718,75.817,78.837,76,80,76c6.075,0,11-4.925,11-11C91,61.689,89.53,58.727,87.215,56.71z"/><path fill="#fff" d="M87.5,65h-10c-0.276,0-0.5-0.224-0.5-0.5s0.224-0.5,0.5-0.5h10c0.276,0,0.5,0.224,0.5,0.5 S87.777,65,87.5,65z"/><path fill="#fff" d="M90.5,65h-1c-0.276,0-0.5-0.224-0.5-0.5s0.224-0.5,0.5-0.5h1c0.276,0,0.5,0.224,0.5,0.5 S90.777,65,90.5,65z"/><path fill="#fff" d="M95.491,67H86.5c-0.276,0-0.5-0.224-0.5-0.5s0.224-0.5,0.5-0.5h8.991c0.276,0,0.5,0.224,0.5,0.5 S95.767,67,95.491,67z"/><path fill="#fff" d="M84.5,67h-1c-0.276,0-0.5-0.224-0.5-0.5s0.224-0.5,0.5-0.5h1c0.276,0,0.5,0.224,0.5,0.5 S84.777,67,84.5,67z"/><path fill="#fff" d="M81.5,67h-2c-0.276,0-0.5-0.224-0.5-0.5s0.224-0.5,0.5-0.5h2c0.276,0,0.5,0.224,0.5,0.5 S81.777,67,81.5,67z"/><path fill="#fff" d="M87.5,69h-2c-0.276,0-0.5-0.224-0.5-0.5s0.224-0.5,0.5-0.5h2c0.276,0,0.5,0.224,0.5,0.5 S87.776,69,87.5,69z"/><path fill="#fff" d="M90.5,60c-0.177,0-0.823,0-1,0c-0.276,0-0.5,0.224-0.5,0.5c0,0.276,0.224,0.5,0.5,0.5 c0.177,0,0.823,0,1,0c0.276,0,0.5-0.224,0.5-0.5C91,60.224,90.776,60,90.5,60z"/><path fill="#fff" d="M90.5,62c-0.177,0-4.823,0-5,0c-0.276,0-0.5,0.224-0.5,0.5c0,0.276,0.224,0.5,0.5,0.5 c0.177,0,4.823,0,5,0c0.276,0,0.5-0.224,0.5-0.5C91,62.224,90.776,62,90.5,62z"/><path fill="#fff" d="M95.5,64c-0.177,0-2.823,0-3,0c-0.276,0-0.5,0.224-0.5,0.5c0,0.276,0.224,0.5,0.5,0.5 c0.177,0,2.823,0,3,0c0.276,0,0.5-0.224,0.5-0.5C96,64.224,95.776,64,95.5,64z"/><g><path fill="#fff" d="M16.5,52h-10C6.224,52,6,51.776,6,51.5S6.224,51,6.5,51h10c0.276,0,0.5,0.224,0.5,0.5 S16.776,52,16.5,52z"/><path fill="#fff" d="M20.5,52h-2c-0.276,0-0.5-0.224-0.5-0.5s0.224-0.5,0.5-0.5h2c0.276,0,0.5,0.224,0.5,0.5 S20.776,52,20.5,52z"/><path fill="#fff" d="M25.5,54h-10c-0.276,0-0.5-0.224-0.5-0.5s0.224-0.5,0.5-0.5h10c0.276,0,0.5,0.224,0.5,0.5 S25.777,54,25.5,54z"/><path fill="#fff" d="M13.5,54h-1c-0.276,0-0.5-0.224-0.5-0.5s0.224-0.5,0.5-0.5h1c0.276,0,0.5,0.224,0.5,0.5 S13.776,54,13.5,54z"/><path fill="#fff" d="M10.47,54H8.5C8.224,54,8,53.776,8,53.5S8.224,53,8.5,53h1.97c0.276,0,0.5,0.224,0.5,0.5 S10.746,54,10.47,54z"/><path fill="#fff" d="M19.5,50h-5c-0.276,0-0.5-0.224-0.5-0.5s0.224-0.5,0.5-0.5h5c0.276,0,0.5,0.224,0.5,0.5 S19.777,50,19.5,50z"/><path fill="#fff" d="M16.5,56h-2c-0.276,0-0.5-0.224-0.5-0.5s0.224-0.5,0.5-0.5h2c0.276,0,0.5,0.224,0.5,0.5 S16.776,56,16.5,56z"/></g><g><path fill="#fdfcef" d="M65.25,31.5V32h-3v-0.5c0,0-4.242,0-5.5,0c-2.485,0-4.5-2.015-4.5-4.5 c0-2.333,1.782-4.229,4.055-4.455C56.283,22.364,56.25,22.187,56.25,22c0-2.485,2.015-4.5,4.5-4.5 c1.438,0,2.703,0.686,3.527,1.736c0.14-2.636,2.302-4.736,4.973-4.736c2.761,0,5,2.239,5,5c0,0.446-0.077,0.87-0.187,1.282 c0.642-0.777,1.6-1.282,2.687-1.282c1.781,0,3.234,1.335,3.455,3.055c0.181-0.022,0.358-0.055,0.545-0.055 c2.485,0,4.5,2.015,4.5,4.5s-2.015,4.5-4.5,4.5s-9.5,0-9.5,0H65.25z"/><path fill="#472b29" d="M69.25,14c3.033,0,5.5,2.467,5.5,5.5c0,0.016,0,0.031,0,0.047c0.602-0.354,1.29-0.547,2-0.547 c1.831,0,3.411,1.261,3.858,3.005C80.655,22.002,80.702,22,80.75,22c2.757,0,5,2.243,5,5s-2.243,5-5,5h-15.5 c-0.276,0-0.5-0.224-0.5-0.5s0.224-0.5,0.5-0.5h15.5c2.206,0,4-1.794,4-4s-1.794-4-4-4c-0.117,0-0.23,0.017-0.343,0.032 l-0.141,0.019c-0.021,0.003-0.041,0.004-0.062,0.004c-0.246,0-0.462-0.185-0.495-0.437C79.518,21.125,78.246,20,76.75,20 c-0.885,0-1.723,0.401-2.301,1.1c-0.098,0.118-0.241,0.182-0.386,0.182c-0.078,0-0.156-0.018-0.228-0.056 c-0.209-0.107-0.314-0.346-0.254-0.573c0.116-0.436,0.17-0.802,0.17-1.153c0-2.481-2.019-4.5-4.5-4.5 c-2.381,0-4.347,1.872-4.474,4.263c-0.011,0.208-0.15,0.387-0.349,0.45c-0.05,0.016-0.101,0.024-0.152,0.024 c-0.15,0-0.296-0.069-0.392-0.192C63.112,18.563,61.971,18,60.75,18c-2.206,0-4,1.794-4,4c0,0.117,0.017,0.23,0.032,0.343 l0.019,0.141c0.016,0.134-0.022,0.268-0.106,0.373c-0.084,0.105-0.207,0.172-0.34,0.185C54.299,23.247,52.75,24.949,52.75,27 c0,2.206,1.794,4,4,4h5.5c0.276,0,0.5,0.224,0.5,0.5s-0.224,0.5-0.5,0.5h-5.5c-2.757,0-5-2.243-5-5 c0-2.397,1.689-4.413,4.003-4.877C55.751,22.082,55.75,22.041,55.75,22c0-2.757,2.243-5,5-5c1.176,0,2.293,0.416,3.183,1.164 C64.531,15.76,66.695,14,69.25,14L69.25,14z"/><path fill="#472b29" d="M70.75,21c1.403,0,2.609,0.999,2.913,2.341C74.03,23.119,74.449,23,74.875,23 c1.202,0,2.198,0.897,2.353,2.068C77.431,25.022,77.624,25,77.813,25c1.529,0,2.811,1.2,2.918,2.732 C80.74,27.87,80.636,27.99,80.499,28c-0.006,0-0.012,0-0.018,0c-0.13,0-0.24-0.101-0.249-0.232 c-0.089-1.271-1.151-2.268-2.419-2.268c-0.229,0-0.47,0.042-0.738,0.127c-0.022,0.007-0.045,0.01-0.067,0.01 c-0.055,0-0.11-0.02-0.156-0.054c-0.064-0.047-0.102-0.129-0.102-0.209c0-1.034-0.841-1.875-1.875-1.875 c-0.447,0-0.885,0.168-1.231,0.473c-0.047,0.041-0.106,0.063-0.165,0.063c-0.032,0-0.063-0.006-0.093-0.019 c-0.088-0.035-0.148-0.117-0.155-0.212c-0.102-1.292-1.191-2.305-2.479-2.305c-0.208,0-0.425,0.034-0.682,0.107 c-0.023,0.007-0.047,0.01-0.07,0.01c-0.109,0-0.207-0.073-0.239-0.182c-0.038-0.133,0.039-0.271,0.172-0.309 C70.233,21.04,70.494,21,70.75,21L70.75,21z"/><path fill="#472b29" d="M56.867,22.5c1.326,0,2.508,0.897,2.874,2.182c0.038,0.133-0.039,0.271-0.172,0.309 C59.545,24.997,59.522,25,59.5,25c-0.109,0-0.209-0.072-0.24-0.182C58.955,23.748,57.971,23,56.867,23 c-0.117,0-0.23,0.014-0.342,0.029c-0.012,0.002-0.023,0.003-0.035,0.003c-0.121,0-0.229-0.092-0.246-0.217 c-0.019-0.137,0.077-0.263,0.214-0.281C56.592,22.516,56.728,22.5,56.867,22.5L56.867,22.5z"/></g><g><path fill="#fdfcef" d="M30.375,81.5c0,0,1.567,0,3.5,0s3.5-1.567,3.5-3.5c0-1.781-1.335-3.234-3.055-3.455 c0.028-0.179,0.055-0.358,0.055-0.545c0-1.933-1.567-3.5-3.5-3.5c-1.032,0-1.95,0.455-2.59,1.165 c-0.384-1.808-1.987-3.165-3.91-3.165c-2.209,0-4,1.791-4,4c0,0.191,0.03,0.374,0.056,0.558c-0.428-0.344-0.965-0.558-1.556-0.558 c-1.228,0-2.245,0.887-2.455,2.055c-0.179-0.028-0.358-0.055-0.545-0.055c-1.933,0-3.5,1.567-3.5,3.5s1.567,3.5,3.5,3.5 s7.5,0,7.5,0V82h7V81.5z"/><path fill="#472b29" d="M32.125,77c-0.138,0-0.25-0.112-0.25-0.25c0-1.223,0.995-2.218,2.218-2.218 c0.034,0.009,0.737-0.001,1.244,0.136c0.133,0.036,0.212,0.173,0.176,0.306c-0.036,0.134-0.173,0.213-0.306,0.176 c-0.444-0.12-1.1-0.12-1.113-0.118c-0.948,0-1.719,0.771-1.719,1.718C32.375,76.888,32.263,77,32.125,77z"/><circle cx="25.375" cy="81.5" r=".5" fill="#472b29"/><path fill="#472b29" d="M33.875,82h-3.5c-0.276,0-0.5-0.224-0.5-0.5s0.224-0.5,0.5-0.5h3.5c1.654,0,3-1.346,3-3 c0-1.496-1.125-2.768-2.618-2.959c-0.134-0.018-0.255-0.088-0.336-0.196s-0.115-0.244-0.094-0.377 c0.024-0.153,0.049-0.308,0.049-0.468c0-1.654-1.346-3-3-3c-0.85,0-1.638,0.355-2.219,1c-0.125,0.139-0.321,0.198-0.5,0.148 c-0.182-0.049-0.321-0.195-0.36-0.379C27.455,70.165,26.016,69,24.375,69c-1.93,0-3.5,1.57-3.5,3.5 c0,0.143,0.021,0.28,0.041,0.418c0.029,0.203-0.063,0.438-0.242,0.54c-0.179,0.102-0.396,0.118-0.556-0.01 C19.753,73.155,19.324,73,18.875,73c-0.966,0-1.792,0.691-1.963,1.644c-0.048,0.267-0.296,0.446-0.569,0.405 C16.189,75.025,16.035,75,15.875,75c-1.654,0-3,1.346-3,3s1.346,3,3,3h7.5c0.276,0,0.5,0.224,0.5,0.5s-0.224,0.5-0.5,0.5h-7.5 c-2.206,0-4-1.794-4-4s1.794-4,4-4c0.059,0,0.116,0.002,0.174,0.006C16.463,72.82,17.586,72,18.875,72 c0.349,0,0.689,0.061,1.011,0.18c0.165-2.333,2.115-4.18,4.489-4.18c1.831,0,3.466,1.127,4.153,2.774 C29.208,70.276,30.03,70,30.875,70c2.206,0,4,1.794,4,4c0,0.048-0.001,0.095-0.004,0.142c1.743,0.448,3.004,2.027,3.004,3.858 C37.875,80.206,36.081,82,33.875,82z"/><path fill="#472b29" d="M28.375,81c-0.159,0-0.841,0-1,0c-0.276,0-0.5,0.224-0.5,0.5c0,0.276,0.224,0.5,0.5,0.5 c0.159,0,0.841,0,1,0c0.276,0,0.5-0.224,0.5-0.5C28.875,81.224,28.651,81,28.375,81z"/></g><g><path fill="#00a5a5" d="M69.521,75.462c-0.126,0-0.254-0.011-0.382-0.032c-3.639-0.605-6.312-3.012-7.152-6.439 l-0.237-0.969l-0.831,0.554c-0.417,0.278-0.843,0.553-1.284,0.824c-0.363,0.224-0.779,0.342-1.202,0.342 c-0.807,0-1.539-0.41-1.961-1.095c-0.322-0.523-0.422-1.141-0.279-1.738c0.143-0.598,0.509-1.104,1.032-1.426 c1.51-0.93,2.896-1.944,4.233-3.101l0.242-0.209V43.76l-0.015-0.07c-0.033-0.161-0.05-0.321-0.05-0.475 c0-0.285,0.024-0.564,0.059-0.84l0.006-5.521c0-2.316-1.885-4.2-4.2-4.2s-4.2,1.884-4.2,4.2V67c0,1.268-1.031,2.3-2.3,2.3 s-2.3-1.032-2.3-2.3V36.854c0-2.365-1.885-4.249-4.2-4.249s-4.2,1.884-4.2,4.2V67c0,1.268-1.031,2.3-2.3,2.3s-2.3-1.032-2.3-2.3 V37.779c0-2.461-2.063-4.552-4.004-5.27c-1.189-0.44-1.8-1.766-1.359-2.955c0.333-0.899,1.201-1.502,2.16-1.502 c0.271,0,0.538,0.048,0.794,0.143c1.44,0.533,2.79,1.397,3.904,2.501l0.502,0.498l0.493-0.508 c1.676-1.729,3.917-2.681,6.31-2.681c2.251,0,4.398,0.861,6.046,2.423l0.478,0.454l0.481-0.45 c1.642-1.533,3.771-2.377,5.995-2.377c4.559,0,8.324,3.421,8.757,7.958l0.073,0.765l0.755-0.144 c0.428-0.082,0.85-0.123,1.256-0.123c3.696,0,6.704,3.008,6.704,6.705c0,4.516-1.109,13.221-8.544,20.771L66.3,64.19v2.377 c0,2.438,1.243,3.934,3.596,4.325c0.606,0.101,1.137,0.432,1.493,0.931c0.357,0.5,0.498,1.109,0.397,1.715 C71.601,74.654,70.648,75.462,69.521,75.462z M68.341,41.11c-0.92,0-1.747,0.62-2.012,1.507L66.3,42.715v14.516l1.32-2.523 c2.335-4.462,2.825-8.713,2.825-11.493C70.445,42.054,69.501,41.11,68.341,41.11z"/><path fill="#472b29" d="M44.5,28.704c2.071,0,4.047,0.792,5.564,2.231l0.956,0.907l0.963-0.9 c1.511-1.412,3.471-2.189,5.517-2.189c4.197,0,7.662,3.149,8.06,7.324l0.146,1.531l1.51-0.289c0.383-0.073,0.762-0.11,1.124-0.11 c3.311,0,6.004,2.694,6.004,6.005c0,4.41-1.084,12.908-8.343,20.28L65.6,63.903v0.574v2.09c0,2.746,1.524,4.574,4.181,5.016 c0.421,0.07,0.79,0.3,1.038,0.648s0.347,0.771,0.276,1.193c-0.129,0.775-0.791,1.338-1.574,1.338 c-0.088,0-0.177-0.008-0.267-0.022c-3.403-0.566-5.804-2.723-6.587-5.915l-0.476-1.94l-1.661,1.11 c-0.409,0.273-0.829,0.543-1.262,0.81c-0.253,0.156-0.542,0.238-0.835,0.238c-0.561,0-1.072-0.285-1.365-0.763 c-0.224-0.364-0.293-0.793-0.194-1.209c0.099-0.416,0.354-0.768,0.718-0.992c1.542-0.949,2.957-1.985,4.324-3.167l0.484-0.418 v-0.641V43.831v-0.145l-0.029-0.141c-0.023-0.111-0.035-0.223-0.035-0.331c0-0.223,0.017-0.462,0.053-0.752l0.011-0.087v-0.088 v-5.435c0-2.702-2.198-4.9-4.9-4.9s-4.9,2.198-4.9,4.9V67c0,0.882-0.718,1.6-1.6,1.6s-1.6-0.718-1.6-1.6V36.804 c0-2.702-2.198-4.9-4.9-4.9s-4.9,2.198-4.9,4.9v0.975V67c0,0.882-0.718,1.6-1.6,1.6s-1.6-0.718-1.6-1.6V37.779 c0-2.808-2.244-5.106-4.461-5.927c-0.828-0.306-1.252-1.229-0.946-2.055c0.232-0.625,0.836-1.046,1.504-1.046 c0.188,0,0.373,0.034,0.552,0.1c1.345,0.498,2.609,1.308,3.653,2.342l1.005,0.995l0.985-1.016 C40.236,29.581,42.299,28.704,44.5,28.704 M65.6,60.08l2.641-5.047c2.401-4.589,2.905-8.959,2.905-11.817 c0-1.547-1.258-2.805-2.804-2.805c-1.227,0-2.33,0.825-2.682,2.007L65.6,42.612v0.205v11.566V60.08 M44.5,27.304 c-2.671,0-5.085,1.112-6.812,2.894c-1.159-1.147-2.567-2.073-4.152-2.66c-0.342-0.127-0.692-0.187-1.038-0.187 c-1.218,0-2.368,0.748-2.817,1.959c-0.575,1.554,0.219,3.279,1.772,3.854c1.72,0.636,3.547,2.47,3.547,4.614V67 c0,1.657,1.343,3,3,3s3-1.343,3-3V37.779v-0.975c0-1.93,1.57-3.5,3.5-3.5s3.5,1.57,3.5,3.5v0.049V67c0,1.657,1.343,3,3,3 s3-1.343,3-3V36.854c0-1.93,1.57-3.5,3.5-3.5s3.5,1.57,3.5,3.5v5.435c-0.038,0.304-0.064,0.612-0.064,0.927 c0,0.211,0.023,0.417,0.064,0.616v18.021c-1.215,1.05-2.577,2.071-4.143,3.034c-1.411,0.868-1.851,2.716-0.982,4.127 c0.566,0.921,1.55,1.429,2.558,1.429c0.536,0,1.079-0.144,1.569-0.446c0.448-0.276,0.882-0.556,1.305-0.838 c0.899,3.667,3.73,6.299,7.717,6.962c0.167,0.028,0.333,0.042,0.497,0.042c1.439,0,2.711-1.041,2.955-2.508 c0.272-1.635-0.832-3.18-2.466-3.452C68.013,69.87,67,68.646,67,66.567v-2.09c7.442-7.558,8.745-16.18,8.745-21.262 c0-4.083-3.321-7.405-7.404-7.405c-0.474,0-0.937,0.049-1.387,0.135c-0.459-4.813-4.522-8.591-9.454-8.591 c-2.502,0-4.774,0.979-6.473,2.566C49.323,28.303,47.028,27.304,44.5,27.304L44.5,27.304z M67,54.383V42.817 c0.173-0.58,0.706-1.007,1.341-1.007c0.774,0,1.404,0.631,1.404,1.405C69.745,45.997,69.238,50.106,67,54.383L67,54.383z"/><path fill="#472b29" d="M32.5,43.83c-0.276,0-0.5-0.224-0.5-0.5v-4.255c-0.001-0.088-0.056-2.233-2.658-3.1 c-0.262-0.087-0.403-0.371-0.316-0.633c0.089-0.262,0.373-0.403,0.633-0.316C32.962,36.127,33,38.955,33,39.074v4.255 C33,43.606,32.776,43.83,32.5,43.83z"/><path fill="#472b29" d="M32.5,54.117c-0.276,0-0.5-0.224-0.5-0.5v-7.319c0-0.276,0.224-0.5,0.5-0.5s0.5,0.224,0.5,0.5 v7.319C33,53.893,32.776,54.117,32.5,54.117z"/><path fill="#472b29" d="M32.5,66c-0.276,0-0.5-0.224-0.5-0.5v-8.532c0-0.276,0.224-0.5,0.5-0.5s0.5,0.224,0.5,0.5V65.5 C33,65.776,32.776,66,32.5,66z"/><path fill="#472b29" d="M77.372,52.866c-0.046,0-0.093-0.007-0.14-0.02c-0.266-0.077-0.418-0.355-0.341-0.62 C77.627,49.704,78,47.104,78,44.5c0-0.276,0.224-0.5,0.5-0.5s0.5,0.224,0.5,0.5c0,2.699-0.386,5.393-1.147,8.006 C77.788,52.724,77.589,52.866,77.372,52.866z"/><path fill="#472b29" d="M73.828,60.648c-0.092,0-0.185-0.025-0.268-0.078c-0.233-0.148-0.303-0.457-0.154-0.69 c0.885-1.394,1.657-2.856,2.297-4.347c0.109-0.255,0.403-0.37,0.657-0.262c0.254,0.109,0.371,0.403,0.263,0.656 c-0.661,1.54-1.459,3.051-2.373,4.49C74.155,60.566,73.993,60.648,73.828,60.648z"/><g><path fill="#472b29" d="M69.5,66c-0.138,0-0.274-0.057-0.373-0.168c-0.184-0.206-0.165-0.522,0.041-0.706 c0.011-0.01,1.145-1.026,2.577-2.879c0.17-0.219,0.484-0.258,0.701-0.09c0.219,0.169,0.259,0.483,0.09,0.701 c-1.495,1.933-2.655,2.971-2.704,3.015C69.737,65.958,69.618,66,69.5,66z"/></g></g></svg>