<svg xmlns="http://www.w3.org/2000/svg"  viewBox="0 0 100 100" width="100px" height="100px"><path fill="#c7ede6" d="M87.215,56.71C88.35,54.555,89,52.105,89,49.5c0-6.621-4.159-12.257-10.001-14.478 C78.999,35.015,79,35.008,79,35c0-11.598-9.402-21-21-21c-9.784,0-17.981,6.701-20.313,15.757C36.211,29.272,34.638,29,33,29 c-7.692,0-14.023,5.793-14.89,13.252C12.906,43.353,9,47.969,9,53.5C9,59.851,14.149,65,20.5,65c0.177,0,0.352-0.012,0.526-0.022 C21.022,65.153,21,65.324,21,65.5C21,76.822,30.178,86,41.5,86c6.437,0,12.175-2.972,15.934-7.614C59.612,80.611,62.64,82,66,82 c4.65,0,8.674-2.65,10.666-6.518C77.718,75.817,78.837,76,80,76c6.075,0,11-4.925,11-11C91,61.689,89.53,58.727,87.215,56.71z"/><path fill="#fff" d="M18.5,46h-10C8.224,46,8,45.776,8,45.5S8.224,45,8.5,45h10c0.276,0,0.5,0.224,0.5,0.5 S18.777,46,18.5,46z"/><path fill="#fff" d="M21.5,46h-1c-0.276,0-0.5-0.224-0.5-0.5s0.224-0.5,0.5-0.5h1c0.276,0,0.5,0.224,0.5,0.5 S21.777,46,21.5,46z"/><path fill="#fff" d="M26.491,48H17.5c-0.276,0-0.5-0.224-0.5-0.5s0.224-0.5,0.5-0.5h8.991c0.276,0,0.5,0.224,0.5,0.5 S26.767,48,26.491,48z"/><path fill="#fff" d="M15.5,48h-1c-0.276,0-0.5-0.224-0.5-0.5s0.224-0.5,0.5-0.5h1c0.276,0,0.5,0.224,0.5,0.5 S15.777,48,15.5,48z"/><path fill="#fff" d="M12.5,48h-2c-0.276,0-0.5-0.224-0.5-0.5s0.224-0.5,0.5-0.5h2c0.276,0,0.5,0.224,0.5,0.5 S12.777,48,12.5,48z"/><path fill="#fff" d="M18.5,50h-2c-0.276,0-0.5-0.224-0.5-0.5s0.224-0.5,0.5-0.5h2c0.276,0,0.5,0.224,0.5,0.5 S18.776,50,18.5,50z"/><path fill="#fff" d="M21.5,41c-0.177,0-0.823,0-1,0c-0.276,0-0.5,0.224-0.5,0.5c0,0.276,0.224,0.5,0.5,0.5 c0.177,0,0.823,0,1,0c0.276,0,0.5-0.224,0.5-0.5C22,41.224,21.776,41,21.5,41z"/><path fill="#fff" d="M21.5,43c-0.177,0-4.823,0-5,0c-0.276,0-0.5,0.224-0.5,0.5c0,0.276,0.224,0.5,0.5,0.5 c0.177,0,4.823,0,5,0c0.276,0,0.5-0.224,0.5-0.5C22,43.224,21.776,43,21.5,43z"/><path fill="#fff" d="M26.5,45c-0.177,0-2.823,0-3,0c-0.276,0-0.5,0.224-0.5,0.5c0,0.276,0.224,0.5,0.5,0.5 c0.177,0,2.823,0,3,0c0.276,0,0.5-0.224,0.5-0.5C27,45.224,26.776,45,26.5,45z"/><g><path fill="#fff" d="M86.5,66h-10c-0.276,0-0.5-0.224-0.5-0.5s0.224-0.5,0.5-0.5h10c0.276,0,0.5,0.224,0.5,0.5 S86.776,66,86.5,66z"/><path fill="#fff" d="M90.5,66h-2c-0.276,0-0.5-0.224-0.5-0.5s0.224-0.5,0.5-0.5h2c0.276,0,0.5,0.224,0.5,0.5 S90.776,66,90.5,66z"/><path fill="#fff" d="M95.5,68h-10c-0.276,0-0.5-0.224-0.5-0.5s0.224-0.5,0.5-0.5h10c0.276,0,0.5,0.224,0.5,0.5 S95.777,68,95.5,68z"/><path fill="#fff" d="M83.5,68h-1c-0.276,0-0.5-0.224-0.5-0.5s0.224-0.5,0.5-0.5h1c0.276,0,0.5,0.224,0.5,0.5 S83.776,68,83.5,68z"/><path fill="#fff" d="M80.47,68H78.5c-0.276,0-0.5-0.224-0.5-0.5s0.224-0.5,0.5-0.5h1.97c0.276,0,0.5,0.224,0.5,0.5 S80.746,68,80.47,68z"/><path fill="#fff" d="M89.5,64h-5c-0.276,0-0.5-0.224-0.5-0.5s0.224-0.5,0.5-0.5h5c0.276,0,0.5,0.224,0.5,0.5 S89.777,64,89.5,64z"/><path fill="#fff" d="M86.5,70h-2c-0.276,0-0.5-0.224-0.5-0.5s0.224-0.5,0.5-0.5h2c0.276,0,0.5,0.224,0.5,0.5 S86.776,70,86.5,70z"/></g><g><path fill="#fdfcef" d="M67.375,33.625v0.5h-3v-0.5c0,0-4.242,0-5.5,0c-2.485,0-4.5-2.015-4.5-4.5 c0-2.333,1.782-4.229,4.055-4.455c-0.022-0.181-0.055-0.358-0.055-0.545c0-2.485,2.015-4.5,4.5-4.5 c1.438,0,2.703,0.686,3.527,1.736c0.14-2.636,2.302-4.736,4.973-4.736c2.761,0,5,2.239,5,5c0,0.446-0.077,0.87-0.187,1.282 c0.642-0.777,1.6-1.282,2.687-1.282c1.781,0,3.234,1.335,3.455,3.055c0.181-0.022,0.358-0.055,0.545-0.055 c2.485,0,4.5,2.015,4.5,4.5s-2.015,4.5-4.5,4.5s-9.5,0-9.5,0H67.375z"/><path fill="#472b29" d="M71.375,16.125c3.033,0,5.5,2.467,5.5,5.5c0,0.016,0,0.031,0,0.047c0.602-0.354,1.29-0.547,2-0.547 c1.831,0,3.411,1.261,3.858,3.005c0.047-0.003,0.094-0.005,0.142-0.005c2.757,0,5,2.243,5,5s-2.243,5-5,5h-15.5 c-0.276,0-0.5-0.224-0.5-0.5s0.224-0.5,0.5-0.5h15.5c2.206,0,4-1.794,4-4s-1.794-4-4-4c-0.117,0-0.23,0.017-0.343,0.032 l-0.141,0.019c-0.021,0.003-0.041,0.004-0.062,0.004c-0.246,0-0.462-0.185-0.495-0.437c-0.191-1.493-1.463-2.618-2.959-2.618 c-0.885,0-1.723,0.401-2.301,1.1c-0.098,0.118-0.241,0.182-0.386,0.182c-0.078,0-0.156-0.018-0.228-0.056 c-0.209-0.107-0.314-0.346-0.254-0.573c0.116-0.436,0.17-0.802,0.17-1.153c0-2.481-2.019-4.5-4.5-4.5 c-2.381,0-4.347,1.872-4.474,4.263c-0.011,0.208-0.15,0.387-0.349,0.45c-0.05,0.016-0.101,0.024-0.152,0.024 c-0.15,0-0.296-0.069-0.392-0.192c-0.771-0.981-1.913-1.544-3.133-1.544c-2.206,0-4,1.794-4,4c0,0.117,0.017,0.23,0.032,0.343 l0.019,0.141c0.016,0.134-0.022,0.268-0.106,0.373c-0.084,0.105-0.207,0.172-0.34,0.185c-2.055,0.205-3.604,1.906-3.604,3.958 c0,2.206,1.794,4,4,4h5.5c0.276,0,0.5,0.224,0.5,0.5s-0.224,0.5-0.5,0.5h-5.5c-2.757,0-5-2.243-5-5 c0-2.397,1.689-4.413,4.003-4.877c-0.002-0.041-0.003-0.082-0.003-0.123c0-2.757,2.243-5,5-5c1.176,0,2.293,0.416,3.183,1.164 C66.656,17.885,68.82,16.125,71.375,16.125L71.375,16.125z"/><path fill="#472b29" d="M72.875,23.125c1.403,0,2.609,0.999,2.913,2.341c0.367-0.222,0.786-0.341,1.212-0.341 c1.202,0,2.198,0.897,2.353,2.068c0.203-0.045,0.396-0.068,0.585-0.068c1.529,0,2.811,1.2,2.918,2.732 c0.009,0.138-0.094,0.257-0.232,0.267c-0.006,0-0.012,0-0.018,0c-0.13,0-0.24-0.101-0.249-0.232 c-0.089-1.271-1.151-2.268-2.419-2.268c-0.229,0-0.47,0.042-0.738,0.127c-0.022,0.007-0.045,0.01-0.067,0.01 c-0.055,0-0.11-0.02-0.156-0.054c-0.064-0.047-0.102-0.129-0.102-0.209c0-1.034-0.841-1.875-1.875-1.875 c-0.447,0-0.885,0.168-1.231,0.473c-0.047,0.041-0.106,0.063-0.165,0.063c-0.032,0-0.063-0.006-0.093-0.019 c-0.088-0.035-0.148-0.117-0.155-0.212c-0.102-1.292-1.191-2.305-2.479-2.305c-0.208,0-0.425,0.034-0.682,0.107 c-0.023,0.007-0.047,0.01-0.07,0.01c-0.109,0-0.207-0.073-0.239-0.182c-0.038-0.133,0.039-0.271,0.172-0.309 C72.358,23.165,72.619,23.125,72.875,23.125L72.875,23.125z"/><path fill="#472b29" d="M58.992,24.625c1.326,0,2.508,0.897,2.874,2.182c0.038,0.133-0.039,0.271-0.172,0.309 c-0.023,0.007-0.046,0.01-0.068,0.01c-0.109,0-0.209-0.072-0.24-0.182c-0.305-1.071-1.289-1.818-2.393-1.818 c-0.117,0-0.23,0.014-0.342,0.029c-0.012,0.002-0.023,0.003-0.035,0.003c-0.121,0-0.229-0.092-0.246-0.217 c-0.019-0.137,0.077-0.263,0.214-0.281C58.717,24.641,58.853,24.625,58.992,24.625L58.992,24.625z"/></g><g><path fill="#00a5a5" d="M51.5,76.3c-9.815,0-17.8-7.985-17.8-17.8c0-6.14,3.127-11.772,8.365-15.065l0.811-0.51 l-0.732-0.618c-1.296-1.093-2.315-2.351-3.214-3.46C36.788,36.207,35.243,34.3,31,34.3c-1.268,0-2.3-1.032-2.3-2.3 s1.032-2.3,2.3-2.3c6.436,0,9.127,3.321,11.502,6.251C44.653,38.604,46.351,40.7,51,40.7c0.042,0.008,0.086,0.013,0.13,0.016 c0.114,0,0.177-0.004,0.241-0.009L51.5,40.7l0.375,0.018l0.127-0.016c4.647-0.002,6.345-2.097,8.495-4.75 C62.873,33.021,65.564,29.7,72,29.7c1.268,0,2.3,1.032,2.3,2.3s-1.032,2.3-2.3,2.3c-4.243,0-5.788,1.907-7.928,4.546 c-0.9,1.111-1.919,2.368-3.216,3.461l-0.732,0.618l0.811,0.51C66.173,46.728,69.3,52.36,69.3,58.5 C69.3,68.315,61.315,76.3,51.5,76.3z M51.5,45.3c-7.278,0-13.2,5.921-13.2,13.2s5.922,13.2,13.2,13.2s13.2-5.921,13.2-13.2 S58.778,45.3,51.5,45.3z"/><path fill="#472b29" d="M72,30.4c0.882,0,1.6,0.718,1.6,1.6s-0.718,1.6-1.6,1.6c-4.576,0-6.295,2.12-8.473,4.807 c-0.879,1.084-1.875,2.314-3.122,3.365l-1.465,1.235l1.623,1.02C65.595,47.191,68.6,52.602,68.6,58.5 c0,9.429-7.671,17.1-17.1,17.1s-17.1-7.671-17.1-17.1c0-5.898,3.005-11.309,8.037-14.473l1.623-1.02l-1.465-1.235 c-1.247-1.051-2.243-2.281-3.123-3.367C37.295,35.72,35.576,33.6,31,33.6c-0.882,0-1.6-0.718-1.6-1.6s0.718-1.6,1.6-1.6 c6.102,0,8.682,3.184,10.959,5.992c2.168,2.676,4.042,4.988,8.977,5.008c0.053,0.007,0.105,0.012,0.159,0.015l0.048,0.002 l0.049,0c0.077-0.001,0.153-0.006,0.229-0.012l0.078-0.005l0.08,0.005c0.076,0.005,0.152,0.01,0.229,0.012l0.049,0l0.048-0.002 c0.052-0.002,0.103-0.007,0.158-0.015c4.935-0.02,6.809-2.332,8.977-5.008C63.318,33.583,65.898,30.4,72,30.4 M51.5,72.4 c7.664,0,13.9-6.235,13.9-13.9s-6.236-13.9-13.9-13.9s-13.9,6.235-13.9,13.9S43.836,72.4,51.5,72.4 M72,29 c-6.77,0-9.695,3.61-12.046,6.511C57.841,38.117,56.315,40,52,40c-0.057,0-0.111,0.014-0.167,0.017 C51.721,40.015,51.612,40,51.5,40s-0.221,0.015-0.333,0.017C51.111,40.014,51.057,40,51,40c-4.315,0-5.841-1.883-7.954-4.489 C40.695,32.61,37.77,29,31,29c-1.657,0-3,1.343-3,3s1.343,3,3,3c3.91,0,5.292,1.706,7.385,4.288 c0.942,1.162,1.977,2.433,3.307,3.554C36.481,46.118,33,51.903,33,58.5C33,68.701,41.299,77,51.5,77S70,68.701,70,58.5 c0-6.597-3.481-12.382-8.692-15.658c1.33-1.122,2.365-2.392,3.307-3.554C66.708,36.706,68.09,35,72,35c1.657,0,3-1.343,3-3 S73.657,29,72,29L72,29z M51.5,71C44.607,71,39,65.393,39,58.5S44.607,46,51.5,46S64,51.607,64,58.5S58.393,71,51.5,71L51.5,71z"/><path fill="#472b29" d="M59.701,64.723c-0.099,0-0.199-0.029-0.286-0.09c-0.226-0.158-0.281-0.47-0.123-0.696 C60.409,62.338,61,60.458,61,58.5c0-2.442-0.925-4.763-2.604-6.534c-0.19-0.2-0.182-0.517,0.019-0.707 c0.201-0.19,0.517-0.182,0.707,0.019C60.978,53.236,62,55.801,62,58.5c0,2.164-0.653,4.242-1.889,6.01 C60.014,64.649,59.859,64.723,59.701,64.723z"/><path fill="#472b29" d="M56.855,50.553c-0.092,0-0.185-0.025-0.268-0.078C55.068,49.51,53.309,49,51.5,49 c-0.276,0-0.5-0.224-0.5-0.5s0.224-0.5,0.5-0.5c1.999,0,3.943,0.564,5.624,1.631c0.233,0.148,0.302,0.457,0.154,0.69 C57.182,50.471,57.021,50.553,56.855,50.553z"/><path fill="#472b29" d="M42.265,62.842c-0.196,0-0.381-0.116-0.461-0.308c-0.169-0.405-0.313-0.824-0.429-1.245 C41.126,60.386,41,59.448,41,58.5c0-1.551,0.331-3.045,0.982-4.44c0.117-0.25,0.415-0.358,0.665-0.241 c0.25,0.117,0.358,0.414,0.242,0.665C42.299,55.745,42,57.096,42,58.5c0,0.858,0.114,1.707,0.339,2.524 c0.104,0.381,0.235,0.759,0.387,1.125c0.106,0.255-0.014,0.548-0.269,0.654C42.394,62.83,42.329,62.842,42.265,62.842z"/><path fill="#472b29" d="M44.397,66.039c-0.129,0-0.257-0.049-0.355-0.148c-0.659-0.665-1.227-1.414-1.686-2.227 c-0.206-0.363-0.392-0.743-0.553-1.13c-0.106-0.255,0.014-0.548,0.269-0.654c0.254-0.105,0.548,0.014,0.654,0.27 c0.146,0.35,0.314,0.693,0.5,1.022c0.416,0.736,0.93,1.414,1.526,2.015c0.194,0.196,0.193,0.513-0.003,0.707 C44.651,65.99,44.524,66.039,44.397,66.039z"/><g><path fill="#472b29" d="M51.5,69c-1.75,0-3.483-0.439-5.011-1.271c-0.243-0.132-0.333-0.436-0.201-0.678 c0.132-0.242,0.436-0.332,0.678-0.2C48.349,67.603,49.917,68,51.5,68c0.276,0,0.5,0.224,0.5,0.5S51.776,69,51.5,69z"/></g></g><g><path fill="#fdfcef" d="M30.375,80.5c0,0-1.567,0-3.5,0s-3.5-1.567-3.5-3.5c0-1.781,1.335-3.234,3.055-3.455 c-0.028-0.179-0.055-0.358-0.055-0.545c0-1.933,1.567-3.5,3.5-3.5c1.032,0,1.95,0.455,2.59,1.165 c0.384-1.808,1.987-3.165,3.91-3.165c2.209,0,4,1.791,4,4c0,0.191-0.03,0.374-0.056,0.558c0.428-0.344,0.965-0.558,1.556-0.558 c1.228,0,2.245,0.887,2.455,2.055c0.179-0.028,0.358-0.055,0.545-0.055c1.933,0,3.5,1.567,3.5,3.5s-1.567,3.5-3.5,3.5 s-7.5,0-7.5,0V81h-7V80.5z"/><path fill="#472b29" d="M28.625,76c0.138,0,0.25-0.112,0.25-0.25c0-1.223-0.995-2.218-2.218-2.218 c-0.034,0.009-0.737-0.001-1.244,0.136c-0.133,0.036-0.212,0.173-0.176,0.306c0.036,0.134,0.173,0.213,0.306,0.176 c0.444-0.12,1.1-0.12,1.113-0.118c0.948,0,1.719,0.771,1.719,1.718C28.375,75.888,28.487,76,28.625,76z"/><circle cx="35.375" cy="80.5" r=".5" fill="#472b29"/><path fill="#472b29" d="M26.875,81h3.5c0.276,0,0.5-0.224,0.5-0.5s-0.224-0.5-0.5-0.5h-3.5c-1.654,0-3-1.346-3-3 c0-1.496,1.125-2.768,2.618-2.959c0.134-0.018,0.255-0.088,0.336-0.196s0.115-0.244,0.094-0.377 C26.9,73.314,26.875,73.16,26.875,73c0-1.654,1.346-3,3-3c0.85,0,1.638,0.355,2.219,1c0.125,0.139,0.321,0.198,0.5,0.148 c0.182-0.049,0.321-0.195,0.36-0.379C33.295,69.165,34.734,68,36.375,68c1.93,0,3.5,1.57,3.5,3.5c0,0.143-0.021,0.28-0.041,0.418 c-0.029,0.203,0.063,0.438,0.242,0.54c0.179,0.102,0.396,0.118,0.556-0.01C40.997,72.155,41.426,72,41.875,72 c0.966,0,1.792,0.691,1.963,1.644c0.048,0.267,0.296,0.446,0.569,0.405C44.561,74.025,44.715,74,44.875,74c1.654,0,3,1.346,3,3 s-1.346,3-3,3h-7.5c-0.276,0-0.5,0.224-0.5,0.5s0.224,0.5,0.5,0.5h7.5c2.206,0,4-1.794,4-4s-1.794-4-4-4 c-0.059,0-0.116,0.002-0.174,0.006C44.287,71.82,43.164,71,41.875,71c-0.349,0-0.689,0.061-1.011,0.18 C40.699,68.847,38.749,67,36.375,67c-1.831,0-3.466,1.127-4.153,2.774C31.542,69.276,30.72,69,29.875,69c-2.206,0-4,1.794-4,4 c0,0.048,0.001,0.095,0.004,0.142c-1.743,0.448-3.004,2.027-3.004,3.858C22.875,79.206,24.669,81,26.875,81z"/><path fill="#472b29" d="M32.375,80c0.159,0,0.841,0,1,0c0.276,0,0.5,0.224,0.5,0.5c0,0.276-0.224,0.5-0.5,0.5 c-0.159,0-0.841,0-1,0c-0.276,0-0.5-0.224-0.5-0.5C31.875,80.224,32.099,80,32.375,80z"/></g></svg>