<svg xmlns="http://www.w3.org/2000/svg"  viewBox="0 0 100 100" width="100px" height="100px"><path fill="#c8ede6" d="M87.234,55.551c0.3-0.616,0.566-1.264,0.796-1.943c2.633-7.77-1.349-17.078-9.733-19.325 C77.391,22.9,69.391,15.09,60.356,13.758c-10.341-1.525-19.814,5.044-22.966,15.485c-3.799-1.346-7.501-1.182-10.99,0.857 c-1.583,0.732-3.031,1.812-4.33,3.233c-1.907,2.086-3.147,4.719-3.652,7.495c-0.748,0.118-1.483,0.236-2.176,0.484 c-4.04,1.449-6.589,4.431-7.288,8.923c-0.435,2.797,0.443,5.587,0.933,6.714c1.935,4.455,6.422,6.98,10.981,6.312 c0.227-0.033,0.557,0.069,0.752,0.233c0.241,7.12,3.698,13.417,8.884,17.014c8.321,5.772,19.027,3.994,25.781-3.921 c2.894,2.96,6.338,4.398,10.384,3.876c4.023-0.519,7.147-2.739,9.426-6.349c1.053,0.283,2.051,0.691,3.083,0.804 c4.042,0.442,7.297-1.184,9.732-4.8c0.083-0.124,0.203-0.219,0.306-0.328c0.348-0.798,0.696-1.596,1.044-2.394 c0.155-1.211,0.429-2.423,0.443-3.632C90.742,60.508,89.411,57.54,87.234,55.551z"/><path fill="#fdfcef" d="M34.938,33.374c0,0,11.691,0,11.762,0c2.7,0,4.888-2.189,4.888-4.889 c0-2.355-1.666-4.321-3.884-4.784c0.026-0.206,0.043-0.415,0.043-0.628c0-2.796-2.267-5.063-5.063-5.063 c-1.651,0-3.113,0.794-4.037,2.017c-0.236-3.113-3.017-5.514-6.27-5.116c-2.379,0.291-4.346,2.13-4.784,4.486 c-0.14,0.756-0.126,1.489,0.014,2.177c-0.638-0.687-1.546-1.119-2.557-1.119c-1.85,0-3.361,1.441-3.48,3.261 c-0.84-0.186-1.754-0.174-2.717,0.188c-1.84,0.691-3.15,2.423-3.227,4.387c-0.109,2.789,2.12,5.085,4.885,5.085 c0.21,0,0.948,0,1.118,0H31.78"/><path fill="#472b29" d="M46.7,33.874H34.938c-0.276,0-0.5-0.224-0.5-0.5s0.224-0.5,0.5-0.5H46.7 c2.42,0,4.389-1.969,4.389-4.389c0-2.066-1.466-3.873-3.486-4.295c-0.255-0.053-0.426-0.293-0.394-0.552 c0.023-0.186,0.039-0.374,0.039-0.565c0-2.517-2.047-4.563-4.562-4.563c-1.438,0-2.765,0.663-3.638,1.818 c-0.125,0.166-0.338,0.237-0.54,0.178c-0.199-0.059-0.342-0.234-0.357-0.441c-0.104-1.377-0.779-2.671-1.85-3.549 c-1.083-0.888-2.456-1.282-3.86-1.109c-2.166,0.266-3.956,1.943-4.353,4.081c-0.124,0.667-0.12,1.335,0.013,1.986 c0.044,0.22-0.062,0.442-0.262,0.544c-0.2,0.104-0.443,0.06-0.595-0.104c-0.575-0.618-1.353-0.959-2.19-0.959 c-1.569,0-2.878,1.228-2.981,2.794c-0.01,0.146-0.082,0.279-0.199,0.366c-0.117,0.089-0.268,0.12-0.408,0.089 c-0.841-0.185-1.637-0.132-2.433,0.167c-1.669,0.627-2.835,2.209-2.903,3.938c-0.047,1.207,0.387,2.35,1.221,3.218 c0.835,0.869,1.959,1.348,3.164,1.348h11.269c0.276,0,0.5,0.224,0.5,0.5s-0.224,0.5-0.5,0.5H20.513 c-1.479,0-2.858-0.588-3.884-1.654c-1.025-1.066-1.558-2.469-1.5-3.95c0.083-2.126,1.51-4.069,3.55-4.835 c0.8-0.301,1.626-0.398,2.468-0.299c0.377-1.822,1.998-3.182,3.905-3.182c0.684,0,1.354,0.18,1.944,0.51 c0-0.386,0.035-0.772,0.106-1.159c0.477-2.562,2.621-4.573,5.215-4.891c1.679-0.205,3.32,0.266,4.616,1.328 c1.003,0.823,1.716,1.951,2.038,3.193c1.012-0.916,2.319-1.426,3.714-1.426c3.067,0,5.562,2.496,5.562,5.563 c0,0.083-0.002,0.166-0.007,0.248c2.254,0.673,3.848,2.776,3.848,5.164C52.089,31.458,49.672,33.874,46.7,33.874z"/><path fill="#fdfcef" d="M32.105,22.606c-1.808-0.119-3.365,1.13-3.476,2.789c-0.014,0.206-0.005,0.409,0.025,0.606 c-0.349-0.394-0.865-0.661-1.458-0.7c-1.085-0.071-2.022,0.645-2.158,1.62c-0.197-0.054-0.403-0.09-0.616-0.104 c-1.582-0.104-2.944,0.989-3.042,2.441"/><path fill="#472b29" d="M21.381,29.507c-0.006,0-0.012,0-0.017-0.001c-0.138-0.009-0.242-0.128-0.233-0.266 c0.107-1.587,1.588-2.789,3.308-2.674c0.137,0.009,0.273,0.026,0.409,0.053c0.274-0.968,1.256-1.645,2.366-1.567 c0.425,0.027,0.823,0.159,1.164,0.382c0-0.019,0.002-0.037,0.003-0.056c0.12-1.795,1.787-3.16,3.742-3.021 c0.138,0.009,0.242,0.128,0.233,0.266s-0.124,0.255-0.266,0.232c-1.651-0.105-3.108,1.037-3.21,2.557 c-0.012,0.184-0.004,0.37,0.023,0.553c0.017,0.109-0.041,0.217-0.141,0.264s-0.219,0.022-0.293-0.061 c-0.323-0.365-0.78-0.584-1.287-0.617c-0.951-0.034-1.775,0.556-1.894,1.404c-0.01,0.071-0.05,0.135-0.11,0.175 c-0.06,0.039-0.133,0.051-0.204,0.032c-0.187-0.051-0.377-0.083-0.567-0.097c-1.44-0.092-2.687,0.896-2.775,2.209 C21.621,29.406,21.511,29.507,21.381,29.507z"/><path fill="#00a5a5" d="M29.998,70.301c-1.023,0-1.934-0.689-2.212-1.677c-0.344-1.22,0.369-2.494,1.59-2.838 c2.824-0.796,5.764-1.45,8.738-1.942l0.586-0.097V35.784l-0.587-0.096c-2.874-0.473-5.798-1.094-8.692-1.847 c-0.594-0.155-1.093-0.531-1.404-1.061c-0.311-0.53-0.397-1.149-0.242-1.744c0.264-1.014,1.178-1.721,2.225-1.721 c0.194,0,0.39,0.025,0.579,0.074c7.368,1.916,14.725,2.887,21.864,2.887c7.126,0,14.169-0.967,20.934-2.875 c0.204-0.057,0.415-0.087,0.625-0.087c1.024,0,1.935,0.689,2.213,1.676c0.344,1.22-0.369,2.494-1.59,2.838 c-2.818,0.795-5.759,1.449-8.738,1.943L65.3,35.869v27.962l0.587,0.096c2.874,0.473,5.798,1.094,8.692,1.847 c1.227,0.319,1.966,1.577,1.646,2.804c-0.263,1.014-1.177,1.722-2.224,1.722l0,0c-0.194,0-0.39-0.025-0.581-0.075 c-7.367-1.916-14.724-2.887-21.864-2.887c-7.126,0-14.169,0.968-20.933,2.876C30.419,70.271,30.207,70.301,29.998,70.301z M51.625,62.743c2.746,0,5.541,0.137,8.308,0.406l0.768,0.075V36.461l-0.764,0.069c-2.55,0.231-5.07,0.349-7.492,0.349 c-2.742,0-5.561-0.139-8.377-0.413L43.3,36.391v26.763l0.764-0.069C46.561,62.858,49.104,62.743,51.625,62.743z"/><path fill="#472b29" d="M29.999,30.015L29.999,30.015c0.135,0,0.27,0.018,0.404,0.052 c7.425,1.931,14.84,2.909,22.04,2.909c7.19,0,14.297-0.976,21.121-2.9c0.144-0.041,0.291-0.061,0.438-0.061 c0.712,0,1.345,0.479,1.539,1.166c0.239,0.85-0.257,1.735-1.106,1.975c-2.795,0.789-5.709,1.437-8.663,1.926L64.6,35.275v1.187 v26.774v1.188l1.173,0.193c2.854,0.469,5.757,1.086,8.63,1.833c0.854,0.222,1.368,1.097,1.146,1.952 c-0.183,0.705-0.819,1.197-1.546,1.197c-0.135,0-0.271-0.018-0.405-0.052c-7.425-1.931-14.841-2.91-22.041-2.91 c-7.19,0-14.297,0.977-21.119,2.901c-0.146,0.041-0.294,0.062-0.439,0.062c-0.712,0-1.345-0.48-1.538-1.166 c-0.239-0.85,0.257-1.736,1.106-1.975c2.8-0.79,5.715-1.438,8.663-1.926L39.4,64.34v-1.187V36.378V35.19l-1.173-0.193 c-2.853-0.469-5.757-1.086-8.63-1.833c-0.414-0.107-0.761-0.37-0.977-0.738c-0.216-0.369-0.276-0.799-0.169-1.213 C28.635,30.507,29.271,30.015,29.999,30.015 M42.6,63.92l1.527-0.139c2.477-0.225,4.999-0.339,7.498-0.339 c2.723,0,5.496,0.136,8.24,0.403l1.536,0.149v-1.543V37.228v-1.533l-1.527,0.139c-2.528,0.229-5.028,0.346-7.429,0.346 c-2.72,0-5.516-0.138-8.309-0.41L42.6,35.62v1.543v25.225V63.92 M29.999,28.615c-1.332,0-2.551,0.895-2.902,2.245 c-0.417,1.604,0.545,3.242,2.148,3.659c2.933,0.763,5.852,1.382,8.755,1.86v26.774c-2.968,0.492-5.908,1.14-8.814,1.959 c-1.595,0.45-2.522,2.107-2.073,3.702c0.373,1.322,1.576,2.187,2.886,2.187c0.27,0,0.544-0.037,0.816-0.113 c6.733-1.899,13.665-2.85,20.742-2.85c7.098,0,14.344,0.955,21.688,2.865C73.498,70.969,73.752,71,74.002,71 c1.333,0,2.551-0.895,2.901-2.246c0.417-1.604-0.545-3.241-2.148-3.658c-2.932-0.763-5.852-1.382-8.755-1.86V36.462 c2.968-0.492,5.908-1.14,8.814-1.96c1.595-0.45,2.522-2.107,2.073-3.702c-0.373-1.323-1.576-2.186-2.886-2.186 c-0.269,0-0.543,0.036-0.816,0.113c-6.734,1.899-13.665,2.849-20.743,2.849c-7.098,0-14.343-0.955-21.688-2.864 C30.502,28.646,30.249,28.615,29.999,28.615L29.999,28.615z M44,62.388V37.163c2.833,0.276,5.649,0.417,8.444,0.417 c2.536,0,5.054-0.125,7.556-0.352v25.225c-2.81-0.273-5.603-0.409-8.375-0.409C49.066,62.043,46.524,62.159,44,62.388L44,62.388z"/><path fill="#472b29" d="M34.5,62c-0.276,0-0.5-0.224-0.5-0.5v-4.564c0-0.276,0.224-0.5,0.5-0.5s0.5,0.224,0.5,0.5V61.5 C35,61.776,34.776,62,34.5,62z"/><path fill="#472b29" d="M34.5,53.862c-0.276,0-0.5-0.224-0.5-0.5V38.5c0-0.276,0.224-0.5,0.5-0.5s0.5,0.224,0.5,0.5v14.862 C35,53.638,34.776,53.862,34.5,53.862z"/><path fill="#472b29" d="M69.5,62c-0.276,0-0.5-0.224-0.5-0.5V47.042c0-0.276,0.224-0.5,0.5-0.5s0.5,0.224,0.5,0.5V61.5 C70,61.776,69.776,62,69.5,62z"/><g><path fill="#472b29" d="M69.5,43.521c-0.276,0-0.5-0.224-0.5-0.5V38.5c0-0.276,0.224-0.5,0.5-0.5s0.5,0.224,0.5,0.5v4.521 C70,43.297,69.776,43.521,69.5,43.521z"/></g><g><path fill="#fff" d="M72.03,20H62c-0.276,0-0.5-0.224-0.5-0.5S61.724,19,62,19h10.03c0.276,0,0.5,0.224,0.5,0.5 S72.307,20,72.03,20z M75.411,19.5c0-0.276-0.224-0.5-0.5-0.5h-1.446c-0.276,0-0.5,0.224-0.5,0.5s0.224,0.5,0.5,0.5h1.446 C75.188,20,75.411,19.776,75.411,19.5z M79.466,19.5c0-0.276-0.224-0.5-0.5-0.5H76.42c-0.276,0-0.5,0.224-0.5,0.5 s0.224,0.5,0.5,0.5h2.546C79.243,20,79.466,19.776,79.466,19.5z M79.466,21.5c0-0.276-0.224-0.5-0.5-0.5H69.35 c-0.276,0-0.5,0.224-0.5,0.5s0.224,0.5,0.5,0.5h9.616C79.243,22,79.466,21.776,79.466,21.5z M68.118,21.5 c0-0.276-0.224-0.5-0.5-0.5h-0.58c-0.276,0-0.5,0.224-0.5,0.5s0.224,0.5,0.5,0.5h0.58C67.894,22,68.118,21.776,68.118,21.5z M65.742,21.5c0-0.276-0.224-0.5-0.5-0.5h-1.457c-0.276,0-0.5,0.224-0.5,0.5s0.224,0.5,0.5,0.5h1.457 C65.518,22,65.742,21.776,65.742,21.5z M74.877,17.5c0-0.276-0.224-0.5-0.5-0.5H69.35c-0.276,0-0.5,0.224-0.5,0.5 s0.224,0.5,0.5,0.5h5.027C74.654,18,74.877,17.776,74.877,17.5z M74.877,15.5c0-0.276-0.224-0.5-0.5-0.5H73.12 c-0.276,0-0.5,0.224-0.5,0.5s0.224,0.5,0.5,0.5h1.257C74.654,16,74.877,15.776,74.877,15.5z M71.608,23.5 c0-0.276-0.224-0.5-0.5-0.5H69.35c-0.276,0-0.5,0.224-0.5,0.5s0.224,0.5,0.5,0.5h1.758C71.385,24,71.608,23.776,71.608,23.5z"/></g><g><path fill="#fff" d="M14.771,53H4.741c-0.276,0-0.5-0.224-0.5-0.5s0.224-0.5,0.5-0.5h10.031c0.276,0,0.5,0.224,0.5,0.5 S15.048,53,14.771,53z M18.152,52.5c0-0.276-0.224-0.5-0.5-0.5h-1.446c-0.276,0-0.5,0.224-0.5,0.5s0.224,0.5,0.5,0.5h1.446 C17.929,53,18.152,52.776,18.152,52.5z M22.207,52.5c0-0.276-0.224-0.5-0.5-0.5h-2.546c-0.276,0-0.5,0.224-0.5,0.5 s0.224,0.5,0.5,0.5h2.546C21.983,53,22.207,52.776,22.207,52.5z M20.181,48.5c0-0.276-0.224-0.5-0.5-0.5h-9.616 c-0.276,0-0.5,0.224-0.5,0.5s0.224,0.5,0.5,0.5h9.616C19.957,49,20.181,48.776,20.181,48.5z M8.833,48.5c0-0.276-0.224-0.5-0.5-0.5 h-0.58c-0.276,0-0.5,0.224-0.5,0.5s0.224,0.5,0.5,0.5h0.58C8.61,49,8.833,48.776,8.833,48.5z M6.456,48.5 c0-0.276-0.224-0.5-0.5-0.5H4.5C4.224,48,4,48.224,4,48.5S4.224,49,4.5,49h1.456C6.233,49,6.456,48.776,6.456,48.5z M17.618,50.5 c0-0.276-0.224-0.5-0.5-0.5h-5.027c-0.276,0-0.5,0.224-0.5,0.5s0.224,0.5,0.5,0.5h5.027C17.394,51,17.618,50.776,17.618,50.5z M17.618,48.5c0-0.276-0.224-0.5-0.5-0.5h-1.257c-0.276,0-0.5,0.224-0.5,0.5s0.224,0.5,0.5,0.5h1.257 C17.394,49,17.618,48.776,17.618,48.5z M11.135,50.5c0-0.276-0.224-0.5-0.5-0.5H8.877c-0.276,0-0.5,0.224-0.5,0.5 s0.224,0.5,0.5,0.5h1.758C10.912,51,11.135,50.776,11.135,50.5z"/></g><g><path fill="#fdfcef" d="M67.14,86.283c1.883,0,3.517,0,3.54,0c2.11,0,3.821-1.674,3.821-3.739 c0-1.802-1.302-3.305-3.035-3.66c0.02-0.158,0.034-0.317,0.034-0.48c0-2.139-1.772-3.873-3.957-3.873 c-1.29,0-2.433,0.607-3.155,1.543c-0.185-2.381-2.358-4.218-4.9-3.913c-1.859,0.223-3.397,1.629-3.739,3.431 c-0.11,0.578-0.098,1.139,0.011,1.665c-0.498-0.525-1.208-0.856-1.998-0.856c-1.446,0-2.627,1.102-2.72,2.494 c-0.657-0.142-1.371-0.133-2.123,0.143c-1.438,0.528-2.462,1.853-2.522,3.356c-0.085,2.133,1.657,3.889,3.818,3.889 c0.164,0,0.741,0,0.874,0h7.934 M60.663,86.283h0.36"/><path fill="#472b29" d="M70.68,86.784h-3.54c-0.276,0-0.5-0.224-0.5-0.5s0.224-0.5,0.5-0.5h3.54 c1.831,0,3.321-1.453,3.321-3.239c0-1.524-1.108-2.858-2.636-3.17c-0.256-0.053-0.429-0.294-0.396-0.554 c0.018-0.137,0.03-0.275,0.03-0.417c0-1.86-1.551-3.373-3.457-3.373c-1.092,0-2.098,0.491-2.76,1.349 c-0.126,0.164-0.341,0.231-0.539,0.174c-0.198-0.06-0.339-0.234-0.355-0.44c-0.079-1.02-0.565-1.944-1.369-2.604 c-0.829-0.68-1.885-0.979-2.973-0.853c-1.646,0.197-3.006,1.442-3.307,3.027c-0.094,0.495-0.091,0.99,0.009,1.472 c0.045,0.219-0.06,0.441-0.258,0.545c-0.197,0.102-0.44,0.063-0.594-0.1c-0.428-0.451-1.009-0.7-1.635-0.7 c-1.169,0-2.145,0.891-2.221,2.027c-0.01,0.146-0.082,0.278-0.198,0.366c-0.116,0.087-0.264,0.12-0.406,0.089 c-0.639-0.138-1.243-0.098-1.846,0.125c-1.262,0.463-2.144,1.631-2.195,2.905c-0.035,0.876,0.283,1.709,0.895,2.346 c0.635,0.66,1.496,1.024,2.423,1.024h8.807c0.276,0,0.5,0.224,0.5,0.5s-0.224,0.5-0.5,0.5h-8.807 c-1.185,0-2.331-0.485-3.144-1.331c-0.803-0.836-1.219-1.929-1.173-3.078c0.067-1.675,1.212-3.204,2.849-3.806 c0.61-0.225,1.24-0.304,1.88-0.244c0.344-1.396,1.629-2.424,3.135-2.424c0.493,0,0.977,0.113,1.414,0.323 c0.009-0.242,0.037-0.484,0.083-0.727c0.381-2.009,2.096-3.585,4.17-3.833c1.365-0.167,2.685,0.218,3.726,1.071 c0.748,0.613,1.278,1.409,1.546,2.302c0.791-0.648,1.786-1.007,2.842-1.007c2.458,0,4.457,1.962,4.457,4.373 c0,0.034,0,0.068-0.001,0.103C73.761,79.06,75,80.693,75,82.543C75.001,84.882,73.063,86.784,70.68,86.784z M61.023,86.784 h-0.36c-0.276,0-0.5-0.224-0.5-0.5s0.224-0.5,0.5-0.5h0.36c0.276,0,0.5,0.224,0.5,0.5S61.299,86.784,61.023,86.784z"/><g><path fill="#472b29" d="M68.973,80.98c-0.018,0-0.036-0.002-0.055-0.006c-0.135-0.03-0.22-0.164-0.189-0.299 c0.037-0.164,0.094-0.325,0.17-0.479c0.604-1.224,2.272-1.677,3.722-1.007c0.125,0.058,0.18,0.206,0.122,0.331 c-0.058,0.126-0.207,0.179-0.332,0.122c-1.201-0.556-2.577-0.208-3.063,0.774c-0.058,0.118-0.102,0.242-0.13,0.367 C69.191,80.901,69.088,80.98,68.973,80.98z"/></g><g><path fill="#472b29" d="M63.814,86.784h-1.107c-0.276,0-0.5-0.224-0.5-0.5s0.224-0.5,0.5-0.5h1.107 c0.276,0,0.5,0.224,0.5,0.5S64.091,86.784,63.814,86.784z"/></g></g></svg>