<svg xmlns="http://www.w3.org/2000/svg"  viewBox="0 0 100 100" width="100px" height="100px"><path fill="#c7ede6" d="M87.215,56.71C88.35,54.555,89,52.105,89,49.5c0-6.621-4.159-12.257-10.001-14.478 C78.999,35.015,79,35.008,79,35c0-11.598-9.402-21-21-21c-9.784,0-17.981,6.701-20.313,15.757C36.211,29.272,34.638,29,33,29 c-7.692,0-14.023,5.793-14.89,13.252C12.906,43.353,9,47.969,9,53.5C9,59.851,14.149,65,20.5,65c0.177,0,0.352-0.012,0.526-0.022 C21.022,65.153,21,65.324,21,65.5C21,76.822,30.178,86,41.5,86c6.437,0,12.175-2.972,15.934-7.614C59.612,80.611,62.64,82,66,82 c4.65,0,8.674-2.65,10.666-6.518C77.718,75.817,78.837,76,80,76c6.075,0,11-4.925,11-11C91,61.689,89.53,58.727,87.215,56.71z"/><path fill="#fff" d="M17.405,49H7.5C7.224,49,7,48.776,7,48.5S7.224,48,7.5,48h9.905c0.276,0,0.5,0.224,0.5,0.5 S17.682,49,17.405,49z"/><path fill="#fff" d="M20.5,49h-1c-0.276,0-0.5-0.224-0.5-0.5s0.224-0.5,0.5-0.5h1c0.276,0,0.5,0.224,0.5,0.5 S20.777,49,20.5,49z"/><path fill="#fff" d="M25.491,51H16.5c-0.276,0-0.5-0.224-0.5-0.5s0.224-0.5,0.5-0.5h8.991c0.276,0,0.5,0.224,0.5,0.5 S25.767,51,25.491,51z"/><path fill="#fff" d="M14.5,51h-1c-0.276,0-0.5-0.224-0.5-0.5s0.224-0.5,0.5-0.5h1c0.276,0,0.5,0.224,0.5,0.5 S14.777,51,14.5,51z"/><path fill="#fff" d="M11.5,51h-2C9.224,51,9,50.776,9,50.5S9.224,50,9.5,50h2c0.276,0,0.5,0.224,0.5,0.5 S11.777,51,11.5,51z"/><path fill="#fff" d="M17.5,53h-2c-0.276,0-0.5-0.224-0.5-0.5s0.224-0.5,0.5-0.5h2c0.276,0,0.5,0.224,0.5,0.5 S17.776,53,17.5,53z"/><path fill="#fff" d="M20.5,44c-0.177,0-0.823,0-1,0c-0.276,0-0.5,0.224-0.5,0.5c0,0.276,0.224,0.5,0.5,0.5 c0.177,0,0.823,0,1,0c0.276,0,0.5-0.224,0.5-0.5C21,44.224,20.776,44,20.5,44z"/><path fill="#fff" d="M20.5,46c-0.177,0-4.823,0-5,0c-0.276,0-0.5,0.224-0.5,0.5c0,0.276,0.224,0.5,0.5,0.5 c0.177,0,4.823,0,5,0c0.276,0,0.5-0.224,0.5-0.5C21,46.224,20.776,46,20.5,46z"/><path fill="#fff" d="M25.5,48c-0.177,0-2.823,0-3,0c-0.276,0-0.5,0.224-0.5,0.5c0,0.276,0.224,0.5,0.5,0.5 c0.177,0,2.823,0,3,0c0.276,0,0.5-0.224,0.5-0.5C26,48.224,25.776,48,25.5,48z"/><g><path fill="#fff" d="M86.5,57h-10c-0.276,0-0.5-0.224-0.5-0.5s0.224-0.5,0.5-0.5h10c0.276,0,0.5,0.224,0.5,0.5 S86.776,57,86.5,57z"/><path fill="#fff" d="M90.5,57h-2c-0.276,0-0.5-0.224-0.5-0.5s0.224-0.5,0.5-0.5h2c0.276,0,0.5,0.224,0.5,0.5 S90.776,57,90.5,57z"/><path fill="#fff" d="M95.5,59h-10c-0.276,0-0.5-0.224-0.5-0.5s0.224-0.5,0.5-0.5h10c0.276,0,0.5,0.224,0.5,0.5 S95.777,59,95.5,59z"/><path fill="#fff" d="M83.5,59h-1c-0.276,0-0.5-0.224-0.5-0.5s0.224-0.5,0.5-0.5h1c0.276,0,0.5,0.224,0.5,0.5 S83.776,59,83.5,59z"/><path fill="#fff" d="M80.47,59H78.5c-0.276,0-0.5-0.224-0.5-0.5s0.224-0.5,0.5-0.5h1.97c0.276,0,0.5,0.224,0.5,0.5 S80.746,59,80.47,59z"/><path fill="#fff" d="M89.5,55h-5c-0.276,0-0.5-0.224-0.5-0.5s0.224-0.5,0.5-0.5h5c0.276,0,0.5,0.224,0.5,0.5 S89.777,55,89.5,55z"/><path fill="#fff" d="M86.5,61h-2c-0.276,0-0.5-0.224-0.5-0.5s0.224-0.5,0.5-0.5h2c0.276,0,0.5,0.224,0.5,0.5 S86.776,61,86.5,61z"/></g><g><path fill="#fdfcef" d="M63.875,31.5c0,0-3.64,0-6.125,0s-4.5-2.015-4.5-4.5c0-2.333,1.782-4.229,4.055-4.455 C57.283,22.364,57.25,22.187,57.25,22c0-2.485,2.015-4.5,4.5-4.5c1.438,0,2.703,0.686,3.527,1.736 c0.14-2.636,2.302-4.736,4.973-4.736c2.761,0,5,2.239,5,5c0,0.446-0.077,0.87-0.187,1.282c0.642-0.777,1.6-1.282,2.687-1.282 c1.781,0,3.234,1.335,3.455,3.055c0.181-0.022,0.358-0.055,0.545-0.055c2.485,0,4.5,2.015,4.5,4.5s-2.015,4.5-4.5,4.5 s-9.5,0-9.5,0h-5.375V32h-3V31.5z"/><path fill="#472b29" d="M70.25,14c3.033,0,5.5,2.467,5.5,5.5c0,0.016,0,0.031,0,0.047c0.602-0.354,1.29-0.547,2-0.547 c1.831,0,3.411,1.261,3.858,3.005C81.655,22.002,81.702,22,81.75,22c2.757,0,5,2.243,5,5s-2.243,5-5,5H66.875 c-0.276,0-0.5-0.224-0.5-0.5s0.224-0.5,0.5-0.5H81.75c2.206,0,4-1.794,4-4s-1.794-4-4-4c-0.117,0-0.23,0.017-0.343,0.032 l-0.141,0.019c-0.021,0.003-0.041,0.004-0.062,0.004c-0.246,0-0.462-0.185-0.495-0.437C80.518,21.125,79.246,20,77.75,20 c-0.885,0-1.723,0.401-2.301,1.1c-0.098,0.118-0.241,0.182-0.386,0.182c-0.078,0-0.156-0.018-0.228-0.056 c-0.209-0.107-0.314-0.346-0.254-0.573c0.116-0.436,0.17-0.802,0.17-1.153c0-2.481-2.019-4.5-4.5-4.5 c-2.381,0-4.347,1.872-4.474,4.263c-0.011,0.208-0.15,0.387-0.349,0.45c-0.05,0.016-0.101,0.024-0.152,0.024 c-0.15,0-0.296-0.069-0.392-0.192C64.112,18.563,62.971,18,61.75,18c-2.206,0-4,1.794-4,4c0,0.117,0.017,0.23,0.032,0.343 l0.019,0.141c0.016,0.134-0.022,0.268-0.106,0.373c-0.084,0.105-0.207,0.172-0.34,0.185C55.299,23.247,53.75,24.949,53.75,27 c0,2.206,1.794,4,4,4h6.125c0.276,0,0.5,0.224,0.5,0.5s-0.224,0.5-0.5,0.5H57.75c-2.757,0-5-2.243-5-5 c0-2.397,1.689-4.413,4.003-4.877C56.751,22.082,56.75,22.041,56.75,22c0-2.757,2.243-5,5-5c1.176,0,2.293,0.416,3.183,1.164 C65.531,15.76,67.695,14,70.25,14L70.25,14z"/><path fill="#472b29" d="M71.75,21c1.403,0,2.609,0.999,2.913,2.341C75.03,23.119,75.449,23,75.875,23 c1.202,0,2.198,0.897,2.353,2.068C78.431,25.022,78.624,25,78.813,25c1.529,0,2.811,1.2,2.918,2.732 C81.74,27.87,81.636,27.99,81.499,28c-0.006,0-0.012,0-0.018,0c-0.13,0-0.24-0.101-0.249-0.232 c-0.089-1.271-1.151-2.268-2.419-2.268c-0.229,0-0.47,0.042-0.738,0.127c-0.022,0.007-0.045,0.01-0.067,0.01 c-0.055,0-0.11-0.02-0.156-0.054c-0.064-0.047-0.102-0.129-0.102-0.209c0-1.034-0.841-1.875-1.875-1.875 c-0.447,0-0.885,0.168-1.231,0.473c-0.047,0.041-0.106,0.063-0.165,0.063c-0.032,0-0.063-0.006-0.093-0.019 c-0.088-0.035-0.148-0.117-0.155-0.212c-0.102-1.292-1.191-2.305-2.479-2.305c-0.208,0-0.425,0.034-0.682,0.107 c-0.023,0.007-0.047,0.01-0.07,0.01c-0.109,0-0.207-0.073-0.239-0.182c-0.038-0.133,0.039-0.271,0.172-0.309 C71.233,21.04,71.494,21,71.75,21L71.75,21z"/></g><g><path fill="#fdfcef" d="M25.375,69.5c0,0-1.567,0-3.5,0s-3.5-1.567-3.5-3.5c0-1.781,1.335-3.234,3.055-3.455 c-0.028-0.179-0.055-0.358-0.055-0.545c0-1.933,1.567-3.5,3.5-3.5c1.032,0,1.95,0.455,2.59,1.165 c0.384-1.808,1.987-3.165,3.91-3.165c2.209,0,4,1.791,4,4c0,0.191-0.03,0.374-0.056,0.558c0.428-0.344,0.965-0.558,1.556-0.558 c1.228,0,2.245,0.887,2.455,2.055c0.179-0.028,0.358-0.055,0.545-0.055c1.933,0,3.5,1.567,3.5,3.5s-1.567,3.5-3.5,3.5 s-7.5,0-7.5,0V70h-7V69.5z"/><path fill="#472b29" d="M23.625,65c0.138,0,0.25-0.112,0.25-0.25c0-1.223-0.995-2.218-2.218-2.218 c-0.034,0.009-0.737-0.001-1.244,0.136c-0.133,0.036-0.212,0.173-0.176,0.306c0.036,0.134,0.173,0.213,0.306,0.176 c0.444-0.12,1.1-0.12,1.113-0.118c0.948,0,1.719,0.771,1.719,1.718C23.375,64.888,23.487,65,23.625,65z"/><circle cx="30.375" cy="69.5" r=".5" fill="#472b29"/><path fill="#472b29" d="M21.875,70h3.5c0.276,0,0.5-0.224,0.5-0.5s-0.224-0.5-0.5-0.5h-3.5c-1.654,0-3-1.346-3-3 c0-1.496,1.125-2.768,2.618-2.959c0.134-0.018,0.255-0.088,0.336-0.196s0.115-0.244,0.094-0.377 C21.9,62.314,21.875,62.16,21.875,62c0-1.654,1.346-3,3-3c0.85,0,1.638,0.355,2.219,1c0.125,0.139,0.321,0.198,0.5,0.148 c0.182-0.049,0.321-0.195,0.36-0.379C28.295,58.165,29.734,57,31.375,57c1.93,0,3.5,1.57,3.5,3.5c0,0.143-0.021,0.28-0.041,0.418 c-0.029,0.203,0.063,0.438,0.242,0.54c0.179,0.102,0.396,0.118,0.556-0.01C35.997,61.155,36.426,61,36.875,61 c0.966,0,1.792,0.691,1.963,1.644c0.048,0.267,0.296,0.446,0.569,0.405C39.561,63.025,39.715,63,39.875,63c1.654,0,3,1.346,3,3 s-1.346,3-3,3h-7.5c-0.276,0-0.5,0.224-0.5,0.5s0.224,0.5,0.5,0.5h7.5c2.206,0,4-1.794,4-4c0-2.206-1.794-4-4-4 c-0.059,0-0.116,0.002-0.174,0.006C39.287,60.82,38.164,60,36.875,60c-0.349,0-0.689,0.061-1.011,0.18 C35.699,57.847,33.749,56,31.375,56c-1.831,0-3.466,1.127-4.153,2.774C26.542,58.276,25.72,58,24.875,58c-2.206,0-4,1.794-4,4 c0,0.048,0.001,0.095,0.004,0.142c-1.743,0.448-3.004,2.027-3.004,3.858C17.875,68.206,19.669,70,21.875,70z"/><path fill="#472b29" d="M27.375,69c0.159,0,0.841,0,1,0c0.276,0,0.5,0.224,0.5,0.5c0,0.276-0.224,0.5-0.5,0.5 c-0.159,0-0.841,0-1,0c-0.276,0-0.5-0.224-0.5-0.5C26.875,69.224,27.099,69,27.375,69z"/></g><g><path fill="#00a5a5" d="M52.008,73.3c-0.119-0.002-0.224-0.009-0.331-0.024c-0.146-0.028-0.249-0.058-0.353-0.09 l-0.099-0.027c-0.148-0.053-0.278-0.113-0.4-0.186l-0.082-0.063c-0.091-0.06-0.18-0.12-0.259-0.191l-0.107-0.114 c-0.064-0.066-0.129-0.13-0.185-0.202l-0.094-0.14c-0.045-0.068-0.093-0.138-0.131-0.215c-0.021-0.041-0.034-0.074-0.048-0.108 c-0.055-0.136-0.087-0.211-0.11-0.291c-0.018-0.061-0.03-0.131-0.044-0.201l-0.029-0.121c-0.128-0.921-3.012-21.956-7.581-32.951 c-1.301-3.133-3.587-5.011-6.115-5.026c-2.109,0-3.938,1.354-4.912,3.622c-0.363,0.846-1.193,1.392-2.116,1.392 c-0.542,0-1.061-0.192-1.502-0.554c-0.752-0.617-0.996-1.756-0.582-2.707c1.704-3.912,5.186-6.342,9.084-6.342 c4.428,0.025,8.388,3.036,10.391,7.856c1.698,4.086,3.34,9.788,4.879,16.947c0.08,0.378,0.406,0.643,0.792,0.642 c0.384,0,0.709-0.262,0.792-0.638c1.545-7.11,3.136-12.796,4.729-16.9c1.878-4.837,5.761-7.89,10.134-7.966l0.209-0.002 c3.827,0,7.294,2.363,9.046,6.167c0.544,1.179,0.226,2.528-0.74,3.136c-0.376,0.237-0.804,0.363-1.236,0.363h-0.001 c-0.922,0-1.753-0.547-2.117-1.393c-0.989-2.306-2.856-3.683-4.994-3.683c-2.59,0.045-4.805,1.927-6.012,5.037 c-4.411,11.362-7.567,32.794-7.599,33.01l-0.038,0.146c-0.02,0.091-0.029,0.142-0.045,0.191c-0.025,0.085-0.058,0.158-0.09,0.233 l-0.07,0.162c-0.042,0.079-0.093,0.153-0.143,0.226l-0.087,0.129c-0.061,0.076-0.129,0.143-0.198,0.21l-0.074,0.077 c-0.124,0.113-0.239,0.198-0.36,0.27c-0.172,0.088-0.28,0.141-0.393,0.182l-0.127,0.033c-0.098,0.029-0.198,0.056-0.303,0.072 l-0.11,0.025c-0.03,0-0.229,0.008-0.229,0.008H52.008z"/><path fill="#472b29" d="M67.937,29.4L67.937,29.4c3.551,0,6.774,2.207,8.411,5.759c0.342,0.743,0.257,1.788-0.478,2.251 c-0.268,0.169-0.559,0.254-0.864,0.254c-0.642,0-1.221-0.38-1.474-0.967c-1.103-2.572-3.211-4.108-5.638-4.108l-0.099,0.001 c-2.797,0.049-5.252,2.099-6.566,5.482c-4.349,11.203-7.463,31.981-7.631,33.113c-0.014,0.05-0.027,0.101-0.041,0.17 c-0.008,0.039-0.015,0.078-0.026,0.116c-0.017,0.056-0.041,0.107-0.062,0.157l-0.027,0.063l-0.022,0.052 c-0.029,0.054-0.065,0.103-0.103,0.159l-0.056,0.088c-0.04,0.051-0.088,0.095-0.138,0.143c-0.029,0.028-0.057,0.058-0.092,0.096 c-0.053,0.043-0.106,0.083-0.161,0.119l-0.034,0.015l-0.061,0.034c-0.074,0.041-0.139,0.072-0.195,0.094 c-0.039,0.01-0.078,0.02-0.113,0.031c-0.071,0.021-0.142,0.042-0.226,0.055c-0.026,0.004-0.052,0.009-0.077,0.015 c-0.043,0.003-0.092,0.005-0.16,0.006h-0.004c-0.048,0-0.097-0.002-0.147-0.007l-0.008-0.002l-0.091-0.015 c-0.077-0.013-0.15-0.036-0.223-0.058c-0.035-0.011-0.07-0.021-0.113-0.032c-0.067-0.026-0.131-0.056-0.19-0.089 c-0.031-0.023-0.063-0.046-0.099-0.071c-0.062-0.041-0.124-0.08-0.166-0.12l-0.089-0.094c-0.044-0.044-0.089-0.086-0.135-0.15 l-0.051-0.079c-0.034-0.051-0.069-0.1-0.095-0.151l-0.028-0.066l-0.022-0.055c-0.021-0.05-0.043-0.1-0.06-0.156 c-0.013-0.042-0.019-0.086-0.03-0.142c-0.009-0.047-0.02-0.094-0.035-0.149c-0.183-1.338-3.066-22.108-7.615-33.055 c-1.412-3.401-3.938-5.441-6.78-5.457c-2.38,0-4.449,1.513-5.536,4.046c-0.253,0.588-0.831,0.968-1.473,0.968 c-0.378,0-0.744-0.137-1.058-0.395c-0.515-0.423-0.677-1.217-0.385-1.887c1.591-3.652,4.827-5.921,8.443-5.921h0.052 c4.086,0.023,7.8,2.869,9.693,7.425c1.683,4.051,3.312,9.711,4.84,16.825c0.151,0.704,0.759,1.195,1.477,1.195 c0.717,0,1.324-0.49,1.476-1.192c1.536-7.072,3.117-12.722,4.698-16.794c1.773-4.566,5.41-7.448,9.499-7.519L67.937,29.4 M67.937,28c-0.074,0-0.147,0.001-0.221,0.002c-4.662,0.082-8.791,3.304-10.774,8.412c-1.86,4.791-3.479,11.105-4.761,17.003 c-0.013,0.06-0.06,0.089-0.108,0.089c-0.048,0-0.095-0.03-0.108-0.089c-1.276-5.936-2.93-12.287-4.916-17.068 c-2.113-5.085-6.32-8.261-10.978-8.288c-0.021,0-0.039,0-0.06,0c-4.188,0-7.905,2.584-9.726,6.762 c-0.527,1.211-0.241,2.689,0.779,3.528c0.596,0.489,1.28,0.713,1.947,0.713c1.163,0,2.272-0.68,2.76-1.816 c0.874-2.038,2.471-3.198,4.25-3.198c0.005,0,0.01,0,0.015,0c2.237,0.013,4.283,1.73,5.472,4.594 c4.622,11.121,7.498,32.539,7.528,32.753c0.008,0.063,0.029,0.121,0.042,0.183c0.018,0.091,0.035,0.181,0.061,0.27 c0.03,0.102,0.068,0.197,0.108,0.293c0.031,0.074,0.059,0.148,0.095,0.22c0.052,0.103,0.114,0.197,0.177,0.292 c0.039,0.059,0.075,0.121,0.118,0.176c0.073,0.095,0.156,0.18,0.24,0.264c0.047,0.048,0.089,0.1,0.139,0.145 c0.105,0.094,0.22,0.174,0.337,0.251c0.038,0.025,0.071,0.057,0.11,0.08c0.159,0.095,0.328,0.175,0.503,0.24 c0.048,0.018,0.099,0.027,0.148,0.042c0.135,0.042,0.27,0.08,0.412,0.103c0.017,0.002,0.032,0.01,0.05,0.012 c0.138,0.02,0.275,0.029,0.411,0.03c0.006,0,0.011,0.001,0.017,0.001c0.001,0,0.002,0,0.002,0c0.002,0,0.004,0,0.005,0 c0.01,0,0.02-0.002,0.031-0.003c0.119-0.001,0.238-0.007,0.359-0.024c0.021-0.002,0.04-0.011,0.061-0.014 c0.136-0.021,0.267-0.055,0.396-0.093c0.054-0.016,0.111-0.026,0.164-0.045c0.148-0.054,0.289-0.122,0.426-0.197 c0.027-0.015,0.058-0.024,0.084-0.04c0.158-0.093,0.306-0.203,0.444-0.322c0.044-0.039,0.081-0.085,0.123-0.126 c0.09-0.088,0.18-0.177,0.258-0.277c0.042-0.053,0.076-0.111,0.115-0.168c0.066-0.096,0.13-0.191,0.185-0.295 c0.036-0.069,0.064-0.141,0.095-0.212c0.042-0.098,0.083-0.195,0.114-0.298c0.026-0.084,0.043-0.169,0.062-0.256 c0.014-0.064,0.036-0.125,0.046-0.19c0.031-0.215,3.176-21.57,7.558-32.857c1.101-2.835,3.077-4.551,5.286-4.589 c0.025,0,0.05-0.001,0.074-0.001c1.851,0,3.474,1.214,4.351,3.26c0.489,1.136,1.598,1.816,2.76,1.816 c0.544,0,1.1-0.149,1.61-0.47c1.324-0.834,1.658-2.6,1.003-4.021C75.746,30.508,72.066,28,67.937,28L67.937,28z"/><path fill="#472b29" d="M57.368,72.737c-0.027,0-0.055-0.002-0.082-0.007c-0.272-0.044-0.457-0.302-0.412-0.574 c0.327-2.003,0.656-3.896,0.982-5.681c0.05-0.272,0.312-0.449,0.582-0.402c0.271,0.05,0.452,0.31,0.402,0.582 c-0.326,1.779-0.653,3.665-0.98,5.662C57.82,72.563,57.608,72.737,57.368,72.737z"/><path fill="#472b29" d="M59.044,63.413c-0.032,0-0.065-0.003-0.098-0.01c-0.271-0.053-0.447-0.316-0.394-0.587 c0.403-2.044,0.821-4.028,1.241-5.896c0.062-0.269,0.335-0.438,0.598-0.378c0.27,0.061,0.439,0.328,0.379,0.598 c-0.419,1.859-0.835,3.834-1.237,5.87C59.486,63.248,59.277,63.413,59.044,63.413z"/><path fill="#472b29" d="M61.063,54.198c-0.039,0-0.079-0.005-0.118-0.014c-0.269-0.065-0.433-0.336-0.367-0.604 c1.93-7.917,3.354-11.405,3.413-11.549c0.104-0.255,0.397-0.376,0.652-0.271c0.255,0.105,0.377,0.397,0.271,0.653 c-0.014,0.035-1.457,3.576-3.366,11.405C61.492,54.044,61.288,54.198,61.063,54.198z"/><path fill="#472b29" d="M52.021,44.5c-0.238,0-0.449-0.171-0.491-0.415c-0.755-4.359-2.095-8.131-3.981-11.209 c-0.144-0.235-0.07-0.543,0.165-0.688c0.235-0.144,0.544-0.071,0.688,0.165c1.952,3.187,3.336,7.076,4.112,11.561 c0.048,0.272-0.135,0.531-0.407,0.578C52.078,44.498,52.049,44.5,52.021,44.5z"/><g><path fill="#472b29" d="M46.167,30.581c-0.144,0-0.285-0.061-0.385-0.18c-1.769-2.126-3.238-2.93-3.253-2.938 c-0.242-0.131-0.334-0.434-0.204-0.677c0.129-0.243,0.431-0.336,0.676-0.206c0.065,0.035,1.644,0.889,3.551,3.181 c0.176,0.212,0.147,0.528-0.064,0.704C46.394,30.543,46.28,30.581,46.167,30.581z"/></g></g></svg>