<svg xmlns="http://www.w3.org/2000/svg"  viewBox="0 0 100 100" width="100px" height="100px"><path fill="#c7ede6" d="M85.215,56.71C86.35,54.555,87,52.105,87,49.5c0-6.621-4.159-12.257-10.001-14.478 C76.999,35.015,77,35.008,77,35c0-11.598-9.402-21-21-21c-9.784,0-17.981,6.701-20.313,15.757C34.211,29.272,32.638,29,31,29 c-7.692,0-14.023,5.793-14.89,13.252C10.906,43.353,7,47.969,7,53.5C7,59.851,12.149,65,18.5,65c0.177,0,0.352-0.012,0.526-0.022 C19.022,65.153,19,65.324,19,65.5C19,76.822,28.178,86,39.5,86c6.437,0,12.175-2.972,15.934-7.614C57.612,80.611,60.64,82,64,82 c4.65,0,8.674-2.65,10.666-6.518C75.718,75.817,76.837,76,78,76c6.075,0,11-4.925,11-11C89,61.689,87.53,58.727,85.215,56.71z"/><path fill="#fff" d="M15.405,49H5.5C5.224,49,5,48.776,5,48.5S5.224,48,5.5,48h9.905c0.276,0,0.5,0.224,0.5,0.5 S15.682,49,15.405,49z"/><path fill="#fff" d="M18.5,49h-1c-0.276,0-0.5-0.224-0.5-0.5s0.224-0.5,0.5-0.5h1c0.276,0,0.5,0.224,0.5,0.5 S18.777,49,18.5,49z"/><path fill="#fff" d="M23.491,51H14.5c-0.276,0-0.5-0.224-0.5-0.5s0.224-0.5,0.5-0.5h8.991c0.276,0,0.5,0.224,0.5,0.5 S23.767,51,23.491,51z"/><path fill="#fff" d="M12.5,51h-1c-0.276,0-0.5-0.224-0.5-0.5s0.224-0.5,0.5-0.5h1c0.276,0,0.5,0.224,0.5,0.5 S12.777,51,12.5,51z"/><path fill="#fff" d="M9.5,51h-2C7.224,51,7,50.776,7,50.5S7.224,50,7.5,50h2c0.276,0,0.5,0.224,0.5,0.5S9.777,51,9.5,51 z"/><path fill="#fff" d="M15.5,53h-2c-0.276,0-0.5-0.224-0.5-0.5s0.224-0.5,0.5-0.5h2c0.276,0,0.5,0.224,0.5,0.5 S15.776,53,15.5,53z"/><path fill="#fff" d="M18.5,44c-0.177,0-0.823,0-1,0c-0.276,0-0.5,0.224-0.5,0.5c0,0.276,0.224,0.5,0.5,0.5 c0.177,0,0.823,0,1,0c0.276,0,0.5-0.224,0.5-0.5C19,44.224,18.776,44,18.5,44z"/><path fill="#fff" d="M18.5,46c-0.177,0-4.823,0-5,0c-0.276,0-0.5,0.224-0.5,0.5c0,0.276,0.224,0.5,0.5,0.5 c0.177,0,4.823,0,5,0c0.276,0,0.5-0.224,0.5-0.5C19,46.224,18.776,46,18.5,46z"/><path fill="#fff" d="M23.5,48c-0.177,0-2.823,0-3,0c-0.276,0-0.5,0.224-0.5,0.5c0,0.276,0.224,0.5,0.5,0.5 c0.177,0,2.823,0,3,0c0.276,0,0.5-0.224,0.5-0.5C24,48.224,23.776,48,23.5,48z"/><g><path fill="#fff" d="M84.5,57h-10c-0.276,0-0.5-0.224-0.5-0.5s0.224-0.5,0.5-0.5h10c0.276,0,0.5,0.224,0.5,0.5 S84.776,57,84.5,57z"/><path fill="#fff" d="M88.5,57h-2c-0.276,0-0.5-0.224-0.5-0.5s0.224-0.5,0.5-0.5h2c0.276,0,0.5,0.224,0.5,0.5 S88.776,57,88.5,57z"/><path fill="#fff" d="M93.5,59h-10c-0.276,0-0.5-0.224-0.5-0.5s0.224-0.5,0.5-0.5h10c0.276,0,0.5,0.224,0.5,0.5 S93.777,59,93.5,59z"/><path fill="#fff" d="M81.5,59h-1c-0.276,0-0.5-0.224-0.5-0.5s0.224-0.5,0.5-0.5h1c0.276,0,0.5,0.224,0.5,0.5 S81.776,59,81.5,59z"/><path fill="#fff" d="M78.47,59H76.5c-0.276,0-0.5-0.224-0.5-0.5s0.224-0.5,0.5-0.5h1.97c0.276,0,0.5,0.224,0.5,0.5 S78.746,59,78.47,59z"/><path fill="#fff" d="M87.5,55h-5c-0.276,0-0.5-0.224-0.5-0.5s0.224-0.5,0.5-0.5h5c0.276,0,0.5,0.224,0.5,0.5 S87.777,55,87.5,55z"/><path fill="#fff" d="M84.5,61h-2c-0.276,0-0.5-0.224-0.5-0.5s0.224-0.5,0.5-0.5h2c0.276,0,0.5,0.224,0.5,0.5 S84.776,61,84.5,61z"/></g><g><path fill="#fdfcef" d="M25.875,30.5c0,0-3.64,0-6.125,0s-4.5-2.015-4.5-4.5c0-2.333,1.782-4.229,4.055-4.455 C19.283,21.364,19.25,21.187,19.25,21c0-2.485,2.015-4.5,4.5-4.5c1.438,0,2.703,0.686,3.527,1.736 c0.14-2.636,2.302-4.736,4.973-4.736c2.761,0,5,2.239,5,5c0,0.446-0.077,0.87-0.187,1.282c0.642-0.777,1.6-1.282,2.687-1.282 c1.781,0,3.234,1.335,3.455,3.055c0.181-0.022,0.358-0.055,0.545-0.055c2.485,0,4.5,2.015,4.5,4.5s-2.015,4.5-4.5,4.5 s-9.5,0-9.5,0h-5.375V31h-3V30.5z"/><path fill="#472b29" d="M32.25,13c3.033,0,5.5,2.467,5.5,5.5c0,0.016,0,0.031,0,0.047c0.602-0.354,1.29-0.547,2-0.547 c1.831,0,3.411,1.261,3.858,3.005C43.655,21.002,43.702,21,43.75,21c2.757,0,5,2.243,5,5s-2.243,5-5,5H28.875 c-0.276,0-0.5-0.224-0.5-0.5s0.224-0.5,0.5-0.5H43.75c2.206,0,4-1.794,4-4s-1.794-4-4-4c-0.117,0-0.23,0.017-0.343,0.032 l-0.141,0.019c-0.021,0.003-0.041,0.004-0.062,0.004c-0.246,0-0.462-0.185-0.495-0.437C42.518,20.125,41.246,19,39.75,19 c-0.885,0-1.723,0.401-2.301,1.1c-0.098,0.118-0.241,0.182-0.386,0.182c-0.078,0-0.156-0.018-0.228-0.056 c-0.209-0.107-0.314-0.346-0.254-0.573c0.116-0.436,0.17-0.802,0.17-1.153c0-2.481-2.019-4.5-4.5-4.5 c-2.381,0-4.347,1.872-4.474,4.263c-0.011,0.208-0.15,0.387-0.349,0.45c-0.05,0.016-0.101,0.024-0.152,0.024 c-0.15,0-0.296-0.069-0.392-0.192C26.112,17.563,24.971,17,23.75,17c-2.206,0-4,1.794-4,4c0,0.117,0.017,0.23,0.032,0.343 l0.019,0.141c0.016,0.134-0.022,0.268-0.106,0.373c-0.084,0.105-0.207,0.172-0.34,0.185C17.299,22.247,15.75,23.949,15.75,26 c0,2.206,1.794,4,4,4h6.125c0.276,0,0.5,0.224,0.5,0.5s-0.224,0.5-0.5,0.5H19.75c-2.757,0-5-2.243-5-5 c0-2.397,1.689-4.413,4.003-4.877C18.751,21.082,18.75,21.041,18.75,21c0-2.757,2.243-5,5-5c1.176,0,2.293,0.416,3.183,1.164 C27.531,14.76,29.695,13,32.25,13L32.25,13z"/><path fill="#472b29" d="M33.75,20c1.403,0,2.609,0.999,2.913,2.341C37.03,22.119,37.449,22,37.875,22 c1.202,0,2.198,0.897,2.353,2.068C40.431,24.022,40.624,24,40.813,24c1.529,0,2.811,1.2,2.918,2.732 C43.74,26.87,43.636,26.99,43.499,27c-0.006,0-0.012,0-0.018,0c-0.13,0-0.24-0.101-0.249-0.232 c-0.089-1.271-1.151-2.268-2.419-2.268c-0.229,0-0.47,0.042-0.738,0.127c-0.022,0.007-0.045,0.01-0.067,0.01 c-0.055,0-0.11-0.02-0.156-0.054c-0.064-0.047-0.102-0.129-0.102-0.209c0-1.034-0.841-1.875-1.875-1.875 c-0.447,0-0.885,0.168-1.231,0.473c-0.047,0.041-0.106,0.063-0.165,0.063c-0.032,0-0.063-0.006-0.093-0.019 c-0.088-0.035-0.148-0.117-0.155-0.212c-0.102-1.292-1.191-2.305-2.479-2.305c-0.208,0-0.425,0.034-0.682,0.107 c-0.023,0.007-0.047,0.01-0.07,0.01c-0.109,0-0.207-0.073-0.239-0.182c-0.038-0.133,0.039-0.271,0.172-0.309 C33.233,20.04,33.494,20,33.75,20L33.75,20z"/></g><g><path fill="#472b29" d="M46.141,57.601c-0.093,0-0.186-0.025-0.269-0.079l-0.557-0.358C43.136,55.754,40.424,54,36.5,54 c-2.984,0-4.951,1.315-6.853,2.586c-0.379,0.254-0.755,0.505-1.134,0.744c-0.232,0.146-0.542,0.077-0.689-0.157 c-0.147-0.234-0.077-0.542,0.156-0.689c0.372-0.234,0.74-0.48,1.111-0.728C31.022,54.464,33.212,53,36.5,53 c4.22,0,7.069,1.843,9.358,3.324l0.551,0.355c0.233,0.148,0.302,0.458,0.153,0.69C46.467,57.519,46.306,57.601,46.141,57.601z"/><path fill="#472b29" d="M52.707,57.819c-0.157,0-0.313-0.075-0.41-0.214c-0.158-0.227-0.103-0.538,0.124-0.696 c0.301-0.209,0.602-0.436,0.914-0.67c0.631-0.474,1.282-0.963,2.064-1.429c0.233-0.14,0.543-0.064,0.686,0.174 c0.142,0.237,0.063,0.544-0.174,0.686c-0.736,0.438-1.366,0.911-1.976,1.369c-0.322,0.242-0.633,0.476-0.942,0.691 C52.905,57.79,52.806,57.819,52.707,57.819z"/><path fill="#472b29" d="M72.524,58.518c-0.104,0-0.207-0.032-0.297-0.098c-0.425-0.314-0.844-0.656-1.275-1.01 C69.001,55.812,66.789,54,62.5,54c-1.519,0-2.852,0.181-4.077,0.552c-0.268,0.08-0.544-0.069-0.624-0.333s0.069-0.543,0.333-0.624 C59.453,53.195,60.882,53,62.5,53c4.646,0,7.005,1.932,9.086,3.637c0.418,0.342,0.823,0.675,1.235,0.979 c0.223,0.164,0.27,0.477,0.105,0.699C72.829,58.448,72.678,58.518,72.524,58.518z"/><path fill="#472b29" d="M53.631,38.601c-0.165,0-0.326-0.082-0.422-0.231c-0.148-0.233-0.08-0.542,0.153-0.69l0.551-0.355 C56.202,35.843,59.052,34,63.271,34c3.288,0,5.478,1.464,7.408,2.755c0.371,0.248,0.739,0.494,1.111,0.728 c0.233,0.147,0.304,0.456,0.156,0.689c-0.146,0.235-0.455,0.303-0.689,0.157c-0.379-0.239-0.755-0.49-1.134-0.744 C68.223,36.315,66.256,35,63.271,35c-3.924,0-6.636,1.754-8.815,3.164l-0.557,0.358C53.816,38.575,53.724,38.601,53.631,38.601z"/><path fill="#472b29" d="M47.064,38.819c-0.099,0-0.198-0.029-0.286-0.09c-0.31-0.216-0.621-0.449-0.943-0.692 c-0.609-0.458-1.239-0.931-1.975-1.369c-0.237-0.141-0.315-0.448-0.174-0.685c0.142-0.238,0.449-0.314,0.686-0.174 c0.781,0.466,1.434,0.955,2.063,1.428c0.313,0.235,0.614,0.461,0.915,0.67c0.227,0.158,0.282,0.469,0.124,0.696 C47.378,38.744,47.222,38.819,47.064,38.819z"/><path fill="#472b29" d="M27.247,39.518c-0.153,0-0.305-0.07-0.402-0.203c-0.164-0.222-0.117-0.535,0.105-0.699 c0.412-0.304,0.817-0.636,1.235-0.979C30.267,35.932,32.625,34,37.271,34c1.618,0,3.047,0.195,4.368,0.595 c0.264,0.08,0.413,0.359,0.333,0.624c-0.079,0.264-0.355,0.415-0.624,0.333C40.123,35.181,38.79,35,37.271,35 c-4.289,0-6.501,1.812-8.452,3.411c-0.432,0.353-0.851,0.696-1.275,1.01C27.455,39.486,27.351,39.518,27.247,39.518z"/><path fill="#00a5a5" d="M75,49.3c-4.05,0-6.152-2.019-7.842-3.641c-1.569-1.507-2.56-2.359-4.657-2.359 c-2.096,0-3.085,0.852-4.654,2.359c-1.688,1.622-3.79,3.641-7.84,3.641c-4.051,0-6.154-2.019-7.844-3.64 c-1.571-1.507-2.562-2.36-4.66-2.36c-2.098,0-3.088,0.853-4.658,2.359C31.154,47.281,29.051,49.3,25,49.3 c-1.269,0-2.3-1.032-2.3-2.3s1.031-2.3,2.3-2.3c2.099,0,3.089-0.853,4.659-2.359c1.69-1.622,3.794-3.641,7.844-3.641 c4.051,0,6.154,2.019,7.844,3.64c1.571,1.507,2.562,2.36,4.66,2.36c2.096,0,3.085-0.852,4.654-2.359 c1.688-1.622,3.79-3.641,7.84-3.641s6.153,2.019,7.843,3.641C71.913,43.848,72.902,44.7,75,44.7c1.269,0,2.3,1.032,2.3,2.3 S76.269,49.3,75,49.3z"/><path fill="#472b29" d="M62.501,39.4c3.768,0,5.759,1.91,7.358,3.445C71.507,44.429,72.638,45.4,75,45.4 c0.882,0,1.6,0.718,1.6,1.6s-0.718,1.6-1.6,1.6c-3.769,0-5.758-1.911-7.357-3.446c-1.65-1.584-2.781-2.554-5.142-2.554 c-2.36,0-3.49,0.97-5.139,2.554c-1.598,1.536-3.587,3.446-7.355,3.446c-3.77,0-5.76-1.911-7.36-3.446 c-1.65-1.583-2.782-2.554-5.144-2.554c-2.361,0-3.492,0.97-5.143,2.554C30.76,46.689,28.77,48.6,25,48.6 c-0.882,0-1.6-0.718-1.6-1.6s0.718-1.6,1.6-1.6c2.362,0,3.494-0.971,5.144-2.555c1.599-1.535,3.59-3.445,7.358-3.445 c3.77,0,5.76,1.911,7.36,3.446c1.65,1.583,2.782,2.554,5.144,2.554c2.36,0,3.49-0.97,5.139-2.554 C56.744,41.311,58.733,39.4,62.501,39.4 M62.501,38c-4.331,0-6.64,2.217-8.325,3.836C52.654,43.298,51.842,44,50.007,44 c-1.838,0-2.651-0.703-4.175-2.165C44.146,40.217,41.836,38,37.503,38c-4.332,0-6.642,2.217-8.328,3.835 C27.651,43.297,26.838,44,25,44c-1.657,0-3,1.343-3,3s1.343,3,3,3c4.333,0,6.643-2.217,8.329-3.836 C34.853,44.703,35.666,44,37.503,44c1.838,0,2.651,0.703,4.175,2.165C43.364,47.783,45.674,50,50.007,50 c4.331,0,6.64-2.217,8.325-3.836C59.854,44.702,60.666,44,62.501,44c1.837,0,2.65,0.703,4.173,2.164 C68.359,47.783,70.669,50,75,50c1.657,0,3-1.343,3-3s-1.343-3-3-3c-1.836,0-2.649-0.702-4.171-2.164 C69.143,40.217,66.833,38,62.501,38L62.501,38z"/><g><path fill="#00a5a5" d="M75,68.3c-4.05,0-6.152-2.019-7.842-3.641c-1.569-1.507-2.56-2.359-4.657-2.359 c-2.096,0-3.085,0.852-4.654,2.359c-1.688,1.622-3.79,3.641-7.84,3.641c-4.051,0-6.154-2.019-7.844-3.64 c-1.571-1.507-2.562-2.36-4.66-2.36c-2.098,0-3.088,0.853-4.658,2.359C31.154,66.281,29.051,68.3,25,68.3 c-1.269,0-2.3-1.032-2.3-2.3s1.031-2.3,2.3-2.3c2.099,0,3.089-0.853,4.659-2.359c1.69-1.622,3.794-3.641,7.844-3.641 c4.051,0,6.154,2.019,7.844,3.64c1.571,1.507,2.562,2.36,4.66,2.36c2.096,0,3.085-0.852,4.654-2.359 c1.688-1.622,3.79-3.641,7.84-3.641s6.153,2.019,7.843,3.641C71.913,62.848,72.902,63.7,75,63.7c1.269,0,2.3,1.032,2.3,2.3 S76.269,68.3,75,68.3z"/><path fill="#472b29" d="M62.501,58.4c3.768,0,5.759,1.91,7.358,3.445C71.507,63.429,72.638,64.4,75,64.4 c0.882,0,1.6,0.718,1.6,1.6s-0.718,1.6-1.6,1.6c-3.769,0-5.758-1.911-7.357-3.446c-1.65-1.584-2.781-2.554-5.142-2.554 c-2.36,0-3.49,0.97-5.139,2.554c-1.598,1.536-3.587,3.446-7.355,3.446c-3.77,0-5.76-1.911-7.36-3.446 c-1.65-1.583-2.782-2.554-5.144-2.554c-2.361,0-3.492,0.97-5.143,2.554C30.76,65.689,28.77,67.6,25,67.6 c-0.882,0-1.6-0.718-1.6-1.6s0.718-1.6,1.6-1.6c2.362,0,3.494-0.971,5.144-2.555c1.599-1.535,3.59-3.445,7.358-3.445 c3.77,0,5.76,1.911,7.36,3.446c1.65,1.583,2.782,2.554,5.144,2.554c2.36,0,3.49-0.97,5.139-2.554 C56.744,60.311,58.733,58.4,62.501,58.4 M62.501,57c-4.331,0-6.64,2.217-8.325,3.836C52.654,62.298,51.842,63,50.007,63 c-1.838,0-2.651-0.703-4.175-2.165C44.146,59.217,41.836,57,37.503,57c-4.332,0-6.642,2.217-8.328,3.835 C27.651,62.297,26.838,63,25,63c-1.657,0-3,1.343-3,3s1.343,3,3,3c4.333,0,6.643-2.217,8.329-3.836 C34.853,63.703,35.666,63,37.503,63c1.838,0,2.651,0.703,4.175,2.165C43.364,66.783,45.674,69,50.007,69 c4.331,0,6.64-2.217,8.325-3.836C59.854,63.702,60.666,63,62.501,63c1.837,0,2.65,0.703,4.173,2.164 C68.359,66.783,70.669,69,75,69c1.657,0,3-1.343,3-3s-1.343-3-3-3c-1.836,0-2.649-0.702-4.171-2.164 C69.143,59.217,66.833,57,62.501,57L62.501,57z"/></g></g><g><path fill="#fdfcef" d="M58.375,82.5c0,0-1.567,0-3.5,0s-3.5-1.567-3.5-3.5c0-1.781,1.335-3.234,3.055-3.455 c-0.028-0.179-0.055-0.358-0.055-0.545c0-1.933,1.567-3.5,3.5-3.5c1.032,0,1.95,0.455,2.59,1.165 c0.384-1.808,1.987-3.165,3.91-3.165c2.209,0,4,1.791,4,4c0,0.191-0.03,0.374-0.056,0.558c0.428-0.344,0.965-0.558,1.556-0.558 c1.228,0,2.245,0.887,2.455,2.055c0.179-0.028,0.358-0.055,0.545-0.055c1.933,0,3.5,1.567,3.5,3.5s-1.567,3.5-3.5,3.5 s-7.5,0-7.5,0V83h-7V82.5z"/><path fill="#472b29" d="M56.625,78c0.138,0,0.25-0.112,0.25-0.25c0-1.223-0.995-2.218-2.218-2.218 c-0.034,0.009-0.737-0.001-1.244,0.136c-0.133,0.036-0.212,0.173-0.176,0.306c0.036,0.134,0.173,0.213,0.306,0.176 c0.444-0.12,1.1-0.12,1.113-0.118c0.948,0,1.719,0.771,1.719,1.718C56.375,77.888,56.487,78,56.625,78z"/><circle cx="63.375" cy="82.5" r=".5" fill="#472b29"/><path fill="#472b29" d="M54.875,83h3.5c0.276,0,0.5-0.224,0.5-0.5s-0.224-0.5-0.5-0.5h-3.5c-1.654,0-3-1.346-3-3 c0-1.496,1.125-2.768,2.618-2.959c0.134-0.018,0.255-0.088,0.336-0.196s0.115-0.244,0.094-0.377 C54.9,75.314,54.875,75.16,54.875,75c0-1.654,1.346-3,3-3c0.85,0,1.638,0.355,2.219,1c0.125,0.139,0.321,0.198,0.5,0.148 c0.182-0.049,0.321-0.195,0.36-0.379C61.295,71.165,62.734,70,64.375,70c1.93,0,3.5,1.57,3.5,3.5c0,0.143-0.021,0.28-0.041,0.418 c-0.029,0.203,0.063,0.438,0.242,0.54c0.179,0.102,0.396,0.118,0.556-0.01C68.997,74.155,69.426,74,69.875,74 c0.966,0,1.792,0.691,1.963,1.644c0.048,0.267,0.296,0.446,0.569,0.405C72.561,76.025,72.715,76,72.875,76c1.654,0,3,1.346,3,3 s-1.346,3-3,3h-7.5c-0.276,0-0.5,0.224-0.5,0.5s0.224,0.5,0.5,0.5h7.5c2.206,0,4-1.794,4-4s-1.794-4-4-4 c-0.059,0-0.116,0.002-0.174,0.006C72.287,73.82,71.164,73,69.875,73c-0.349,0-0.689,0.061-1.011,0.18 C68.699,70.847,66.749,69,64.375,69c-1.831,0-3.466,1.127-4.153,2.774C59.542,71.276,58.72,71,57.875,71c-2.206,0-4,1.794-4,4 c0,0.048,0.001,0.095,0.004,0.142c-1.743,0.448-3.004,2.027-3.004,3.858C50.875,81.206,52.669,83,54.875,83z"/><path fill="#472b29" d="M60.375,82c0.159,0,0.841,0,1,0c0.276,0,0.5,0.224,0.5,0.5c0,0.276-0.224,0.5-0.5,0.5 c-0.159,0-0.841,0-1,0c-0.276,0-0.5-0.224-0.5-0.5C59.875,82.224,60.099,82,60.375,82z"/></g></svg>