<svg xmlns="http://www.w3.org/2000/svg"  viewBox="0 0 100 100" width="100px" height="100px"><path fill="#c7ede6" d="M87.215,56.71C88.35,54.555,89,52.105,89,49.5c0-6.621-4.159-12.257-10.001-14.478 C78.999,35.015,79,35.008,79,35c0-11.598-9.402-21-21-21c-9.784,0-17.981,6.701-20.313,15.757C36.211,29.272,34.638,29,33,29 c-7.692,0-14.023,5.793-14.89,13.252C12.906,43.353,9,47.969,9,53.5C9,59.851,14.149,65,20.5,65c0.177,0,0.352-0.012,0.526-0.022 C21.022,65.153,21,65.324,21,65.5C21,76.822,30.178,86,41.5,86c6.437,0,12.175-2.972,15.934-7.614C59.612,80.611,62.64,82,66,82 c4.65,0,8.674-2.65,10.666-6.518C77.718,75.817,78.837,76,80,76c6.075,0,11-4.925,11-11C91,61.689,89.53,58.727,87.215,56.71z"/><path fill="#fff" d="M77.5,37h-10c-0.276,0-0.5-0.224-0.5-0.5s0.224-0.5,0.5-0.5h10c0.276,0,0.5,0.224,0.5,0.5 S77.777,37,77.5,37z"/><path fill="#fff" d="M80.5,37h-1c-0.276,0-0.5-0.224-0.5-0.5s0.224-0.5,0.5-0.5h1c0.276,0,0.5,0.224,0.5,0.5 S80.777,37,80.5,37z"/><path fill="#fff" d="M85.491,39H76.5c-0.276,0-0.5-0.224-0.5-0.5s0.224-0.5,0.5-0.5h8.991c0.276,0,0.5,0.224,0.5,0.5 S85.767,39,85.491,39z"/><path fill="#fff" d="M74.5,39h-1c-0.276,0-0.5-0.224-0.5-0.5s0.224-0.5,0.5-0.5h1c0.276,0,0.5,0.224,0.5,0.5 S74.777,39,74.5,39z"/><path fill="#fff" d="M71.5,39h-2c-0.276,0-0.5-0.224-0.5-0.5s0.224-0.5,0.5-0.5h2c0.276,0,0.5,0.224,0.5,0.5 S71.777,39,71.5,39z"/><path fill="#fff" d="M77.5,41h-2c-0.276,0-0.5-0.224-0.5-0.5s0.224-0.5,0.5-0.5h2c0.276,0,0.5,0.224,0.5,0.5 S77.776,41,77.5,41z"/><path fill="#fff" d="M80.5,32c-0.177,0-0.823,0-1,0c-0.276,0-0.5,0.224-0.5,0.5c0,0.276,0.224,0.5,0.5,0.5 c0.177,0,0.823,0,1,0c0.276,0,0.5-0.224,0.5-0.5C81,32.224,80.776,32,80.5,32z"/><path fill="#fff" d="M80.5,34c-0.177,0-4.823,0-5,0c-0.276,0-0.5,0.224-0.5,0.5c0,0.276,0.224,0.5,0.5,0.5 c0.177,0,4.823,0,5,0c0.276,0,0.5-0.224,0.5-0.5C81,34.224,80.776,34,80.5,34z"/><path fill="#fff" d="M85.5,36c-0.177,0-2.823,0-3,0c-0.276,0-0.5,0.224-0.5,0.5c0,0.276,0.224,0.5,0.5,0.5 c0.177,0,2.823,0,3,0c0.276,0,0.5-0.224,0.5-0.5C86,36.224,85.776,36,85.5,36z"/><g><path fill="#fff" d="M16.5,52h-10C6.224,52,6,51.776,6,51.5S6.224,51,6.5,51h10c0.276,0,0.5,0.224,0.5,0.5 S16.776,52,16.5,52z"/><path fill="#fff" d="M20.5,52h-2c-0.276,0-0.5-0.224-0.5-0.5s0.224-0.5,0.5-0.5h2c0.276,0,0.5,0.224,0.5,0.5 S20.776,52,20.5,52z"/><path fill="#fff" d="M25.5,54h-10c-0.276,0-0.5-0.224-0.5-0.5s0.224-0.5,0.5-0.5h10c0.276,0,0.5,0.224,0.5,0.5 S25.777,54,25.5,54z"/><path fill="#fff" d="M13.5,54h-1c-0.276,0-0.5-0.224-0.5-0.5s0.224-0.5,0.5-0.5h1c0.276,0,0.5,0.224,0.5,0.5 S13.776,54,13.5,54z"/><path fill="#fff" d="M10.47,54H8.5C8.224,54,8,53.776,8,53.5S8.224,53,8.5,53h1.97c0.276,0,0.5,0.224,0.5,0.5 S10.746,54,10.47,54z"/><path fill="#fff" d="M19.5,50h-5c-0.276,0-0.5-0.224-0.5-0.5s0.224-0.5,0.5-0.5h5c0.276,0,0.5,0.224,0.5,0.5 S19.777,50,19.5,50z"/><path fill="#fff" d="M16.5,56h-2c-0.276,0-0.5-0.224-0.5-0.5s0.224-0.5,0.5-0.5h2c0.276,0,0.5,0.224,0.5,0.5 S16.776,56,16.5,56z"/></g><g><path fill="#fdfcef" d="M55.25,31.5V32h-3v-0.5c0,0-4.242,0-5.5,0c-2.485,0-4.5-2.015-4.5-4.5 c0-2.333,1.782-4.229,4.055-4.455C46.283,22.364,46.25,22.187,46.25,22c0-2.485,2.015-4.5,4.5-4.5 c1.438,0,2.703,0.686,3.527,1.736c0.14-2.636,2.302-4.736,4.973-4.736c2.761,0,5,2.239,5,5c0,0.446-0.077,0.87-0.187,1.282 c0.642-0.777,1.6-1.282,2.687-1.282c1.781,0,3.234,1.335,3.455,3.055c0.181-0.022,0.358-0.055,0.545-0.055 c2.485,0,4.5,2.015,4.5,4.5s-2.015,4.5-4.5,4.5s-9.5,0-9.5,0H55.25z"/><path fill="#472b29" d="M59.25,14c3.033,0,5.5,2.467,5.5,5.5c0,0.016,0,0.031,0,0.047c0.602-0.354,1.29-0.547,2-0.547 c1.831,0,3.411,1.261,3.858,3.005C70.655,22.002,70.702,22,70.75,22c2.757,0,5,2.243,5,5s-2.243,5-5,5h-15.5 c-0.276,0-0.5-0.224-0.5-0.5s0.224-0.5,0.5-0.5h15.5c2.206,0,4-1.794,4-4s-1.794-4-4-4c-0.117,0-0.23,0.017-0.343,0.032 l-0.141,0.019c-0.021,0.003-0.041,0.004-0.062,0.004c-0.246,0-0.462-0.185-0.495-0.437C69.518,21.125,68.246,20,66.75,20 c-0.885,0-1.723,0.401-2.301,1.1c-0.098,0.118-0.241,0.182-0.386,0.182c-0.078,0-0.156-0.018-0.228-0.056 c-0.209-0.107-0.314-0.346-0.254-0.573c0.116-0.436,0.17-0.802,0.17-1.153c0-2.481-2.019-4.5-4.5-4.5 c-2.381,0-4.347,1.872-4.474,4.263c-0.011,0.208-0.15,0.387-0.349,0.45c-0.05,0.016-0.101,0.024-0.152,0.024 c-0.15,0-0.296-0.069-0.392-0.192C53.112,18.563,51.971,18,50.75,18c-2.206,0-4,1.794-4,4c0,0.117,0.017,0.23,0.032,0.343 l0.019,0.141c0.016,0.134-0.022,0.268-0.106,0.373c-0.084,0.105-0.207,0.172-0.34,0.185C44.299,23.247,42.75,24.949,42.75,27 c0,2.206,1.794,4,4,4h5.5c0.276,0,0.5,0.224,0.5,0.5s-0.224,0.5-0.5,0.5h-5.5c-2.757,0-5-2.243-5-5 c0-2.397,1.689-4.413,4.003-4.877C45.751,22.082,45.75,22.041,45.75,22c0-2.757,2.243-5,5-5c1.176,0,2.293,0.416,3.183,1.164 C54.531,15.76,56.695,14,59.25,14L59.25,14z"/><path fill="#472b29" d="M60.75,21c1.403,0,2.609,0.999,2.913,2.341C64.03,23.119,64.449,23,64.875,23 c1.202,0,2.198,0.897,2.353,2.068C67.431,25.022,67.624,25,67.813,25c1.529,0,2.811,1.2,2.918,2.732 C70.74,27.87,70.636,27.99,70.499,28c-0.006,0-0.012,0-0.018,0c-0.13,0-0.24-0.101-0.249-0.232 c-0.089-1.271-1.151-2.268-2.419-2.268c-0.229,0-0.47,0.042-0.738,0.127c-0.022,0.007-0.045,0.01-0.067,0.01 c-0.055,0-0.11-0.02-0.156-0.054c-0.064-0.047-0.102-0.129-0.102-0.209c0-1.034-0.841-1.875-1.875-1.875 c-0.447,0-0.885,0.168-1.231,0.473c-0.047,0.041-0.106,0.063-0.165,0.063c-0.032,0-0.063-0.006-0.093-0.019 c-0.088-0.035-0.148-0.117-0.155-0.212c-0.102-1.292-1.191-2.305-2.479-2.305c-0.208,0-0.425,0.034-0.682,0.107 c-0.023,0.007-0.047,0.01-0.07,0.01c-0.109,0-0.207-0.073-0.239-0.182c-0.038-0.133,0.039-0.271,0.172-0.309 C60.233,21.04,60.494,21,60.75,21L60.75,21z"/><path fill="#472b29" d="M46.867,22.5c1.326,0,2.508,0.897,2.874,2.182c0.038,0.133-0.039,0.271-0.172,0.309 C49.545,24.997,49.522,25,49.5,25c-0.109,0-0.209-0.072-0.24-0.182C48.955,23.748,47.971,23,46.867,23 c-0.117,0-0.23,0.014-0.342,0.029c-0.012,0.002-0.023,0.003-0.035,0.003c-0.121,0-0.229-0.092-0.246-0.217 c-0.019-0.137,0.077-0.263,0.214-0.281C46.592,22.516,46.728,22.5,46.867,22.5L46.867,22.5z"/></g><g><path fill="#fdfcef" d="M36.375,81.5c0,0,1.567,0,3.5,0s3.5-1.567,3.5-3.5c0-1.781-1.335-3.234-3.055-3.455 c0.028-0.179,0.055-0.358,0.055-0.545c0-1.933-1.567-3.5-3.5-3.5c-1.032,0-1.95,0.455-2.59,1.165 c-0.384-1.808-1.987-3.165-3.91-3.165c-2.209,0-4,1.791-4,4c0,0.191,0.03,0.374,0.056,0.558c-0.428-0.344-0.965-0.558-1.556-0.558 c-1.228,0-2.245,0.887-2.455,2.055c-0.179-0.028-0.358-0.055-0.545-0.055c-1.933,0-3.5,1.567-3.5,3.5s1.567,3.5,3.5,3.5 s7.5,0,7.5,0V82h7V81.5z"/><path fill="#472b29" d="M38.125,77c-0.138,0-0.25-0.112-0.25-0.25c0-1.223,0.995-2.218,2.218-2.218 c0.034,0.009,0.737-0.001,1.244,0.136c0.133,0.036,0.212,0.173,0.176,0.306c-0.036,0.134-0.173,0.213-0.306,0.176 c-0.444-0.12-1.1-0.12-1.113-0.118c-0.948,0-1.719,0.771-1.719,1.718C38.375,76.888,38.263,77,38.125,77z"/><circle cx="31.375" cy="81.5" r=".5" fill="#472b29"/><path fill="#472b29" d="M39.875,82h-3.5c-0.276,0-0.5-0.224-0.5-0.5s0.224-0.5,0.5-0.5h3.5c1.654,0,3-1.346,3-3 c0-1.496-1.125-2.768-2.618-2.959c-0.134-0.018-0.255-0.088-0.336-0.196s-0.115-0.244-0.094-0.377 c0.024-0.153,0.049-0.308,0.049-0.468c0-1.654-1.346-3-3-3c-0.85,0-1.638,0.355-2.219,1c-0.125,0.139-0.321,0.198-0.5,0.148 c-0.182-0.049-0.321-0.195-0.36-0.379C33.455,70.165,32.016,69,30.375,69c-1.93,0-3.5,1.57-3.5,3.5 c0,0.143,0.021,0.28,0.041,0.418c0.029,0.203-0.063,0.438-0.242,0.54c-0.179,0.102-0.396,0.118-0.556-0.01 C25.753,73.155,25.324,73,24.875,73c-0.966,0-1.792,0.691-1.963,1.644c-0.048,0.267-0.296,0.446-0.569,0.405 C22.189,75.025,22.035,75,21.875,75c-1.654,0-3,1.346-3,3s1.346,3,3,3h7.5c0.276,0,0.5,0.224,0.5,0.5s-0.224,0.5-0.5,0.5h-7.5 c-2.206,0-4-1.794-4-4s1.794-4,4-4c0.059,0,0.116,0.002,0.174,0.006C22.463,72.82,23.586,72,24.875,72 c0.349,0,0.689,0.061,1.011,0.18c0.165-2.333,2.115-4.18,4.489-4.18c1.831,0,3.466,1.127,4.153,2.774 C35.208,70.276,36.03,70,36.875,70c2.206,0,4,1.794,4,4c0,0.048-0.001,0.095-0.004,0.142c1.743,0.448,3.004,2.027,3.004,3.858 C43.875,80.206,42.081,82,39.875,82z"/><path fill="#472b29" d="M34.375,81c-0.159,0-0.841,0-1,0c-0.276,0-0.5,0.224-0.5,0.5c0,0.276,0.224,0.5,0.5,0.5 c0.159,0,0.841,0,1,0c0.276,0,0.5-0.224,0.5-0.5C34.875,81.224,34.651,81,34.375,81z"/></g><g><path fill="#00a5a5" d="M51,75.3c-0.734,0-1.43-0.355-1.862-0.95c-0.44-0.606-0.554-1.385-0.31-2.135 c0.29-0.892,1.205-1.515,2.225-1.515h2.633c1.96,0,4.489-1.321,5.883-3.073c0.314-0.393,0.26-0.966-0.126-1.302 c-2.379-2.068-3.742-5.031-3.742-8.128v-17.79c0-4.521-3.679-8.2-8.2-8.2c-0.622,0-1.251,0.07-1.872,0.209 c-3.667,0.819-6.329,4.26-6.329,8.182V63c0,1.268-1.032,2.3-2.3,2.3c-0.259,0-0.523-0.043-0.785-0.128 c-0.892-0.29-1.515-1.205-1.515-2.225V37.704c0-2.723-2.275-5.034-4.417-5.825c-0.727-0.269-1.266-0.882-1.442-1.638 c-0.181-0.777,0.056-1.582,0.648-2.207c0.38-0.401,0.94-0.631,1.536-0.631c0.272,0,0.538,0.047,0.792,0.139 c2.109,0.766,3.945,2.129,5.31,3.942l0.21,0.279l0.397,0.024h0.295l0.25-0.23c2.448-2.548,5.721-3.949,9.221-3.949 c0.799,0,1.611,0.075,2.414,0.223C55.932,28.938,60.3,34.352,60.3,40.702V54c-0.005,0.115-0.122,3.418,0.026,4.835 c0.042,0.406,0.382,0.714,0.791,0.714c0.363,0,0.684-0.245,0.779-0.597C63.77,52.132,67.881,50.7,71,50.7 c4.094,0,7.3,3.431,7.3,7.811c0,5.53-5.463,10.567-11.461,10.567c-0.681,0-1.365-0.061-2.034-0.182l-0.062-0.011l-0.479-0.001 l-0.252,0.383c-1.967,3.44-6.405,6.034-10.326,6.034H51z M71,55.3c-1.6,0-3.585,0.59-4.753,5.194l-0.683,3.353l0.199,0.303 c0.131,0.176,0.331,0.287,0.549,0.306c0.241,0.021,0.476,0.031,0.704,0.031c4.36,0,6.684-3.47,6.684-5.976 C73.7,56.932,72.69,55.3,71,55.3z"/><path fill="#472b29" d="M31.025,28.103L31.025,28.103c0.19,0,0.377,0.033,0.553,0.097c1.981,0.72,3.707,2,4.99,3.704 c0.275,0.365,0.711,0.583,1.166,0.583l0.64-0.019l0.413-0.43c2.312-2.406,5.406-3.73,8.713-3.73c0.757,0,1.527,0.071,2.287,0.211 c5.686,1.047,9.813,6.171,9.813,12.184v13.272c-0.012,0.345-0.119,3.519,0.03,4.934c0.08,0.764,0.72,1.34,1.487,1.34 c0.677,0,1.275-0.457,1.454-1.111C63.982,54.003,66.818,51.4,71,51.4c3.701,0,6.6,3.124,6.6,7.111 c0,5.164-5.129,9.867-10.761,9.867c-0.639,0-1.281-0.058-1.917-0.173l-0.13-0.021H64.67c-0.525,0-1.012,0.284-1.267,0.735 c-1.851,3.239-6.029,5.682-9.718,5.682H51c-0.518,0-0.991-0.241-1.296-0.662c-0.181-0.249-0.448-0.775-0.21-1.507 c0.197-0.607,0.838-1.032,1.559-1.032h2.633c2.479,0,5.112-1.679,6.432-3.338c0.547-0.689,0.451-1.685-0.217-2.266 c-2.225-1.935-3.501-4.704-3.501-7.599V54V40.407c0-4.907-3.992-8.9-8.9-8.9c-0.673,0-1.354,0.076-2.024,0.226 c-3.984,0.89-6.876,4.619-6.876,8.865V49v14c0,0.882-0.718,1.6-1.6,1.6c-0.186,0-0.377-0.032-0.568-0.094 c-0.607-0.197-1.031-0.838-1.031-1.559V49v-8.593v-2.703c0-3.072-2.452-5.586-4.873-6.482c-0.506-0.187-0.881-0.614-1.004-1.141 c-0.074-0.319-0.112-0.948,0.475-1.566C30.246,28.253,30.621,28.103,31.025,28.103 M67.016,65.187 c4.818,0,7.384-3.877,7.384-6.676c0-1.922-1.272-3.911-3.4-3.911c-1.708,0-4.13,0.593-5.431,5.722l-0.008,0.032l-0.007,0.033 l-0.613,3.012c-0.083,0.408,0.012,0.834,0.262,1.169c0.25,0.335,0.632,0.549,1.052,0.586 C66.514,65.176,66.768,65.187,67.016,65.187 M31.025,26.703c-0.761,0-1.51,0.287-2.043,0.849 c-1.642,1.731-0.889,4.262,1.059,4.983C31.96,33.245,34,35.298,34,37.704v2.703V49v13.947c0,1.285,0.777,2.494,1.999,2.891 C36.339,65.948,36.676,66,37,66c1.657,0,3-1.343,3-3V49v-8.402c0-3.522,2.344-6.73,5.781-7.499 c0.583-0.13,1.158-0.192,1.719-0.192c4.136,0,7.5,3.365,7.5,7.5V54v4.197c0,3.439,1.541,6.533,3.982,8.656 c0.1,0.087,0.121,0.235,0.039,0.339C57.827,68.692,55.519,70,53.686,70h-2.633c-1.285,0-2.494,0.777-2.891,1.999 C47.486,74.08,49.019,76,51,76h2.686c3.906,0,8.72-2.514,10.933-6.387c0.011-0.019,0.03-0.03,0.051-0.03 c0.004,0,0.007,0,0.011,0.001c0.7,0.126,1.421,0.193,2.158,0.193c6.364,0,12.161-5.37,12.161-11.267C79,53.738,75.486,50,71,50 c-3.386,0-7.793,1.538-9.778,8.768c-0.015,0.054-0.061,0.082-0.104,0.082c-0.045,0-0.089-0.029-0.095-0.087 C60.876,57.378,61,54,61,54V40.702c0-6.538-4.529-12.376-10.959-13.561c-0.86-0.159-1.71-0.234-2.541-0.234 c-3.819,0-7.264,1.602-9.722,4.16c-0.012,0.013-0.028,0.019-0.043,0.019c-0.018,0-0.036-0.008-0.048-0.024 c-1.396-1.854-3.344-3.348-5.63-4.178C31.723,26.762,31.373,26.703,31.025,26.703L31.025,26.703z M67.016,63.787 c-0.209,0-0.423-0.009-0.642-0.028c-0.039-0.003-0.069-0.042-0.061-0.08l0.613-3.013C68.109,56,70.061,56,71,56 c1.252,0,2,1.276,2,2.511C73,60.745,70.849,63.787,67.016,63.787L67.016,63.787z"/><path fill="#472b29" d="M43.061,48.989c-0.276,0-0.5-0.224-0.5-0.5V42.5c0-1.013,0-4.097,1.799-5.861 c0.899-0.881,2.121-1.314,3.594-1.283c0.276,0.006,0.496,0.234,0.49,0.51s-0.225,0.486-0.51,0.49 c-1.212-0.028-2.175,0.311-2.874,0.997c-1.5,1.47-1.5,4.237-1.5,5.147v5.989C43.561,48.765,43.337,48.989,43.061,48.989z"/><path fill="#472b29" d="M43.061,54.271c-0.276,0-0.5-0.224-0.5-0.5v-2.665c0-0.276,0.224-0.5,0.5-0.5s0.5,0.224,0.5,0.5 v2.665C43.561,54.047,43.337,54.271,43.061,54.271z"/><path fill="#472b29" d="M43.061,63c-0.276,0-0.5-0.224-0.5-0.5v-5.617c0-0.276,0.224-0.5,0.5-0.5s0.5,0.224,0.5,0.5V62.5 C43.561,62.776,43.337,63,43.061,63z"/><path fill="#472b29" d="M79.5,51c-0.143,0-0.285-0.061-0.384-0.18c-2.584-3.1-5.819-3.788-8.079-3.819 c-0.276-0.004-0.497-0.231-0.493-0.507c0.004-0.276,0.185-0.509,0.507-0.493c2.469,0.034,6.006,0.786,8.833,4.179 c0.177,0.212,0.148,0.527-0.063,0.704C79.727,50.962,79.613,51,79.5,51z"/><g><path fill="#472b29" d="M64.5,49c-0.128,0-0.256-0.049-0.354-0.146c-0.195-0.195-0.195-0.512,0-0.707 c0.776-0.776,2.231-1.462,3.894-1.834c0.273-0.059,0.537,0.109,0.598,0.379c0.06,0.27-0.109,0.537-0.379,0.597 c-1.748,0.392-2.905,1.065-3.405,1.566C64.756,48.951,64.628,49,64.5,49z"/></g></g></svg>