<svg xmlns="http://www.w3.org/2000/svg"  viewBox="0 0 100 100" width="100px" height="100px"><path fill="#c7ede6" d="M87.215,56.71C88.35,54.555,89,52.105,89,49.5c0-6.621-4.159-12.257-10.001-14.478 C78.999,35.015,79,35.008,79,35c0-11.598-9.402-21-21-21c-9.784,0-17.981,6.701-20.313,15.757C36.211,29.272,34.638,29,33,29 c-7.692,0-14.023,5.793-14.89,13.252C12.906,43.353,9,47.969,9,53.5C9,59.851,14.149,65,20.5,65c0.177,0,0.352-0.012,0.526-0.022 C21.022,65.153,21,65.324,21,65.5C21,76.822,30.178,86,41.5,86c6.437,0,12.175-2.972,15.934-7.614C59.612,80.611,62.64,82,66,82 c4.65,0,8.674-2.65,10.666-6.518C77.718,75.817,78.837,76,80,76c6.075,0,11-4.925,11-11C91,61.689,89.53,58.727,87.215,56.71z"/><path fill="#fdfcef" d="M38.5,31.5V32h3v-0.5c0,0,4.242,0,5.5,0c2.485,0,4.5-2.015,4.5-4.5 c0-2.333-1.782-4.229-4.055-4.455C47.467,22.364,47.5,22.187,47.5,22c0-2.485-2.015-4.5-4.5-4.5c-1.438,0-2.703,0.686-3.527,1.736 C39.333,16.6,37.171,14.5,34.5,14.5c-2.761,0-5,2.239-5,5c0,0.446,0.077,0.87,0.187,1.282C29.045,20.005,28.086,19.5,27,19.5 c-1.781,0-3.234,1.335-3.455,3.055C23.364,22.533,23.187,22.5,23,22.5c-2.485,0-4.5,2.015-4.5,4.5s2.015,4.5,4.5,4.5s9.5,0,9.5,0 H38.5z"/><path fill="#472b29" d="M34.5,14c-3.033,0-5.5,2.467-5.5,5.5c0,0.016,0,0.031,0,0.047C28.398,19.192,27.71,19,27,19 c-1.831,0-3.411,1.261-3.858,3.005C23.095,22.002,23.048,22,23,22c-2.757,0-5,2.243-5,5s2.243,5,5,5h15.5 c0.276,0,0.5-0.224,0.5-0.5S38.776,31,38.5,31H23c-2.206,0-4-1.794-4-4s1.794-4,4-4c0.117,0,0.23,0.017,0.343,0.032l0.141,0.019 c0.021,0.003,0.041,0.004,0.062,0.004c0.246,0,0.462-0.185,0.495-0.437C24.232,21.125,25.504,20,27,20 c0.885,0,1.723,0.401,2.301,1.1c0.098,0.118,0.241,0.182,0.386,0.182c0.078,0,0.156-0.018,0.228-0.056 c0.209-0.107,0.314-0.346,0.254-0.573C30.054,20.218,30,19.852,30,19.5c0-2.481,2.019-4.5,4.5-4.5 c2.381,0,4.347,1.872,4.474,4.263c0.011,0.208,0.15,0.387,0.349,0.45c0.05,0.016,0.101,0.024,0.152,0.024 c0.15,0,0.296-0.069,0.392-0.192C40.638,18.563,41.779,18,43,18c2.206,0,4,1.794,4,4c0,0.117-0.017,0.23-0.032,0.343l-0.019,0.141 c-0.016,0.134,0.022,0.268,0.106,0.373c0.084,0.105,0.207,0.172,0.34,0.185C49.451,23.247,51,24.949,51,27c0,2.206-1.794,4-4,4 h-5.5c-0.276,0-0.5,0.224-0.5,0.5s0.224,0.5,0.5,0.5H47c2.757,0,5-2.243,5-5c0-2.397-1.689-4.413-4.003-4.877 C47.999,22.082,48,22.041,48,22c0-2.757-2.243-5-5-5c-1.176,0-2.293,0.416-3.183,1.164C39.219,15.76,37.055,14,34.5,14L34.5,14z"/><path fill="#472b29" d="M33,21c-1.403,0-2.609,0.999-2.913,2.341C29.72,23.119,29.301,23,28.875,23 c-1.202,0-2.198,0.897-2.353,2.068C26.319,25.022,26.126,25,25.937,25c-1.529,0-2.811,1.2-2.918,2.732 C23.01,27.87,23.114,27.99,23.251,28c0.006,0,0.012,0,0.018,0c0.13,0,0.24-0.101,0.249-0.232c0.089-1.271,1.151-2.268,2.419-2.268 c0.229,0,0.47,0.042,0.738,0.127c0.022,0.007,0.045,0.01,0.067,0.01c0.055,0,0.11-0.02,0.156-0.054 C26.962,25.537,27,25.455,27,25.375c0-1.034,0.841-1.875,1.875-1.875c0.447,0,0.885,0.168,1.231,0.473 c0.047,0.041,0.106,0.063,0.165,0.063c0.032,0,0.063-0.006,0.093-0.019c0.088-0.035,0.148-0.117,0.155-0.212 C30.623,22.512,31.712,21.5,33,21.5c0.208,0,0.425,0.034,0.682,0.107c0.023,0.007,0.047,0.01,0.07,0.01 c0.109,0,0.207-0.073,0.239-0.182c0.038-0.133-0.039-0.271-0.172-0.309C33.517,21.04,33.256,21,33,21L33,21z"/><path fill="#472b29" d="M46.883,22.5c-1.326,0-2.508,0.897-2.874,2.182c-0.038,0.133,0.039,0.271,0.172,0.309 C44.205,24.997,44.228,25,44.25,25c0.109,0,0.209-0.072,0.24-0.182C44.795,23.748,45.779,23,46.883,23 c0.117,0,0.23,0.014,0.342,0.029c0.012,0.002,0.023,0.003,0.035,0.003c0.121,0,0.229-0.092,0.246-0.217 c0.019-0.137-0.077-0.263-0.214-0.281C47.158,22.516,47.022,22.5,46.883,22.5L46.883,22.5z"/><path fill="#fff" d="M33.5,78h-10c-0.276,0-0.5-0.224-0.5-0.5s0.224-0.5,0.5-0.5h10c0.276,0,0.5,0.224,0.5,0.5 S33.777,78,33.5,78z"/><path fill="#fff" d="M36.5,78h-1c-0.276,0-0.5-0.224-0.5-0.5s0.224-0.5,0.5-0.5h1c0.276,0,0.5,0.224,0.5,0.5 S36.777,78,36.5,78z"/><path fill="#fff" d="M41.491,80H32.5c-0.276,0-0.5-0.224-0.5-0.5s0.224-0.5,0.5-0.5h8.991c0.276,0,0.5,0.224,0.5,0.5 S41.767,80,41.491,80z"/><path fill="#fff" d="M30.5,80h-1c-0.276,0-0.5-0.224-0.5-0.5s0.224-0.5,0.5-0.5h1c0.276,0,0.5,0.224,0.5,0.5 S30.777,80,30.5,80z"/><path fill="#fff" d="M27.5,80h-2c-0.276,0-0.5-0.224-0.5-0.5s0.224-0.5,0.5-0.5h2c0.276,0,0.5,0.224,0.5,0.5 S27.777,80,27.5,80z"/><path fill="#fff" d="M33.5,82h-2c-0.276,0-0.5-0.224-0.5-0.5s0.224-0.5,0.5-0.5h2c0.276,0,0.5,0.224,0.5,0.5 S33.776,82,33.5,82z"/><path fill="#fff" d="M36.5,73c-0.177,0-0.823,0-1,0c-0.276,0-0.5,0.224-0.5,0.5c0,0.276,0.224,0.5,0.5,0.5 c0.177,0,0.823,0,1,0c0.276,0,0.5-0.224,0.5-0.5C37,73.224,36.776,73,36.5,73z"/><path fill="#fff" d="M36.5,75c-0.177,0-4.823,0-5,0c-0.276,0-0.5,0.224-0.5,0.5c0,0.276,0.224,0.5,0.5,0.5 c0.177,0,4.823,0,5,0c0.276,0,0.5-0.224,0.5-0.5C37,75.224,36.776,75,36.5,75z"/><path fill="#fff" d="M41.5,77c-0.177,0-2.823,0-3,0c-0.276,0-0.5,0.224-0.5,0.5c0,0.276,0.224,0.5,0.5,0.5 c0.177,0,2.823,0,3,0c0.276,0,0.5-0.224,0.5-0.5C42,77.224,41.776,77,41.5,77z"/><g><path fill="#fff" d="M72.5,21h-10c-0.276,0-0.5-0.224-0.5-0.5s0.224-0.5,0.5-0.5h10c0.276,0,0.5,0.224,0.5,0.5 S72.776,21,72.5,21z"/><path fill="#fff" d="M76.5,21h-2c-0.276,0-0.5-0.224-0.5-0.5s0.224-0.5,0.5-0.5h2c0.276,0,0.5,0.224,0.5,0.5 S76.776,21,76.5,21z"/><path fill="#fff" d="M81.5,23h-10c-0.276,0-0.5-0.224-0.5-0.5s0.224-0.5,0.5-0.5h10c0.276,0,0.5,0.224,0.5,0.5 S81.777,23,81.5,23z"/><path fill="#fff" d="M69.5,23h-1c-0.276,0-0.5-0.224-0.5-0.5s0.224-0.5,0.5-0.5h1c0.276,0,0.5,0.224,0.5,0.5 S69.776,23,69.5,23z"/><path fill="#fff" d="M66.47,23H64.5c-0.276,0-0.5-0.224-0.5-0.5s0.224-0.5,0.5-0.5h1.97c0.276,0,0.5,0.224,0.5,0.5 S66.746,23,66.47,23z"/><path fill="#fff" d="M75.5,19h-5c-0.276,0-0.5-0.224-0.5-0.5s0.224-0.5,0.5-0.5h5c0.276,0,0.5,0.224,0.5,0.5 S75.777,19,75.5,19z"/><path fill="#fff" d="M72.5,25h-2c-0.276,0-0.5-0.224-0.5-0.5s0.224-0.5,0.5-0.5h2c0.276,0,0.5,0.224,0.5,0.5 S72.776,25,72.5,25z"/></g><g><path fill="#00a5a5" d="M28,68.3c-1.268,0-2.3-1.032-2.3-2.3s1.032-2.3,2.3-2.3h48c1.268,0,2.3,1.032,2.3,2.3 s-1.032,2.3-2.3,2.3H28z"/><path fill="#472b29" d="M76,64.4c0.882,0,1.6,0.718,1.6,1.6s-0.718,1.6-1.6,1.6H28c-0.882,0-1.6-0.718-1.6-1.6 s0.718-1.6,1.6-1.6H76 M76,63H28c-1.657,0-3,1.343-3,3s1.343,3,3,3h48c1.657,0,3-1.343,3-3S77.657,63,76,63L76,63z"/><path fill="#00a5a5" d="M43.365,57.258l-0.079,0.01C43.131,57.289,43.067,57.3,43,57.3H28c-1.268,0-2.3-1.032-2.3-2.3 s1.032-2.3,2.3-2.3h9.166l-0.777-1.103c-1.759-2.496-2.688-5.387-2.688-8.359C33.7,34.119,41.909,26.7,52,26.7 s18.3,7.419,18.3,16.538c0,2.818-1.01,5.706-2.92,8.352l-0.801,1.11H76c1.268,0,2.3,1.032,2.3,2.3s-1.032,2.3-2.3,2.3H61 c-0.037,0-0.072-0.007-0.107-0.012l-0.201-0.023l-0.08,0.01c-0.098,0.012-0.196,0.019-0.293,0.019 c-0.805,0-1.537-0.406-1.957-1.087c-0.323-0.522-0.422-1.139-0.281-1.737s0.507-1.105,1.03-1.427 c3.185-1.965,6.588-5.573,6.588-9.805C65.7,36.656,59.554,31.3,52,31.3s-13.7,5.355-13.7,11.938 c0,3.904,2.368,7.458,6.497,9.751c0.537,0.298,0.926,0.788,1.095,1.378s0.098,1.212-0.201,1.749 c-0.405,0.729-1.174,1.182-2.009,1.184C43.553,57.28,43.365,57.258,43.365,57.258z"/><path fill="#472b29" d="M52,27.4c9.705,0,17.6,7.105,17.6,15.838c0,2.67-0.964,5.416-2.788,7.942L65.209,53.4h2.738H76 c0.882,0,1.6,0.718,1.6,1.6s-0.718,1.6-1.6,1.6l-14.96,0.001l-0.052-0.007l-0.144-0.018l-0.16-0.017l-0.16,0.021 c-0.068,0.009-0.137,0.013-0.205,0.013c-0.561,0-1.069-0.282-1.361-0.754c-0.224-0.363-0.294-0.792-0.195-1.208 c0.099-0.416,0.353-0.768,0.717-0.993c3.346-2.064,6.921-5.881,6.921-10.4C66.4,36.27,59.94,30.6,52,30.6 S37.6,36.27,37.6,43.238c0,4.166,2.499,7.943,6.857,10.363c0.374,0.208,0.644,0.548,0.761,0.958 c0.117,0.411,0.068,0.843-0.14,1.217c-0.274,0.494-0.789,0.806-1.353,0.823c0,0-0.001,0-0.002,0 c-0.07-0.012-0.14-0.022-0.21-0.03l-0.158-0.016l-0.158,0.02l-0.1,0.014C43.063,56.592,43.027,56.598,43,56.6H28 c-0.882,0-1.6-0.718-1.6-1.6s0.718-1.6,1.6-1.6h7.816h2.699l-1.555-2.206c-1.675-2.377-2.561-5.128-2.561-7.956 C34.4,34.505,42.295,27.4,52,27.4 M52,26c-10.477,0-19,7.733-19,17.238c0,3.18,0.989,6.169,2.816,8.762H28c-1.657,0-3,1.343-3,3 s1.343,3,3,3h15c0.128,0,0.25-0.022,0.374-0.038C43.475,57.973,43.576,58,43.677,58c1.055,0,2.078-0.557,2.625-1.544 c0.805-1.449,0.283-3.275-1.166-4.079C41.237,50.211,39,46.88,39,43.238C39,37.041,44.832,32,52,32s13,5.041,13,11.238 c0,3.943-3.231,7.343-6.256,9.209c-1.41,0.87-1.848,2.718-0.978,4.128c0.567,0.918,1.548,1.419,2.552,1.419 c0.127,0,0.255-0.008,0.382-0.024C60.801,57.98,60.898,58,61,58h15c1.657,0,3-1.343,3-3s-1.343-3-3-3h-8.053 C69.902,49.293,71,46.247,71,43.238C71,33.733,62.477,26,52,26L52,26z"/><g><path fill="#472b29" d="M59.998,48.318c-0.105,0-0.212-0.033-0.303-0.103c-0.22-0.167-0.262-0.481-0.094-0.701 C60.516,46.315,61,44.927,61,43.5c0-0.816-0.157-1.618-0.465-2.385c-0.103-0.256,0.021-0.547,0.277-0.651 c0.257-0.103,0.547,0.02,0.651,0.277C61.819,41.627,62,42.555,62,43.5c0,1.648-0.555,3.246-1.604,4.621 C60.298,48.25,60.149,48.318,59.998,48.318z"/></g><g><path fill="#472b29" d="M58.855,38.462c-0.117,0-0.235-0.041-0.33-0.124c-0.913-0.801-2.044-1.434-3.271-1.832 c-0.263-0.085-0.407-0.367-0.322-0.63c0.085-0.262,0.367-0.407,0.629-0.322c1.356,0.439,2.609,1.141,3.623,2.031 c0.208,0.182,0.229,0.498,0.046,0.706C59.132,38.404,58.994,38.462,58.855,38.462z"/></g><g><path fill="#472b29" d="M44.457,39.136c-0.12,0-0.241-0.043-0.336-0.13c-0.205-0.186-0.219-0.502-0.033-0.706 C45.997,36.203,48.881,35,52,35c0.276,0,0.5,0.224,0.5,0.5S52.276,36,52,36c-2.838,0-5.453,1.083-7.173,2.973 C44.728,39.081,44.593,39.136,44.457,39.136z"/></g></g><g><path fill="#fdfcef" d="M70.375,77.625c0,0-1.567,0-3.5,0s-3.5-1.567-3.5-3.5c0-1.781,1.335-3.234,3.055-3.455 c-0.028-0.179-0.055-0.358-0.055-0.545c0-1.933,1.567-3.5,3.5-3.5c1.032,0,1.95,0.455,2.59,1.165 c0.384-1.808,1.987-3.165,3.91-3.165c2.209,0,4,1.791,4,4c0,0.191-0.03,0.374-0.056,0.558c0.428-0.344,0.965-0.558,1.556-0.558 c1.228,0,2.245,0.887,2.455,2.055c0.179-0.028,0.358-0.055,0.545-0.055c1.933,0,3.5,1.567,3.5,3.5s-1.567,3.5-3.5,3.5 s-7.5,0-7.5,0v0.5h-7V77.625z"/><path fill="#472b29" d="M68.625,73.125c0.138,0,0.25-0.112,0.25-0.25c0-1.223-0.995-2.218-2.218-2.218 c-0.034,0.009-0.737-0.001-1.244,0.136c-0.133,0.036-0.212,0.173-0.176,0.306c0.036,0.134,0.173,0.213,0.306,0.176 c0.444-0.12,1.1-0.12,1.113-0.118c0.948,0,1.719,0.771,1.719,1.718C68.375,73.013,68.487,73.125,68.625,73.125z"/><circle cx="75.375" cy="77.625" r=".5" fill="#472b29"/><path fill="#472b29" d="M66.875,78.125h3.5c0.276,0,0.5-0.224,0.5-0.5s-0.224-0.5-0.5-0.5h-3.5c-1.654,0-3-1.346-3-3 c0-1.496,1.125-2.768,2.618-2.959c0.134-0.018,0.255-0.088,0.336-0.196s0.115-0.244,0.094-0.377 c-0.024-0.153-0.049-0.308-0.049-0.468c0-1.654,1.346-3,3-3c0.85,0,1.638,0.355,2.219,1c0.125,0.139,0.321,0.198,0.5,0.148 c0.182-0.049,0.321-0.195,0.36-0.379c0.341-1.604,1.779-2.769,3.42-2.769c1.93,0,3.5,1.57,3.5,3.5c0,0.143-0.021,0.28-0.041,0.418 c-0.029,0.203,0.063,0.438,0.242,0.54c0.179,0.102,0.396,0.118,0.556-0.01c0.365-0.293,0.794-0.448,1.243-0.448 c0.966,0,1.792,0.691,1.963,1.644c0.048,0.267,0.296,0.446,0.569,0.405c0.153-0.024,0.308-0.049,0.468-0.049c1.654,0,3,1.346,3,3 s-1.346,3-3,3h-7.5c-0.276,0-0.5,0.224-0.5,0.5s0.224,0.5,0.5,0.5h7.5c2.206,0,4-1.794,4-4s-1.794-4-4-4 c-0.059,0-0.116,0.002-0.174,0.006c-0.414-1.186-1.537-2.006-2.826-2.006c-0.349,0-0.689,0.061-1.011,0.18 c-0.165-2.333-2.115-4.18-4.489-4.18c-1.831,0-3.466,1.127-4.153,2.774c-0.68-0.499-1.502-0.774-2.347-0.774c-2.206,0-4,1.794-4,4 c0,0.048,0.001,0.095,0.004,0.142c-1.743,0.448-3.004,2.027-3.004,3.858C62.875,76.331,64.669,78.125,66.875,78.125z"/><path fill="#472b29" d="M72.375,77.125c0.159,0,0.841,0,1,0c0.276,0,0.5,0.224,0.5,0.5c0,0.276-0.224,0.5-0.5,0.5 c-0.159,0-0.841,0-1,0c-0.276,0-0.5-0.224-0.5-0.5C71.875,77.349,72.099,77.125,72.375,77.125z"/></g></svg>