<svg xmlns="http://www.w3.org/2000/svg"  viewBox="0 0 100 100" width="100px" height="100px"><path fill="#c7ede6" d="M87.215,56.71C88.35,54.555,89,52.105,89,49.5c0-6.621-4.159-12.257-10.001-14.478 C78.999,35.015,79,35.008,79,35c0-11.598-9.402-21-21-21c-9.784,0-17.981,6.701-20.313,15.757C36.211,29.272,34.638,29,33,29 c-7.692,0-14.023,5.793-14.89,13.252C12.906,43.353,9,47.969,9,53.5C9,59.851,14.149,65,20.5,65c0.177,0,0.352-0.012,0.526-0.022 C21.022,65.153,21,65.324,21,65.5C21,76.822,30.178,86,41.5,86c6.437,0,12.175-2.972,15.934-7.614C59.612,80.611,62.64,82,66,82 c4.65,0,8.674-2.65,10.666-6.518C77.718,75.817,78.837,76,80,76c6.075,0,11-4.925,11-11C91,61.689,89.53,58.727,87.215,56.71z"/><path fill="#00a5a5" d="M34,69.3c-0.614,0-1.191-0.239-1.626-0.674C31.939,68.192,31.7,67.614,31.7,67 s0.239-1.192,0.674-1.626l8.412-8.412l-6.771-6.77c-0.897-0.897-0.897-2.356,0-3.253c0.435-0.434,1.013-0.673,1.626-0.673 c0.614,0,1.191,0.239,1.626,0.673l6.771,6.771L63.448,34.3H49c-1.269,0-2.3-1.032-2.3-2.3c0-1.268,1.031-2.3,2.3-2.3h20 c1.269,0,2.3,1.032,2.3,2.3v20c0,1.268-1.031,2.3-2.3,2.3s-2.3-1.032-2.3-2.3V37.552l-19.41,19.41l7.042,7.041 c0.435,0.435,0.674,1.012,0.674,1.626c0,0.615-0.239,1.192-0.674,1.627s-1.012,0.674-1.626,0.674s-1.191-0.239-1.626-0.674 l-7.042-7.042l-8.412,8.412C35.191,69.061,34.614,69.3,34,69.3z"/><path fill="#472b29" d="M69,30.4c0.882,0,1.6,0.718,1.6,1.6v20c0,0.882-0.718,1.6-1.6,1.6s-1.6-0.718-1.6-1.6V39.242 v-3.38l-2.39,2.39l-17.719,17.72l-0.99,0.99l0.99,0.99l6.547,6.547c0.302,0.302,0.469,0.704,0.469,1.131 s-0.167,0.829-0.469,1.132c-0.302,0.302-0.704,0.469-1.131,0.469s-0.829-0.167-1.131-0.469l-6.547-6.547l-0.99-0.99l-0.99,0.99 l-7.917,7.917C34.829,68.434,34.427,68.6,34,68.6s-0.829-0.167-1.131-0.469C32.566,67.829,32.4,67.427,32.4,67 s0.166-0.829,0.469-1.131l7.917-7.917l0.99-0.99l-0.99-0.99l-6.275-6.275c-0.624-0.624-0.624-1.64,0-2.263 c0.303-0.302,0.705-0.469,1.132-0.469c0.427,0,0.829,0.167,1.131,0.468l6.276,6.276l0.99,0.99l0.99-0.99L62.747,35.99l2.39-2.39 h-3.38H49c-0.882,0-1.6-0.718-1.6-1.6c0-0.882,0.718-1.6,1.6-1.6H69 M69,29H49c-1.657,0-3,1.343-3,3c0,1.657,1.343,3,3,3h12.757 L44.038,52.719l-6.276-6.276c-0.586-0.586-1.353-0.878-2.121-0.878c-0.768,0-1.536,0.293-2.122,0.878 c-1.172,1.172-1.172,3.071,0,4.243l6.275,6.275l-7.917,7.917c-1.172,1.171-1.172,3.071,0,4.242C32.465,69.707,33.232,70,34,70 s1.535-0.293,2.121-0.879l7.917-7.917l6.547,6.547c0.586,0.586,1.354,0.879,2.121,0.879s1.535-0.293,2.121-0.879 c1.172-1.172,1.172-3.071,0-4.243l-6.547-6.546L66,39.242V52c0,1.657,1.343,3,3,3s3-1.343,3-3V32C72,30.343,70.657,29,69,29 L69,29z"/><path fill="#472b29" d="M56.5,61c-0.128,0-0.256-0.049-0.354-0.146l-4-4c-0.195-0.195-0.195-0.512,0-0.707l2.659-2.66 c0.195-0.195,0.512-0.195,0.707,0c0.195,0.195,0.195,0.512,0,0.707L53.207,56.5l3.646,3.646c0.195,0.195,0.195,0.512,0,0.707 C56.756,60.951,56.628,61,56.5,61z"/><path fill="#472b29" d="M57.266,52.234c-0.128,0-0.256-0.049-0.354-0.146c-0.195-0.195-0.195-0.512,0-0.707l6.234-6.234 c0.195-0.195,0.512-0.195,0.707,0s0.195,0.512,0,0.707l-6.234,6.234C57.521,52.185,57.394,52.234,57.266,52.234z"/><path fill="#472b29" d="M30.947,62.681c-0.128,0-0.256-0.049-0.354-0.146c-0.195-0.195-0.195-0.512,0-0.707l2.074-2.074 c0.195-0.195,0.512-0.195,0.707,0s0.195,0.512,0,0.707l-2.074,2.074C31.203,62.632,31.075,62.681,30.947,62.681z"/><g><path fill="#472b29" d="M34.617,59.011c-0.128,0-0.256-0.049-0.354-0.146c-0.195-0.195-0.195-0.512,0-0.707l0.977-0.976 l-3.646-3.646c-0.195-0.195-0.195-0.512,0-0.707s0.512-0.195,0.707,0l4,4c0.094,0.094,0.146,0.221,0.146,0.354 s-0.053,0.26-0.146,0.354l-1.33,1.33C34.873,58.962,34.745,59.011,34.617,59.011z"/></g><g><path fill="#fff" d="M15.405,49H5.5C5.224,49,5,48.776,5,48.5S5.224,48,5.5,48h9.905c0.276,0,0.5,0.224,0.5,0.5 S15.682,49,15.405,49z"/><path fill="#fff" d="M18.5,49h-1c-0.276,0-0.5-0.224-0.5-0.5s0.224-0.5,0.5-0.5h1c0.276,0,0.5,0.224,0.5,0.5 S18.777,49,18.5,49z"/><path fill="#fff" d="M23.491,51H14.5c-0.276,0-0.5-0.224-0.5-0.5s0.224-0.5,0.5-0.5h8.991c0.276,0,0.5,0.224,0.5,0.5 S23.767,51,23.491,51z"/><path fill="#fff" d="M12.5,51h-1c-0.276,0-0.5-0.224-0.5-0.5s0.224-0.5,0.5-0.5h1c0.276,0,0.5,0.224,0.5,0.5 S12.777,51,12.5,51z"/><path fill="#fff" d="M9.5,51h-2C7.224,51,7,50.776,7,50.5S7.224,50,7.5,50h2c0.276,0,0.5,0.224,0.5,0.5S9.777,51,9.5,51 z"/><path fill="#fff" d="M15.5,53h-2c-0.276,0-0.5-0.224-0.5-0.5s0.224-0.5,0.5-0.5h2c0.276,0,0.5,0.224,0.5,0.5 S15.776,53,15.5,53z"/><path fill="#fff" d="M18.5,44c-0.177,0-0.823,0-1,0c-0.276,0-0.5,0.224-0.5,0.5c0,0.276,0.224,0.5,0.5,0.5 c0.177,0,0.823,0,1,0c0.276,0,0.5-0.224,0.5-0.5C19,44.224,18.776,44,18.5,44z"/><path fill="#fff" d="M18.5,46c-0.177,0-4.823,0-5,0c-0.276,0-0.5,0.224-0.5,0.5c0,0.276,0.224,0.5,0.5,0.5 c0.177,0,4.823,0,5,0c0.276,0,0.5-0.224,0.5-0.5C19,46.224,18.776,46,18.5,46z"/><path fill="#fff" d="M23.5,48c-0.177,0-2.823,0-3,0c-0.276,0-0.5,0.224-0.5,0.5c0,0.276,0.224,0.5,0.5,0.5 c0.177,0,2.823,0,3,0c0.276,0,0.5-0.224,0.5-0.5C24,48.224,23.776,48,23.5,48z"/></g><g><path fill="#fff" d="M86.5,52h-10c-0.276,0-0.5-0.224-0.5-0.5c0-0.276,0.224-0.5,0.5-0.5h10c0.276,0,0.5,0.224,0.5,0.5 C87,51.776,86.776,52,86.5,52z"/><path fill="#fff" d="M90.5,52h-2c-0.276,0-0.5-0.224-0.5-0.5c0-0.276,0.224-0.5,0.5-0.5h2c0.276,0,0.5,0.224,0.5,0.5 C91,51.776,90.776,52,90.5,52z"/><path fill="#fff" d="M95.5,54h-10c-0.276,0-0.5-0.224-0.5-0.5c0-0.276,0.224-0.5,0.5-0.5h10c0.276,0,0.5,0.224,0.5,0.5 C96,53.776,95.777,54,95.5,54z"/><path fill="#fff" d="M83.5,54h-1c-0.276,0-0.5-0.224-0.5-0.5c0-0.276,0.224-0.5,0.5-0.5h1c0.276,0,0.5,0.224,0.5,0.5 C84,53.776,83.776,54,83.5,54z"/><path fill="#fff" d="M80.47,54H78.5c-0.276,0-0.5-0.224-0.5-0.5c0-0.276,0.224-0.5,0.5-0.5h1.97 c0.276,0,0.5,0.224,0.5,0.5C80.97,53.776,80.746,54,80.47,54z"/><path fill="#fff" d="M89.5,50h-5c-0.276,0-0.5-0.224-0.5-0.5c0-0.276,0.224-0.5,0.5-0.5h5c0.276,0,0.5,0.224,0.5,0.5 C90,49.776,89.777,50,89.5,50z"/><path fill="#fff" d="M86.5,56h-2c-0.276,0-0.5-0.224-0.5-0.5c0-0.276,0.224-0.5,0.5-0.5h2c0.276,0,0.5,0.224,0.5,0.5 C87,55.776,86.776,56,86.5,56z"/></g><g><path fill="#fdfcef" d="M68.875,74.5c0,0-3.64,0-6.125,0c-2.485,0-4.5-2.015-4.5-4.5c0-2.333,1.782-4.229,4.055-4.455 C62.283,65.364,62.25,65.187,62.25,65c0-2.485,2.015-4.5,4.5-4.5c1.438,0,2.703,0.686,3.527,1.736 c0.14-2.636,2.302-4.736,4.973-4.736c2.761,0,5,2.239,5,5c0,0.446-0.077,0.87-0.187,1.282c0.642-0.777,1.6-1.282,2.687-1.282 c1.781,0,3.234,1.335,3.455,3.055c0.181-0.022,0.358-0.055,0.545-0.055c2.485,0,4.5,2.015,4.5,4.5s-2.015,4.5-4.5,4.5 s-9.5,0-9.5,0h-5.375V75h-3V74.5z"/><path fill="#472b29" d="M75.25,57c3.033,0,5.5,2.467,5.5,5.5c0,0.016,0,0.031,0,0.047c0.602-0.354,1.29-0.547,2-0.547 c1.831,0,3.411,1.261,3.858,3.005C86.655,65.002,86.702,65,86.75,65c2.757,0,5,2.243,5,5c0,2.757-2.243,5-5,5H71.875 c-0.276,0-0.5-0.224-0.5-0.5c0-0.276,0.224-0.5,0.5-0.5H86.75c2.206,0,4-1.794,4-4c0-2.206-1.794-4-4-4 c-0.117,0-0.23,0.017-0.343,0.032l-0.141,0.019c-0.021,0.003-0.041,0.004-0.062,0.004c-0.246,0-0.462-0.185-0.495-0.437 C85.518,64.126,84.246,63,82.75,63c-0.885,0-1.723,0.401-2.301,1.1c-0.098,0.118-0.241,0.182-0.386,0.182 c-0.078,0-0.156-0.018-0.228-0.056c-0.209-0.107-0.314-0.346-0.254-0.573c0.116-0.436,0.17-0.802,0.17-1.153 c0-2.481-2.019-4.5-4.5-4.5c-2.381,0-4.347,1.872-4.474,4.263c-0.011,0.208-0.15,0.387-0.349,0.45 c-0.05,0.016-0.101,0.024-0.152,0.024c-0.15,0-0.296-0.069-0.392-0.192C69.112,61.563,67.971,61,66.75,61c-2.206,0-4,1.794-4,4 c0,0.117,0.017,0.23,0.032,0.343l0.019,0.141c0.016,0.134-0.022,0.268-0.106,0.373c-0.084,0.105-0.207,0.172-0.34,0.185 C60.299,66.247,58.75,67.949,58.75,70c0,2.206,1.794,4,4,4h6.125c0.276,0,0.5,0.224,0.5,0.5c0,0.276-0.224,0.5-0.5,0.5H62.75 c-2.757,0-5-2.243-5-5c0-2.397,1.689-4.413,4.003-4.877C61.751,65.082,61.75,65.041,61.75,65c0-2.757,2.243-5,5-5 c1.176,0,2.293,0.416,3.183,1.164C70.531,58.76,72.695,57,75.25,57L75.25,57z"/><path fill="#472b29" d="M76.75,64c1.403,0,2.609,0.999,2.913,2.341C80.03,66.119,80.449,66,80.875,66 c1.202,0,2.198,0.897,2.353,2.068C83.431,68.022,83.624,68,83.813,68c1.529,0,2.811,1.2,2.918,2.732 C86.74,70.87,86.636,70.99,86.499,71c-0.006,0-0.012,0-0.018,0c-0.13,0-0.24-0.101-0.249-0.232 c-0.089-1.271-1.151-2.268-2.419-2.268c-0.229,0-0.47,0.042-0.738,0.127c-0.022,0.007-0.045,0.01-0.067,0.01 c-0.055,0-0.11-0.02-0.156-0.054c-0.064-0.047-0.102-0.129-0.102-0.209c0-1.034-0.841-1.875-1.875-1.875 c-0.447,0-0.885,0.168-1.231,0.473c-0.047,0.041-0.106,0.063-0.165,0.063c-0.032,0-0.063-0.006-0.093-0.019 c-0.088-0.035-0.148-0.117-0.155-0.212c-0.102-1.292-1.191-2.305-2.479-2.305c-0.208,0-0.425,0.034-0.682,0.107 c-0.023,0.007-0.047,0.01-0.07,0.01c-0.109,0-0.207-0.073-0.239-0.182c-0.038-0.133,0.039-0.271,0.172-0.309 C76.233,64.04,76.494,64,76.75,64L76.75,64z"/></g><g><path fill="#fdfcef" d="M24.375,39.5c0,0-1.567,0-3.5,0s-3.5-1.567-3.5-3.5c0-1.781,1.335-3.234,3.055-3.455 c-0.028-0.179-0.055-0.358-0.055-0.545c0-1.933,1.567-3.5,3.5-3.5c1.032,0,1.95,0.455,2.59,1.165 c0.384-1.808,1.987-3.165,3.91-3.165c2.209,0,4,1.791,4,4c0,0.191-0.03,0.374-0.056,0.558c0.428-0.344,0.965-0.558,1.556-0.558 c1.228,0,2.245,0.887,2.455,2.055c0.179-0.028,0.358-0.055,0.545-0.055c1.933,0,3.5,1.567,3.5,3.5s-1.567,3.5-3.5,3.5 s-7.5,0-7.5,0V40h-7V39.5z"/><path fill="#472b29" d="M22.625,35c0.138,0,0.25-0.112,0.25-0.25c0-1.223-0.995-2.218-2.218-2.218 c-0.034,0.009-0.737-0.001-1.244,0.136c-0.133,0.036-0.212,0.173-0.176,0.306c0.036,0.134,0.173,0.213,0.306,0.176 c0.444-0.12,1.1-0.12,1.113-0.118c0.948,0,1.719,0.771,1.719,1.718C22.375,34.888,22.487,35,22.625,35z"/><circle cx="29.375" cy="39.5" r=".5" fill="#472b29"/><path fill="#472b29" d="M20.875,40h3.5c0.276,0,0.5-0.224,0.5-0.5s-0.224-0.5-0.5-0.5h-3.5c-1.654,0-3-1.346-3-3 c0-1.496,1.125-2.768,2.618-2.959c0.134-0.018,0.255-0.088,0.336-0.196s0.115-0.244,0.094-0.377 C20.9,32.314,20.875,32.16,20.875,32c0-1.654,1.346-3,3-3c0.85,0,1.638,0.355,2.219,1c0.125,0.139,0.321,0.198,0.5,0.148 c0.182-0.049,0.321-0.195,0.36-0.379C27.295,28.165,28.734,27,30.375,27c1.93,0,3.5,1.57,3.5,3.5c0,0.143-0.021,0.28-0.041,0.418 c-0.029,0.203,0.063,0.438,0.242,0.54c0.179,0.102,0.396,0.118,0.556-0.01C34.997,31.155,35.426,31,35.875,31 c0.966,0,1.792,0.691,1.963,1.644c0.048,0.267,0.296,0.446,0.569,0.405C38.561,33.025,38.715,33,38.875,33c1.654,0,3,1.346,3,3 s-1.346,3-3,3h-7.5c-0.276,0-0.5,0.224-0.5,0.5s0.224,0.5,0.5,0.5h7.5c2.206,0,4-1.794,4-4s-1.794-4-4-4 c-0.059,0-0.116,0.002-0.174,0.006C38.287,30.82,37.164,30,35.875,30c-0.349,0-0.689,0.061-1.011,0.18 C34.699,27.847,32.749,26,30.375,26c-1.831,0-3.466,1.127-4.153,2.774C25.542,28.276,24.72,28,23.875,28c-2.206,0-4,1.794-4,4 c0,0.048,0.001,0.095,0.004,0.142c-1.743,0.448-3.004,2.027-3.004,3.858C16.875,38.206,18.669,40,20.875,40z"/><path fill="#472b29" d="M26.375,39c0.159,0,0.841,0,1,0c0.276,0,0.5,0.224,0.5,0.5c0,0.276-0.224,0.5-0.5,0.5 c-0.159,0-0.841,0-1,0c-0.276,0-0.5-0.224-0.5-0.5C25.875,39.224,26.099,39,26.375,39z"/></g></svg>