<svg xmlns="http://www.w3.org/2000/svg"  viewBox="0 0 100 100" width="100px" height="100px"><path fill="#c7ede6" d="M87.215,56.71C88.35,54.555,89,52.105,89,49.5c0-6.621-4.159-12.257-10.001-14.478 C78.999,35.015,79,35.008,79,35c0-11.598-9.402-21-21-21c-9.784,0-17.981,6.701-20.313,15.757C36.211,29.272,34.638,29,33,29 c-7.692,0-14.023,5.793-14.89,13.252C12.906,43.353,9,47.969,9,53.5C9,59.851,14.149,65,20.5,65c0.177,0,0.352-0.012,0.526-0.022 C21.022,65.153,21,65.324,21,65.5C21,76.822,30.178,86,41.5,86c6.437,0,12.175-2.972,15.934-7.614C59.612,80.611,62.64,82,66,82 c4.65,0,8.674-2.65,10.666-6.518C77.718,75.817,78.837,76,80,76c6.075,0,11-4.925,11-11C91,61.689,89.53,58.727,87.215,56.71z"/><path fill="#fff" d="M17.405,49H7.5C7.224,49,7,48.776,7,48.5S7.224,48,7.5,48h9.905c0.276,0,0.5,0.224,0.5,0.5 S17.682,49,17.405,49z"/><path fill="#fff" d="M20.5,49h-1c-0.276,0-0.5-0.224-0.5-0.5s0.224-0.5,0.5-0.5h1c0.276,0,0.5,0.224,0.5,0.5 S20.777,49,20.5,49z"/><path fill="#fff" d="M25.491,51H16.5c-0.276,0-0.5-0.224-0.5-0.5s0.224-0.5,0.5-0.5h8.991c0.276,0,0.5,0.224,0.5,0.5 S25.767,51,25.491,51z"/><path fill="#fff" d="M14.5,51h-1c-0.276,0-0.5-0.224-0.5-0.5s0.224-0.5,0.5-0.5h1c0.276,0,0.5,0.224,0.5,0.5 S14.777,51,14.5,51z"/><path fill="#fff" d="M11.5,51h-2C9.224,51,9,50.776,9,50.5S9.224,50,9.5,50h2c0.276,0,0.5,0.224,0.5,0.5 S11.777,51,11.5,51z"/><path fill="#fff" d="M17.5,53h-2c-0.276,0-0.5-0.224-0.5-0.5s0.224-0.5,0.5-0.5h2c0.276,0,0.5,0.224,0.5,0.5 S17.776,53,17.5,53z"/><path fill="#fff" d="M20.5,44c-0.177,0-0.823,0-1,0c-0.276,0-0.5,0.224-0.5,0.5c0,0.276,0.224,0.5,0.5,0.5 c0.177,0,0.823,0,1,0c0.276,0,0.5-0.224,0.5-0.5C21,44.224,20.776,44,20.5,44z"/><path fill="#fff" d="M20.5,46c-0.177,0-4.823,0-5,0c-0.276,0-0.5,0.224-0.5,0.5c0,0.276,0.224,0.5,0.5,0.5 c0.177,0,4.823,0,5,0c0.276,0,0.5-0.224,0.5-0.5C21,46.224,20.776,46,20.5,46z"/><path fill="#fff" d="M25.5,48c-0.177,0-2.823,0-3,0c-0.276,0-0.5,0.224-0.5,0.5c0,0.276,0.224,0.5,0.5,0.5 c0.177,0,2.823,0,3,0c0.276,0,0.5-0.224,0.5-0.5C26,48.224,25.776,48,25.5,48z"/><g><path fill="#fff" d="M86.5,57h-10c-0.276,0-0.5-0.224-0.5-0.5s0.224-0.5,0.5-0.5h10c0.276,0,0.5,0.224,0.5,0.5 S86.776,57,86.5,57z"/><path fill="#fff" d="M90.5,57h-2c-0.276,0-0.5-0.224-0.5-0.5s0.224-0.5,0.5-0.5h2c0.276,0,0.5,0.224,0.5,0.5 S90.776,57,90.5,57z"/><path fill="#fff" d="M95.5,59h-10c-0.276,0-0.5-0.224-0.5-0.5s0.224-0.5,0.5-0.5h10c0.276,0,0.5,0.224,0.5,0.5 S95.777,59,95.5,59z"/><path fill="#fff" d="M83.5,59h-1c-0.276,0-0.5-0.224-0.5-0.5s0.224-0.5,0.5-0.5h1c0.276,0,0.5,0.224,0.5,0.5 S83.776,59,83.5,59z"/><path fill="#fff" d="M80.47,59H78.5c-0.276,0-0.5-0.224-0.5-0.5s0.224-0.5,0.5-0.5h1.97c0.276,0,0.5,0.224,0.5,0.5 S80.746,59,80.47,59z"/><path fill="#fff" d="M89.5,55h-5c-0.276,0-0.5-0.224-0.5-0.5s0.224-0.5,0.5-0.5h5c0.276,0,0.5,0.224,0.5,0.5 S89.777,55,89.5,55z"/><path fill="#fff" d="M86.5,61h-2c-0.276,0-0.5-0.224-0.5-0.5s0.224-0.5,0.5-0.5h2c0.276,0,0.5,0.224,0.5,0.5 S86.776,61,86.5,61z"/></g><g><path fill="#fdfcef" d="M65.875,34.5c0,0-3.64,0-6.125,0s-4.5-2.015-4.5-4.5c0-2.333,1.782-4.229,4.055-4.455 C59.283,25.364,59.25,25.187,59.25,25c0-2.485,2.015-4.5,4.5-4.5c1.438,0,2.703,0.686,3.527,1.736 c0.14-2.636,2.302-4.736,4.973-4.736c2.761,0,5,2.239,5,5c0,0.446-0.077,0.87-0.187,1.282c0.642-0.777,1.6-1.282,2.687-1.282 c1.781,0,3.234,1.335,3.455,3.055c0.181-0.022,0.358-0.055,0.545-0.055c2.485,0,4.5,2.015,4.5,4.5s-2.015,4.5-4.5,4.5 s-9.5,0-9.5,0h-5.375V35h-3V34.5z"/><path fill="#472b29" d="M72.25,17c3.033,0,5.5,2.467,5.5,5.5c0,0.016,0,0.031,0,0.047c0.602-0.354,1.29-0.547,2-0.547 c1.831,0,3.411,1.261,3.858,3.005C83.655,25.002,83.702,25,83.75,25c2.757,0,5,2.243,5,5s-2.243,5-5,5H68.875 c-0.276,0-0.5-0.224-0.5-0.5s0.224-0.5,0.5-0.5H83.75c2.206,0,4-1.794,4-4s-1.794-4-4-4c-0.117,0-0.23,0.017-0.343,0.032 l-0.141,0.019c-0.021,0.003-0.041,0.004-0.062,0.004c-0.246,0-0.462-0.185-0.495-0.437C82.518,24.125,81.246,23,79.75,23 c-0.885,0-1.723,0.401-2.301,1.1c-0.098,0.118-0.241,0.182-0.386,0.182c-0.078,0-0.156-0.018-0.228-0.056 c-0.209-0.107-0.314-0.346-0.254-0.573c0.116-0.436,0.17-0.802,0.17-1.153c0-2.481-2.019-4.5-4.5-4.5 c-2.381,0-4.347,1.872-4.474,4.263c-0.011,0.208-0.15,0.387-0.349,0.45c-0.05,0.016-0.101,0.024-0.152,0.024 c-0.15,0-0.296-0.069-0.392-0.192C66.112,21.563,64.971,21,63.75,21c-2.206,0-4,1.794-4,4c0,0.117,0.017,0.23,0.032,0.343 l0.019,0.141c0.016,0.134-0.022,0.268-0.106,0.373c-0.084,0.105-0.207,0.172-0.34,0.185C57.299,26.247,55.75,27.949,55.75,30 c0,2.206,1.794,4,4,4h6.125c0.276,0,0.5,0.224,0.5,0.5s-0.224,0.5-0.5,0.5H59.75c-2.757,0-5-2.243-5-5 c0-2.397,1.689-4.413,4.003-4.877C58.751,25.082,58.75,25.041,58.75,25c0-2.757,2.243-5,5-5c1.176,0,2.293,0.416,3.183,1.164 C67.531,18.76,69.695,17,72.25,17L72.25,17z"/><path fill="#472b29" d="M73.75,24c1.403,0,2.609,0.999,2.913,2.341C77.03,26.119,77.449,26,77.875,26 c1.202,0,2.198,0.897,2.353,2.068C80.431,28.022,80.624,28,80.813,28c1.529,0,2.811,1.2,2.918,2.732 C83.74,30.87,83.636,30.99,83.499,31c-0.006,0-0.012,0-0.018,0c-0.13,0-0.24-0.101-0.249-0.232 c-0.089-1.271-1.151-2.268-2.419-2.268c-0.229,0-0.47,0.042-0.738,0.127c-0.022,0.007-0.045,0.01-0.067,0.01 c-0.055,0-0.11-0.02-0.156-0.054c-0.064-0.047-0.102-0.129-0.102-0.209c0-1.034-0.841-1.875-1.875-1.875 c-0.447,0-0.885,0.168-1.231,0.473c-0.047,0.041-0.106,0.063-0.165,0.063c-0.032,0-0.063-0.006-0.093-0.019 c-0.088-0.035-0.148-0.117-0.155-0.212c-0.102-1.292-1.191-2.305-2.479-2.305c-0.208,0-0.425,0.034-0.682,0.107 c-0.023,0.007-0.047,0.01-0.07,0.01c-0.109,0-0.207-0.073-0.239-0.182c-0.038-0.133,0.039-0.271,0.172-0.309 C73.233,24.04,73.494,24,73.75,24L73.75,24z"/></g><g><path fill="#00a5a5" d="M65.5,57.3c-5.955,0-10.8-4.845-10.8-10.8c0-4.022,2.224-7.688,5.805-9.566l1.532-0.804 l-1.66-0.488c-2.99-0.878-6.296-1.343-9.56-1.343c-7.554,0-14.733,2.623-19.205,7.016c-0.434,0.425-1.006,0.659-1.613,0.659 c-0.622,0-1.204-0.244-1.639-0.688c-0.89-0.905-0.877-2.365,0.027-3.253C33.7,32.816,42.085,29.7,50.817,29.7 c14.289,0,25.482,7.037,25.482,16.021l-0.023,0.198l0.011,0.299c0.006,0.093,0.013,0.187,0.013,0.281 C76.3,52.455,71.455,57.3,65.5,57.3z M65.5,40.3c-3.419,0-6.2,2.781-6.2,6.2s2.781,6.2,6.2,6.2s6.2-2.781,6.2-6.2 S68.919,40.3,65.5,40.3z"/><path fill="#472b29" d="M50.817,30.4c13.884,0,24.763,6.717,24.783,15.297c0-0.004,0-0.006-0.001-0.006 c0,0-0.001,0.001-0.001,0.005c-0.007,0.054-0.014,0.109-0.019,0.164l-0.008,0.092l0.004,0.093 c0.003,0.074,0.008,0.148,0.013,0.222c0.005,0.077,0.012,0.155,0.012,0.233c0,5.569-4.531,10.1-10.1,10.1s-10.1-4.531-10.1-10.1 c0-3.761,2.081-7.189,5.43-8.946l3.065-1.607l-3.321-0.976c-3.054-0.897-6.428-1.371-9.757-1.371 c-7.733,0-15.096,2.698-19.696,7.216c-0.302,0.296-0.7,0.459-1.123,0.459c-0.433,0-0.837-0.169-1.14-0.478 c-0.618-0.63-0.61-1.645,0.019-2.263C34.063,33.441,42.265,30.4,50.817,30.4 M65.5,53.4c3.805,0,6.9-3.095,6.9-6.9 s-3.095-6.9-6.9-6.9s-6.9,3.095-6.9,6.9S61.695,53.4,65.5,53.4 M50.817,29c-8.912,0-17.479,3.191-22.92,8.536 c-1.182,1.161-1.198,3.061-0.037,4.243c0.586,0.598,1.362,0.897,2.139,0.897c0.759,0,1.519-0.286,2.103-0.86 C36.446,37.548,43.442,35,50.817,35c3.328,0,6.528,0.482,9.363,1.314C56.512,38.238,54,42.079,54,46.5 C54,52.841,59.159,58,65.5,58S77,52.841,77,46.5c0-0.175-0.019-0.346-0.026-0.519C76.981,45.894,77,45.81,77,45.721 C77,36.345,65.499,29,50.817,29L50.817,29z M65.5,52c-3.032,0-5.5-2.467-5.5-5.5s2.468-5.5,5.5-5.5s5.5,2.467,5.5,5.5 S68.532,52,65.5,52L65.5,52z"/><path fill="#00a5a5" d="M53.183,74.3C38.894,74.3,27.7,67.263,27.7,58.279l0.023-0.198l-0.011-0.299 C27.707,57.688,27.7,57.595,27.7,57.5c0-5.955,4.845-10.8,10.8-10.8s10.8,4.845,10.8,10.8c0,4.022-2.224,7.688-5.805,9.566 l-1.532,0.804l1.66,0.488c2.99,0.878,6.296,1.343,9.56,1.343c7.554,0,14.733-2.623,19.205-7.016 c0.434-0.425,1.006-0.659,1.612-0.659c0.622,0,1.205,0.244,1.641,0.688c0.889,0.905,0.876,2.364-0.028,3.253 C70.3,71.184,61.915,74.3,53.183,74.3z M38.5,51.3c-3.419,0-6.2,2.781-6.2,6.2s2.781,6.2,6.2,6.2s6.2-2.781,6.2-6.2 S41.919,51.3,38.5,51.3z"/><path fill="#472b29" d="M38.5,47.4c5.569,0,10.1,4.531,10.1,10.1c0,3.761-2.081,7.189-5.43,8.946l-3.065,1.607 l3.321,0.976c3.054,0.897,6.428,1.371,9.757,1.371c7.733,0,15.096-2.698,19.696-7.217c0.301-0.296,0.699-0.458,1.121-0.458 c0.433,0,0.838,0.169,1.141,0.478c0.618,0.63,0.61,1.645-0.019,2.263C69.937,70.559,61.735,73.6,53.183,73.6 c-13.884,0-24.763-6.717-24.783-15.297c0,0.004,0,0.006,0.001,0.006c0,0,0.001-0.001,0.001-0.005 c0.007-0.054,0.014-0.109,0.019-0.164l0.008-0.092l-0.004-0.093c-0.003-0.074-0.008-0.148-0.013-0.222 C28.406,57.656,28.4,57.579,28.4,57.5C28.4,51.931,32.931,47.4,38.5,47.4 M38.5,64.4c3.805,0,6.9-3.095,6.9-6.9 s-3.095-6.9-6.9-6.9s-6.9,3.095-6.9,6.9S34.695,64.4,38.5,64.4 M38.5,46C32.159,46,27,51.159,27,57.5 c0,0.175,0.019,0.346,0.026,0.519C27.019,58.106,27,58.19,27,58.279C27,67.655,38.501,75,53.183,75 c8.912,0,17.479-3.191,22.92-8.536c1.182-1.161,1.198-3.061,0.037-4.243c-0.587-0.598-1.363-0.897-2.139-0.897 c-0.759,0-1.519,0.286-2.103,0.86C67.554,66.452,60.558,69,53.183,69c-3.328,0-6.528-0.482-9.363-1.314 C47.488,65.762,50,61.921,50,57.5C50,51.159,44.841,46,38.5,46L38.5,46z M38.5,63c-3.032,0-5.5-2.467-5.5-5.5s2.468-5.5,5.5-5.5 s5.5,2.467,5.5,5.5S41.532,63,38.5,63L38.5,63z"/><path fill="#472b29" d="M53.376,39.25c-0.024,0-0.05-0.002-0.074-0.005c-1.226-0.182-2.439-0.27-3.674-0.263 c-0.001,0-0.002,0-0.003,0c-0.274,0-0.498-0.222-0.5-0.497c-0.002-0.276,0.221-0.501,0.497-0.503 c1.236-0.006,2.551,0.083,3.826,0.273c0.273,0.041,0.462,0.295,0.421,0.568C53.833,39.072,53.619,39.25,53.376,39.25z"/><path fill="#472b29" d="M34.125,44.875c-0.13,0-0.259-0.05-0.356-0.15c-0.193-0.197-0.19-0.513,0.006-0.707 c0.201-0.198,5.019-4.856,13.039-5.853c0.271-0.037,0.523,0.161,0.558,0.434c0.034,0.274-0.16,0.524-0.435,0.558 c-7.67,0.954-12.414,5.528-12.461,5.574C34.378,44.827,34.251,44.875,34.125,44.875z"/><g><path fill="#472b29" d="M53.583,66.932c-0.004,0-0.008,0-0.012,0c-1.265-0.029-2.549-0.159-3.817-0.386 c-0.272-0.049-0.453-0.309-0.404-0.58c0.048-0.272,0.313-0.454,0.58-0.404c1.219,0.219,2.451,0.343,3.665,0.371 c0.275,0.006,0.494,0.235,0.488,0.511C54.076,66.716,53.854,66.932,53.583,66.932z"/></g><g><path fill="#472b29" d="M56.336,66.834c-0.255,0-0.473-0.194-0.497-0.453c-0.025-0.275,0.176-0.519,0.451-0.545 c7.694-0.727,12.572-5.159,12.62-5.204c0.203-0.186,0.519-0.176,0.707,0.028c0.188,0.202,0.175,0.519-0.027,0.706 c-0.207,0.192-5.16,4.705-13.206,5.466C56.368,66.834,56.353,66.834,56.336,66.834z"/></g></g><g><path fill="#fdfcef" d="M20.375,74.5c0,0-1.567,0-3.5,0s-3.5-1.567-3.5-3.5c0-1.781,1.335-3.234,3.055-3.455 c-0.028-0.179-0.055-0.358-0.055-0.545c0-1.933,1.567-3.5,3.5-3.5c1.032,0,1.95,0.455,2.59,1.165 c0.384-1.808,1.987-3.165,3.91-3.165c2.209,0,4,1.791,4,4c0,0.191-0.03,0.374-0.056,0.558c0.428-0.344,0.965-0.558,1.556-0.558 c1.228,0,2.245,0.887,2.455,2.055c0.179-0.028,0.358-0.055,0.545-0.055c1.933,0,3.5,1.567,3.5,3.5s-1.567,3.5-3.5,3.5 s-7.5,0-7.5,0V75h-7V74.5z"/><path fill="#472b29" d="M18.625,70c0.138,0,0.25-0.112,0.25-0.25c0-1.223-0.995-2.218-2.218-2.218 c-0.034,0.009-0.737-0.001-1.244,0.136c-0.133,0.036-0.212,0.173-0.176,0.306c0.036,0.134,0.173,0.213,0.306,0.176 c0.444-0.12,1.1-0.12,1.113-0.118c0.948,0,1.719,0.771,1.719,1.718C18.375,69.888,18.487,70,18.625,70z"/><circle cx="25.375" cy="74.5" r=".5" fill="#472b29"/><path fill="#472b29" d="M16.875,75h3.5c0.276,0,0.5-0.224,0.5-0.5s-0.224-0.5-0.5-0.5h-3.5c-1.654,0-3-1.346-3-3 c0-1.496,1.125-2.768,2.618-2.959c0.134-0.018,0.255-0.088,0.336-0.196s0.115-0.244,0.094-0.377 C16.9,67.314,16.875,67.16,16.875,67c0-1.654,1.346-3,3-3c0.85,0,1.638,0.355,2.219,1c0.125,0.139,0.321,0.198,0.5,0.148 c0.182-0.049,0.321-0.195,0.36-0.379C23.295,63.165,24.734,62,26.375,62c1.93,0,3.5,1.57,3.5,3.5c0,0.143-0.021,0.28-0.041,0.418 c-0.029,0.203,0.063,0.438,0.242,0.54c0.179,0.102,0.396,0.118,0.556-0.01C30.997,66.155,31.426,66,31.875,66 c0.966,0,1.792,0.691,1.963,1.644c0.048,0.267,0.296,0.446,0.569,0.405C34.561,68.025,34.715,68,34.875,68c1.654,0,3,1.346,3,3 s-1.346,3-3,3h-7.5c-0.276,0-0.5,0.224-0.5,0.5s0.224,0.5,0.5,0.5h7.5c2.206,0,4-1.794,4-4s-1.794-4-4-4 c-0.059,0-0.116,0.002-0.174,0.006C34.287,65.82,33.164,65,31.875,65c-0.349,0-0.689,0.061-1.011,0.18 C30.699,62.847,28.749,61,26.375,61c-1.831,0-3.466,1.127-4.153,2.774C21.542,63.276,20.72,63,19.875,63c-2.206,0-4,1.794-4,4 c0,0.048,0.001,0.095,0.004,0.142c-1.743,0.448-3.004,2.027-3.004,3.858C12.875,73.206,14.669,75,16.875,75z"/><path fill="#472b29" d="M22.375,74c0.159,0,0.841,0,1,0c0.276,0,0.5,0.224,0.5,0.5c0,0.276-0.224,0.5-0.5,0.5 c-0.159,0-0.841,0-1,0c-0.276,0-0.5-0.224-0.5-0.5C21.875,74.224,22.099,74,22.375,74z"/></g></svg>