<svg xmlns="http://www.w3.org/2000/svg"  viewBox="0 0 48 48" width="48px" height="48px"><path d="M 23.5 0.5 C 14.134844 0.5 6.5 8.1348506 6.5 17.5 C 6.5 26.187566 13.073365 33.374913 21.5 34.371094 L 21.5 38.5 L 16.5 38.5 A 2.0002 2.0002 0 1 0 16.5 42.5 L 21.5 42.5 L 21.5 45.970703 A 2.0002 2.0002 0 1 0 25.5 45.970703 L 25.5 42.5 L 30.5 42.5 A 2.0002 2.0002 0 1 0 30.5 38.5 L 25.5 38.5 L 25.5 34.371094 C 33.926635 33.374913 40.5 26.187566 40.5 17.5 C 40.5 8.1348506 32.865156 0.5 23.5 0.5 z M 23.5 4.5 C 30.703397 4.5 36.5 10.296607 36.5 17.5 C 36.5 24.703393 30.703397 30.5 23.5 30.5 C 16.296603 30.5 10.5 24.703393 10.5 17.5 C 10.5 10.296607 16.296603 4.5 23.5 4.5 z"/></svg>