<?xml version="1.0"?><svg xmlns="http://www.w3.org/2000/svg"  viewBox="0 0 30 30" width="90px" height="90px">    <path d="M 15 2 C 10.582 2 7 5.582 7 10 C 7 16 14 18 14 22 C 14 22.552 14.448 23 15 23 C 15.552 23 16 22.552 16 22 C 16 18 23 16 23 10 C 23 5.582 19.418 2 15 2 z M 15 8 C 16.105 8 17 8.895 17 10 C 17 11.105 16.105 12 15 12 C 13.895 12 13 11.105 13 10 C 13 8.895 13.895 8 15 8 z M 9.3808594 18.457031 C 5.2258594 19.167031 2 20.696 2 23 C 2 26.282 8.54 28 15 28 C 21.46 28 28 26.282 28 23 C 28 20.696 24.774141 19.167031 20.619141 18.457031 C 20.538141 18.538031 20.456 18.618266 20.375 18.697266 C 19.828 19.236266 19.319156 19.742656 18.910156 20.222656 C 23.522156 20.765656 26 22.188 26 23 C 26 24.019 22.117 26 15 26 C 7.883 26 4 24.019 4 23 C 4 22.188 6.4778437 20.765656 11.089844 20.222656 C 10.679844 19.742656 10.171 19.236266 9.625 18.697266 C 9.545 18.618266 9.4628594 18.538031 9.3808594 18.457031 z"/></svg>