<svg xmlns="http://www.w3.org/2000/svg"  viewBox="0 0 30 30" width="30px" height="30px"><path d="M 19 4 L 19 6 L 22.585938 6 L 18.609375 9.9765625 C 17.068899 8.7434262 15.119907 8 13 8 C 8.0412819 8 4 12.041282 4 17 C 4 21.958718 8.0412819 26 13 26 C 17.958718 26 22 21.958718 22 17 C 22 14.880093 21.256574 12.931101 20.023438 11.390625 L 24 7.4140625 L 24 11 L 26 11 L 26 4 L 19 4 z M 13 10 C 16.877838 10 20 13.122162 20 17 C 20 20.877838 16.877838 24 13 24 C 9.1221621 24 6 20.877838 6 17 C 6 13.122162 9.1221621 10 13 10 z"/></svg>