<svg xmlns="http://www.w3.org/2000/svg"  viewBox="0 0 48 48" width="48px" height="48px"><path d="M 40.470703 3.9863281 A 1.50015 1.50015 0 0 0 40.308594 4 L 33.5 4 A 1.50015 1.50015 0 1 0 33.5 7 L 36.878906 7 L 29.091797 14.787109 C 27.623283 13.745167 25.928647 13 24 13 C 19.047281 13 15 17.047281 15 22 C 15 26.421444 18.284245 29.952429 22.5 30.695312 L 22.5 37 L 19.5 37 A 1.50015 1.50015 0 1 0 19.5 40 L 22.5 40 L 22.5 43.5 A 1.50015 1.50015 0 1 0 25.5 43.5 L 25.5 40 L 28.5 40 A 1.50015 1.50015 0 1 0 28.5 37 L 25.5 37 L 25.5 30.695312 C 29.715755 29.952429 33 26.421444 33 22 C 33 20.071353 32.254833 18.376717 31.212891 16.908203 L 39 9.1210938 L 39 12.5 A 1.50015 1.50015 0 1 0 42 12.5 L 42 5.6894531 A 1.50015 1.50015 0 0 0 40.470703 3.9863281 z M 24 16 C 27.331281 16 30 18.668719 30 22 C 30 25.331281 27.331281 28 24 28 C 20.668719 28 18 25.331281 18 22 C 18 18.668719 20.668719 16 24 16 z"/></svg>