<svg xmlns="http://www.w3.org/2000/svg"  viewBox="0 0 64 64" width="96px" height="96px"><linearGradient id="YSjyhf8di1P3hQxbR6td6a" x1="32" x2="32" y1="11.667" y2="52.943" gradientUnits="userSpaceOnUse" spreadMethod="reflect"><stop offset="0" stop-color="#1a6dff"/><stop offset="1" stop-color="#c822ff"/></linearGradient><path fill="url(#YSjyhf8di1P3hQxbR6td6a)" d="M10 12H54V14H10z"/><linearGradient id="YSjyhf8di1P3hQxbR6td6b" x1="24.5" x2="24.5" y1="22" y2="46" gradientUnits="userSpaceOnUse" spreadMethod="reflect"><stop offset="0" stop-color="#1a6dff"/><stop offset="1" stop-color="#c822ff"/></linearGradient><path fill="none" stroke="url(#YSjyhf8di1P3hQxbR6td6b)" stroke-miterlimit="10" stroke-width="2" d="M30.488,45c-0.287,0-0.577-0.069-0.844-0.21 l-4.808-2.521c-0.21-0.111-0.461-0.111-0.671,0l-4.808,2.521c-0.619,0.324-1.352,0.268-1.915-0.144 c-0.559-0.409-0.832-1.086-0.715-1.768l0.919-5.339c0.039-0.23-0.037-0.465-0.205-0.629l-3.89-3.782 c-0.497-0.483-0.674-1.194-0.462-1.854c0.214-0.664,0.775-1.139,1.465-1.239l5.376-0.779c0.234-0.034,0.436-0.18,0.541-0.391 l2.404-4.858C23.183,23.387,23.805,23,24.5,23c0.694,0,1.317,0.387,1.625,1.009l2.404,4.858c0.104,0.211,0.307,0.356,0.541,0.39 l5.376,0.779c0.691,0.101,1.252,0.575,1.466,1.239c0.213,0.66,0.036,1.37-0.462,1.854l-3.89,3.782 c-0.168,0.163-0.244,0.398-0.205,0.629l0.919,5.339c0.117,0.681-0.157,1.359-0.715,1.768C31.239,44.881,30.864,45,30.488,45z"/><linearGradient id="YSjyhf8di1P3hQxbR6td6c" x1="24.591" x2="24.591" y1="794.7" y2="781.961" gradientTransform="matrix(1 0 0 -1 0 822)" gradientUnits="userSpaceOnUse" spreadMethod="reflect"><stop offset="0" stop-color="#6dc7ff"/><stop offset="1" stop-color="#e6abff"/></linearGradient><path fill="url(#YSjyhf8di1P3hQxbR6td6c)" d="M25.244,28.404l1.383,2.789c0.106,0.214,0.311,0.362,0.548,0.397l3.092,0.447 c0.597,0.086,0.835,0.817,0.403,1.236l-2.237,2.171c-0.172,0.166-0.25,0.406-0.209,0.641l0.528,3.066 c0.102,0.592-0.522,1.043-1.056,0.764l-2.766-1.447c-0.212-0.111-0.466-0.111-0.677,0l-2.766,1.447 c-0.534,0.28-1.158-0.172-1.056-0.764l0.528-3.066c0.04-0.235-0.038-0.475-0.209-0.641l-2.237-2.171 c-0.432-0.419-0.194-1.15,0.403-1.236l3.092-0.447c0.237-0.034,0.442-0.182,0.548-0.397l1.383-2.789 C24.205,27.866,24.977,27.866,25.244,28.404z"/><linearGradient id="YSjyhf8di1P3hQxbR6td6d" x1="32" x2="32" y1="11.667" y2="52.943" gradientUnits="userSpaceOnUse" spreadMethod="reflect"><stop offset="0" stop-color="#1a6dff"/><stop offset="1" stop-color="#c822ff"/></linearGradient><path fill="url(#YSjyhf8di1P3hQxbR6td6d)" d="M55,16H9c-1.654,0-3,1.346-3,3v30c0,1.654,1.346,3,3,3h46c1.654,0,3-1.346,3-3V19 C58,17.346,56.654,16,55,16z M56,49c0,0.551-0.448,1-1,1H9c-0.552,0-1-0.449-1-1V19c0-0.551,0.448-1,1-1h46c0.552,0,1,0.449,1,1V49z M50,42h2v2h-2V42z M46,42h2v2h-2V42z M42,42h2v2h-2V42z M38,42h2v2h-2V42z"/></svg>